<?xml version="1.0" encoding="utf-8"?>
<!-- Generator: Adobe Illustrator 26.0.2, SVG Export Plug-In . SVG Version: 6.00 Build 0)  -->
<svg version="1.1" id="图层_1" xmlns="http://www.w3.org/2000/svg" xmlns:xlink="http://www.w3.org/1999/xlink" x="0px" y="0px"
	 viewBox="0 0 841.9 595.3" style="enable-background:new 0 0 841.9 595.3;" xml:space="preserve">
<style type="text/css">
	.st0{opacity:0.999;fill-rule:evenodd;clip-rule:evenodd;fill:#FEFCFC;enable-background:new    ;}
	.st1{opacity:1.600000e-02;fill-rule:evenodd;clip-rule:evenodd;fill:#FEFDFC;enable-background:new    ;}
	.st2{opacity:3.900000e-02;fill-rule:evenodd;clip-rule:evenodd;fill:#FFFDFD;enable-background:new    ;}
	.st3{opacity:3.900000e-02;fill-rule:evenodd;clip-rule:evenodd;fill:#FFFEFE;enable-background:new    ;}
	.st4{opacity:1.200000e-02;fill-rule:evenodd;clip-rule:evenodd;fill:#FEFDFC;enable-background:new    ;}
	.st5{opacity:1.200000e-02;fill-rule:evenodd;clip-rule:evenodd;fill:#FFFFFF;enable-background:new    ;}
	.st6{opacity:1.200000e-02;fill-rule:evenodd;clip-rule:evenodd;fill:#FFFFFD;enable-background:new    ;}
	.st7{opacity:2.900000e-02;fill-rule:evenodd;clip-rule:evenodd;fill:#FFFEFE;enable-background:new    ;}
	.st8{opacity:1.200000e-02;fill-rule:evenodd;clip-rule:evenodd;fill:#FFFEFD;enable-background:new    ;}
	.st9{opacity:1.600000e-02;fill-rule:evenodd;clip-rule:evenodd;fill:#FFFFFF;enable-background:new    ;}
	.st10{opacity:3.900000e-02;fill-rule:evenodd;clip-rule:evenodd;fill:#FFFFFF;enable-background:new    ;}
	.st11{fill-rule:evenodd;clip-rule:evenodd;fill:#515051;}
	.st12{fill-rule:evenodd;clip-rule:evenodd;fill:#FCFBFB;}
	.st13{fill-rule:evenodd;clip-rule:evenodd;fill:#282929;}
	.st14{fill-rule:evenodd;clip-rule:evenodd;fill:#555556;}
	.st15{fill-rule:evenodd;clip-rule:evenodd;fill:#2D2D2D;}
	.st16{fill-rule:evenodd;clip-rule:evenodd;fill:#FDFBFB;}
	.st17{fill-rule:evenodd;clip-rule:evenodd;fill:#504F4F;}
	.st18{fill-rule:evenodd;clip-rule:evenodd;fill:#08070A;}
	.st19{opacity:1.600000e-02;fill-rule:evenodd;clip-rule:evenodd;fill:#FFFFFE;enable-background:new    ;}
	.st20{fill-rule:evenodd;clip-rule:evenodd;fill:#1A1E22;}
	.st21{fill-rule:evenodd;clip-rule:evenodd;fill:#2E2E2F;}
	.st22{fill-rule:evenodd;clip-rule:evenodd;fill:#F8F6F6;}
	.st23{fill-rule:evenodd;clip-rule:evenodd;fill:#4A4949;}
	.st24{fill-rule:evenodd;clip-rule:evenodd;fill:#F5F4F4;}
	.st25{fill-rule:evenodd;clip-rule:evenodd;fill:#353535;}
	.st26{fill-rule:evenodd;clip-rule:evenodd;fill:#515052;}
	.st27{fill-rule:evenodd;clip-rule:evenodd;fill:#525151;}
	.st28{fill-rule:evenodd;clip-rule:evenodd;fill:#2B2B2D;}
	.st29{fill-rule:evenodd;clip-rule:evenodd;fill:#2F2F30;}
	.st30{fill-rule:evenodd;clip-rule:evenodd;fill:#242423;}
	.st31{fill-rule:evenodd;clip-rule:evenodd;fill:#5E5F60;}
	.st32{fill-rule:evenodd;clip-rule:evenodd;fill:#4D4E4E;}
	.st33{fill-rule:evenodd;clip-rule:evenodd;fill:#2E2F2F;}
	.st34{fill-rule:evenodd;clip-rule:evenodd;fill:#4F4F51;}
	.st35{fill-rule:evenodd;clip-rule:evenodd;fill:#183263;}
	.st36{fill-rule:evenodd;clip-rule:evenodd;fill:#1C2C56;}
	.st37{fill-rule:evenodd;clip-rule:evenodd;fill:#FEFCFC;}
	.st38{fill-rule:evenodd;clip-rule:evenodd;fill:#F8F6F8;}
	.st39{fill-rule:evenodd;clip-rule:evenodd;fill:#FBFAFB;}
	.st40{fill-rule:evenodd;clip-rule:evenodd;fill:#FBF9F9;}
	.st41{fill-rule:evenodd;clip-rule:evenodd;fill:#FEFDFC;}
	.st42{fill-rule:evenodd;clip-rule:evenodd;fill:#FBF9FA;}
	.st43{fill-rule:evenodd;clip-rule:evenodd;fill:#F6F4F7;}
	.st44{fill-rule:evenodd;clip-rule:evenodd;fill:#FAF8F9;}
	.st45{fill-rule:evenodd;clip-rule:evenodd;fill:#F9F8FA;}
	.st46{fill-rule:evenodd;clip-rule:evenodd;fill:#FCFAFA;}
	.st47{opacity:3.300000e-02;fill-rule:evenodd;clip-rule:evenodd;fill:#FFFEFD;enable-background:new    ;}
	.st48{opacity:1.200000e-02;fill-rule:evenodd;clip-rule:evenodd;fill:#FFFFFE;enable-background:new    ;}
	.st49{opacity:3.300000e-02;fill-rule:evenodd;clip-rule:evenodd;fill:#FFFDFD;enable-background:new    ;}
	.st50{opacity:3.300000e-02;fill-rule:evenodd;clip-rule:evenodd;fill:#FEFDFC;enable-background:new    ;}
	.st51{opacity:3.900000e-02;fill-rule:evenodd;clip-rule:evenodd;fill:#FEFDFC;enable-background:new    ;}
	.st52{fill:#183263;}
	.st53{fill:#4A79A3;}
	.st54{fill:#A5C9E8;}
	.st55{fill:#F0F2FA;}
	.st56{fill:#E19FAD;}
	.st57{fill:#BD4C6D;}
</style>
<g>
	<g>
		<g>
			<path class="st0" d="M45.1,254.3c13.6,0,27.2,0,40.7,0c0,0.1,0,0.1,0,0.2c0.3,0,0.5,0,0.8,0c0.1,0,0.1,0,0.1,0.1
				c2.2,0.5,4.2,1.2,6,2.2c0,0,0.1,0.1,0.1,0.1c0.1-0.1,0.1-0.1,0.1,0c0.1,0,0.1,0.1,0.2,0.1c0.1,0.1,0.3,0.2,0.4,0.2
				c0.1,0.1,0.2,0.2,0.3,0.2c0,0,0.1,0.1,0.1,0.1c0.1-0.1,0.1-0.1,0.1,0c0,0,0.1,0.1,0.1,0.1c0,0.1,0.1,0.1,0.2,0.1
				c0,0.1,0.1,0.1,0.2,0.1c0.1,0.1,0.2,0.2,0.3,0.2c0,0.1,0.1,0.1,0.1,0.1c0.1,0.1,0.1,0.1,0.2,0.1c0.1,0,0.1,0.1,0,0.1
				c0,0,0.1,0,0.1,0c0,0.1,0.1,0.1,0.1,0.1c0,0,0,0.1,0.1,0.1c0.2-0.1,0.3,0,0.3,0.2c-0.1,0-0.1,0,0,0.1c0,0.1,0.1,0.1,0.2,0.1
				c0,0.1,0.1,0.1,0.1,0.1c0.1,0.1,0.2,0.1,0.3,0.2c0,0,0.1,0,0.1-0.1c0.1,0.1,0.2,0.2,0.3,0.3c-0.1,0.1-0.1,0.1,0.1,0.1
				c0,0.1,0.1,0.1,0.1,0.1c0,0.1,0.1,0.1,0.1,0.1c0,0.1,0.1,0.1,0.1,0.1c0,0.1,0.1,0.1,0.1,0.1c0,0.1,0.1,0.1,0.1,0.1
				c0,0.1,0.1,0.1,0.1,0.1c0,0.1,0.1,0.1,0.1,0.1c0,0.1,0.1,0.1,0.1,0.1c0,0.1,0.1,0.1,0.1,0.1c0,0.1,0.1,0.1,0.1,0.1
				c0,0.1,0.1,0.1,0.1,0.1c0,0.1,0,0.1,0.1,0.1c0.1,0.1,0.2,0.2,0.2,0.2c0.1,0.1,0.1,0.1,0,0.2c0,0,0.1,0.1,0.1,0.1
				c0,0.1,0.1,0.1,0.1,0.1c0,0.1,0.1,0.1,0.1,0.1c0.1,0.2,0.2,0.3,0.3,0.5c0,0.1,0.1,0.1,0.1,0.2c0.1,0.1,0.1,0.2,0.2,0.3
				c0,0.1,0.1,0.1,0.1,0.2c0.1,0.1,0.1,0.2,0.2,0.3c0.1,0.1,0.1,0.2,0.2,0.3c0.1,0.1,0.1,0.3,0.2,0.4c0,0.1,0.1,0.1,0.1,0.2
				c0,0.1,0.1,0.1,0.1,0.2c0,0.1,0.1,0.2,0.1,0.1c0.1,0.3,0.2,0.6,0.4,0.9c0.2,0.4,0.4,0.8,0.6,1.1c0.2,0.5,0.4,1,0.5,1.4
				c0.1,0,0.1,0,0,0.1c0,0.1,0.1,0.2,0.2,0.3c0,0,0,0-0.1,0.1c0.2,0.4,0.3,0.9,0.5,1.3c0,0.2,0,0.3,0.1,0.5c0,0,0,0-0.1,0.1
				c0.1,0.3,0.2,0.6,0.3,0.9c0,0.3,0,0.6,0.2,0.9c0,13.5,0,27,0,40.5c-0.1,0.1-0.1,0.2-0.1,0.3c-0.2,1.3-0.5,2.5-1,3.8
				c0,0,0,0,0.1,0.1c-0.2,0.4-0.4,0.9-0.6,1.4c0,0.2-0.1,0.3-0.2,0.5c-0.1,0.2-0.3,0.4-0.3,0.7c-0.1,0.2-0.3,0.4-0.3,0.6
				c-0.1,0.1-0.1,0.1-0.1,0.2c-0.1,0.1-0.2,0.2-0.2,0.3c-0.1,0.1-0.1,0.1-0.1,0.2c-0.1,0.1-0.2,0.2-0.2,0.3
				c-0.1,0.1-0.2,0.2-0.2,0.3c-0.1,0-0.1,0.1-0.1,0.1c-0.1,0-0.1,0.1-0.1,0.2c-0.1,0-0.1,0.1-0.1,0.2c-0.1,0.1-0.2,0.2-0.2,0.3
				c0,0,0,0.1,0.1,0.1c0,0.1-0.1,0.1-0.1,0c0,0,0,0.1,0,0.1c-0.1,0-0.1,0.1-0.1,0.1c-0.1,0.1-0.1,0.1-0.1,0.2
				c-0.1,0.1-0.1,0.1-0.2,0.2c-0.1-0.1-0.1-0.1-0.1,0.1c-0.1,0-0.1,0.1-0.1,0.1c-0.1,0.1-0.2,0.3-0.3,0.4c0,0,0,0.1,0.1,0.1
				c-0.1,0.1-0.2,0.2-0.3,0.3c0-0.1,0-0.1-0.1,0c-0.1,0-0.1,0.1-0.1,0.2c-0.1,0-0.1,0.1-0.1,0.1c-0.1,0-0.1,0.1-0.1,0.1
				c-0.1,0-0.1,0.1-0.1,0.1c-0.1,0-0.1,0.1-0.1,0.1c-0.1,0-0.1,0.1-0.1,0.1c-0.1,0-0.1,0.1-0.1,0.1c-0.1,0-0.1,0-0.1,0.1
				c0,0-0.1,0-0.1,0.1c0,0-0.1,0-0.1,0.1c0,0-0.1,0-0.1,0.1c-0.1,0-0.1,0,0,0.1c-0.2,0.1-0.3,0.2-0.5,0.4c-0.1,0-0.1,0.1-0.1,0.1
				c-0.1,0-0.1,0.1-0.1,0.1c-0.1,0-0.1,0.1-0.2,0.1c-0.1,0.1-0.3,0.2-0.4,0.3c-0.1,0-0.1,0-0.1,0.1c0,0-0.1,0-0.1,0.1
				c-0.1,0.1-0.2,0.1-0.3,0.2c-0.1,0-0.1,0.1-0.2,0.1c-0.1,0.1-0.2,0.1-0.3,0.2c-0.1,0-0.2,0.1-0.3,0.2c-0.1,0-0.2,0.1-0.3,0.2
				c-0.1,0-0.2,0.1-0.3,0.2c-0.1,0-0.2,0-0.2,0.1c-0.2,0.1-0.4,0.2-0.6,0.3c-0.1,0.1-0.3,0.2-0.5,0.2c-0.3,0.1-0.5,0.2-0.7,0.4
				c0,0-0.1,0-0.1-0.1c-0.1,0-0.2,0.1-0.1,0.2c0,0-0.1,0-0.1-0.1c-0.6,0.3-1.2,0.5-1.8,0.8c0,0.1,0,0.1-0.1,0
				c-0.1,0-0.2,0.1-0.3,0.2c-0.1,0-0.2,0-0.3,0.1c0,0,0,0-0.1-0.1c-0.6,0.2-1.3,0.4-2,0.5c-0.1,0.1-0.1,0.1-0.2,0
				c-0.3,0-0.6,0.1-0.9,0.2c-13.3,0-26.7,0-40,0c-0.3,0-0.6-0.1-0.9-0.2c0,0-0.1,0-0.1,0.1c-0.4-0.2-0.7-0.3-1.1-0.3
				c0,0,0,0,0.1-0.1c-1.2-0.3-2.3-0.7-3.4-1.2c0,0-0.1,0-0.1,0.1c0-0.1,0-0.1-0.1-0.2c-0.1,0.1-0.1,0.1-0.1,0
				c-0.2-0.1-0.5-0.2-0.7-0.3c-0.1,0-0.1-0.1-0.2-0.1c-0.2,0-0.3-0.1-0.5-0.2c-0.1-0.1-0.2-0.2-0.3-0.2c0,0-0.1-0.1-0.1-0.1
				c-0.1,0.1-0.1,0.1-0.1,0c-0.1,0-0.1-0.1-0.2-0.1c0-0.1-0.1-0.1-0.2-0.1c-0.1-0.1-0.1-0.1-0.2-0.1c-0.1-0.1-0.2-0.2-0.3-0.2
				c-0.1-0.1-0.2-0.2-0.3-0.2c0-0.1-0.1-0.1-0.2-0.1c0,0-0.1-0.1-0.1-0.1c-0.1,0.1-0.1,0.1-0.1,0c0,0-0.1-0.1-0.1-0.1
				c-0.1-0.1-0.3-0.2-0.5-0.3c0-0.1-0.1-0.1-0.1-0.1c-0.1-0.1-0.2-0.2-0.3-0.2c0,0,0-0.1-0.1-0.1c0,0-0.1-0.1-0.1-0.1
				c0-0.1-0.1-0.1-0.1-0.1c0-0.1-0.1-0.1-0.1-0.1c-0.1-0.1-0.3-0.2-0.4-0.3c0,0-0.1,0-0.1,0.1c0-0.1-0.1-0.2-0.2-0.3
				c0-0.1-0.1-0.1-0.1-0.1c0-0.1-0.1-0.1-0.1-0.1c0-0.1-0.1-0.1-0.1-0.1c0-0.1-0.1-0.1-0.1-0.1c0-0.1-0.1-0.1-0.1-0.1
				c0-0.1-0.1-0.1-0.1-0.1c0-0.1-0.1-0.1-0.1-0.1c0-0.1,0-0.1-0.1-0.1c0,0,0-0.1-0.1-0.1c0-0.1,0-0.1-0.1,0
				c-0.2-0.1-0.3-0.2-0.5-0.4c0.1-0.1,0-0.2-0.1-0.2c0-0.1-0.1-0.1-0.1-0.1c0-0.1-0.1-0.1-0.1-0.1c0-0.1-0.1-0.1-0.1-0.2
				c-0.1-0.1-0.2-0.3-0.3-0.4c0-0.1-0.1-0.1-0.1-0.1c0-0.1-0.1-0.2-0.2-0.3c0-0.1-0.1-0.1-0.1-0.2c-0.1-0.1-0.1-0.2-0.2-0.3
				c0,0,0-0.1,0-0.1c-0.1,0.1-0.1,0.1-0.1,0c0.1-0.1,0-0.2,0-0.2c-0.1,0-0.1,0,0-0.1c-0.1-0.1-0.1-0.2-0.2-0.3c0-0.1,0-0.2-0.1-0.2
				c0-0.1-0.1-0.1-0.1-0.2c0-0.1-0.1-0.1-0.1-0.2c-0.1-0.2-0.2-0.4-0.3-0.6c-0.1-0.1-0.2-0.3-0.2-0.5c0-0.1-0.1-0.2-0.1-0.2
				c0-0.1-0.1-0.2-0.1-0.2c-0.1-0.1-0.2-0.3-0.2-0.5c0-0.1-0.1-0.1-0.1-0.2c-0.1,0-0.1,0,0-0.1c-0.4-0.8-0.7-1.6-0.9-2.4
				c-0.2-0.5-0.3-1.1-0.5-1.6c0-0.4,0-0.7-0.2-1c0-13.5,0-27.1,0-40.6c0.2-1,0.5-2,0.8-3c-0.1-0.1-0.1-0.1,0-0.1
				c0.2-0.7,0.5-1.3,0.8-2c-0.1-0.1-0.1-0.1,0-0.1c0-0.1,0.1-0.1,0.1-0.2c0.1-0.2,0.2-0.4,0.3-0.7c0-0.1,0.1-0.1,0.1-0.2
				c0.1-0.1,0.1-0.1,0.1-0.2c0.1-0.1,0.2-0.2,0.2-0.4c0.1-0.1,0.2-0.3,0.2-0.4c0.1,0,0.1-0.1,0.1-0.2c0.1-0.1,0.2-0.3,0.2-0.4
				c0.1-0.1,0.2-0.2,0.2-0.3c0.1-0.1,0.2-0.2,0.2-0.3c0.1,0,0.1-0.1,0.1-0.2c0.1,0,0.1-0.1,0.1-0.2c0.1,0,0.1-0.1,0.1-0.2
				c0.1-0.1,0.2-0.2,0.2-0.3c0.1,0,0.1-0.1,0.1-0.2c0.1-0.1,0.2-0.2,0.2-0.3c0,0,0-0.1-0.1-0.1c0.1,0,0.1-0.1,0.2-0.1
				c0.1,0,0.1-0.1,0.1-0.1c0.1,0,0.1-0.1,0.1-0.1c0.1-0.1,0.2-0.2,0.2-0.3c0,0,0-0.1-0.1-0.1c0.1-0.1,0.2-0.2,0.3-0.3
				c0.1,0.1,0.1,0.1,0.1-0.1c0.1,0,0.1-0.1,0.1-0.1c0.1,0,0.1-0.1,0.1-0.1c0.1,0,0.1-0.1,0.1-0.1c0.1,0,0.1-0.1,0.1-0.1
				c0.1,0,0.1-0.1,0.1-0.1c0.1,0,0.1-0.1,0.1-0.1c0.1,0,0.1-0.1,0.1-0.1c0.1,0,0.1-0.1,0.1-0.1c0.1,0,0.1-0.1,0.1-0.1
				c0.1,0,0.1-0.1,0.1-0.1c0.2,0,0.2-0.1,0.1-0.1c0.1-0.1,0.3-0.2,0.4-0.4c0,0,0.1,0,0.1,0.1c0.1-0.1,0.2-0.1,0.3-0.2
				c0.1,0,0.1-0.1,0.1-0.1c0.1,0,0.1-0.1,0.2-0.1c0.1-0.1,0.2-0.2,0.3-0.2c0.1,0,0.1-0.1,0.1-0.1c0,0,0.1,0,0.1,0
				c-0.1-0.1-0.1-0.1,0-0.1c0.1,0.1,0.2,0,0.2-0.1c0.1,0,0.1-0.1,0.1-0.1c0.1,0,0.2-0.1,0.3-0.2c0.1,0,0.1-0.1,0.2-0.1
				c0.1,0,0.1-0.1,0.2-0.1c0.1,0,0.1-0.1,0.2-0.1c0.1,0,0.1-0.1,0.2-0.1c0.1-0.1,0.2-0.1,0.3-0.2c0.1,0,0.2-0.1,0.3-0.1
				c0.1,0,0.1-0.1,0-0.1c0.1,0,0.1,0,0.1,0c0,0,0.1-0.1,0.1-0.1c0-0.1,0-0.1,0.1,0c0.1,0,0.1-0.1,0.1-0.1c0.2-0.1,0.4-0.2,0.6-0.3
				c0.5-0.2,0.9-0.5,1.4-0.7c0.9-0.3,1.9-0.7,3-1c-0.1-0.1,0-0.1,0.1-0.1c0.1,0,0.1,0,0.1,0.1c0.5-0.1,1-0.2,1.5-0.3
				C45.1,254.4,45.1,254.4,45.1,254.3z"/>
		</g>
		<g>
			<path class="st1" d="M40.4,255.8"/>
		</g>
		<g>
			<path class="st2" d="M39,256.5c0,0-0.1,0-0.1,0C38.9,256.4,39,256.4,39,256.5z"/>
		</g>
		<g>
			<path class="st1" d="M38.4,256.8"/>
		</g>
		<g>
			<path class="st1" d="M92.8,256.8"/>
		</g>
		<g>
			<path class="st3" d="M93.2,257.1c0-0.1,0.1-0.1,0.1,0C93.2,257.1,93.2,257.1,93.2,257.1z"/>
		</g>
		<g>
			<path class="st4" d="M37.6,257.3"/>
		</g>
		<g>
			<path class="st5" d="M93.5,257.2"/>
		</g>
		<g>
			<path class="st1" d="M37.2,257.5"/>
		</g>
		<g>
			<path class="st1" d="M93.9,257.5"/>
		</g>
		<g>
			<path class="st3" d="M37.1,257.6c0,0-0.1,0-0.1,0C37,257.6,37,257.6,37.1,257.6z"/>
		</g>
		<g>
			<path class="st1" d="M36.9,257.7"/>
		</g>
		<g>
			<path class="st1" d="M94.2,257.7"/>
		</g>
		<g>
			<path class="st3" d="M36.7,257.9c0,0-0.1,0-0.1,0C36.7,257.8,36.7,257.8,36.7,257.9z"/>
		</g>
		<g>
			<path class="st3" d="M94.4,257.9c0-0.1,0.1-0.1,0.1,0C94.5,257.9,94.4,257.9,94.4,257.9z"/>
		</g>
		<g>
			<path class="st6" d="M36.6,258"/>
		</g>
		<g>
			<path class="st4" d="M94.6,257.9"/>
		</g>
		<g>
			<path class="st5" d="M36.2,258.2"/>
		</g>
		<g>
			<path class="st5" d="M94.9,258.1"/>
		</g>
		<g>
			<path class="st1" d="M36.1,258.3"/>
		</g>
		<g>
			<path class="st1" d="M95,258.3"/>
		</g>
		<g>
			<path class="st5" d="M35.8,258.5"/>
		</g>
		<g>
			<path class="st5" d="M95.4,258.5"/>
		</g>
		<g>
			<path class="st4" d="M35.6,258.7"/>
		</g>
		<g>
			<path class="st1" d="M95.5,258.6"/>
		</g>
		<g>
			<path class="st3" d="M35.4,258.9c0,0-0.1,0-0.1,0C35.3,258.8,35.3,258.8,35.4,258.9z"/>
		</g>
		<g>
			<path class="st5" d="M35.2,259"/>
		</g>
		<g>
			<path class="st7" d="M95.9,259C95.9,259,95.9,259,95.9,259C96,259,96,259,95.9,259z"/>
		</g>
		<g>
			<path class="st8" d="M35.1,259.1"/>
		</g>
		<g>
			<path class="st5" d="M96.1,259"/>
		</g>
		<g>
			<path class="st5" d="M96.2,259.2"/>
		</g>
		<g>
			<path class="st5" d="M34.3,259.8"/>
		</g>
		<g>
			<path class="st5" d="M96.8,259.7"/>
		</g>
		<g>
			<path class="st5" d="M34.2,259.9"/>
		</g>
		<g>
			<path class="st5" d="M97,259.8"/>
		</g>
		<g>
			<path class="st5" d="M34.1,260"/>
		</g>
		<g>
			<path class="st5" d="M97.1,260"/>
		</g>
		<g>
			<path class="st5" d="M33.9,260.1"/>
		</g>
		<g>
			<path class="st5" d="M97.2,260.1"/>
		</g>
		<g>
			<path class="st5" d="M33.8,260.2"/>
		</g>
		<g>
			<path class="st5" d="M97.3,260.2"/>
		</g>
		<g>
			<path class="st5" d="M33.7,260.4"/>
		</g>
		<g>
			<path class="st5" d="M97.4,260.3"/>
		</g>
		<g>
			<path class="st5" d="M33.6,260.5"/>
		</g>
		<g>
			<path class="st5" d="M97.5,260.4"/>
		</g>
		<g>
			<path class="st5" d="M33.5,260.6"/>
		</g>
		<g>
			<path class="st5" d="M97.6,260.5"/>
		</g>
		<g>
			<path class="st5" d="M33.4,260.7"/>
		</g>
		<g>
			<path class="st5" d="M97.8,260.6"/>
		</g>
		<g>
			<path class="st5" d="M33.3,260.8"/>
		</g>
		<g>
			<path class="st5" d="M97.9,260.8"/>
		</g>
		<g>
			<path class="st5" d="M33.1,260.9"/>
		</g>
		<g>
			<path class="st5" d="M98,260.9"/>
		</g>
		<g>
			<path class="st5" d="M98.1,261"/>
		</g>
		<g>
			<path class="st5" d="M32.6,261.6"/>
		</g>
		<g>
			<path class="st9" d="M98.6,261.6"/>
		</g>
		<g>
			<path class="st5" d="M32.5,261.7"/>
		</g>
		<g>
			<path class="st5" d="M98.7,261.7"/>
		</g>
		<g>
			<path class="st5" d="M32.3,261.8"/>
		</g>
		<g>
			<path class="st5" d="M98.8,261.8"/>
		</g>
		<g>
			<path class="st5" d="M32,262.3"/>
		</g>
		<g>
			<path class="st5" d="M99.1,262.2"/>
		</g>
		<g>
			<path class="st3" d="M31.9,262.5c-0.1,0-0.1-0.1,0-0.1C31.9,262.4,31.9,262.4,31.9,262.5z"/>
		</g>
		<g>
			<path class="st10" d="M99.2,262.5c0,0,0-0.1,0-0.1C99.3,262.4,99.3,262.4,99.2,262.5z"/>
		</g>
		<g>
			<path class="st5" d="M31.7,262.7"/>
		</g>
		<g>
			<path class="st11" d="M84.7,263.3c0,0.1,0,0.1-0.1,0.2C84.6,263.4,84.6,263.3,84.7,263.3c-0.1,0.1-0.2,0.2-0.3,0.2
				c0-0.1,0-0.1,0-0.2c-0.2,0-0.5-0.1-0.7-0.2c0.4-0.3,0.8-0.5,1.3-0.5C84.9,262.9,84.8,263.1,84.7,263.3
				C84.6,263.3,84.7,263.3,84.7,263.3z"/>
		</g>
		<g>
			<path class="st5" d="M99.5,262.7"/>
		</g>
		<g>
			<path class="st10" d="M31.5,262.9c-0.1,0-0.1-0.1,0-0.1C31.5,262.8,31.6,262.9,31.5,262.9z"/>
		</g>
		<g>
			<path class="st3" d="M99.6,262.9c0,0,0-0.1,0-0.1C99.6,262.9,99.6,262.9,99.6,262.9z"/>
		</g>
		<g>
			<path class="st9" d="M31.4,263.1"/>
		</g>
		<g>
			<path class="st3" d="M31.3,263.3c-0.1,0-0.1-0.1,0-0.1C31.3,263.2,31.3,263.2,31.3,263.3z"/>
		</g>
		<g>
			<path class="st5" d="M99.8,263.1"/>
		</g>
		<g>
			<path class="st12" d="M83.7,263.1c0.2,0.1,0.5,0.1,0.7,0.2c0,0.1,0,0.1,0,0.2c-0.4,0.5-0.7,0.9-1.1,1.4c0.2,0,0.3,0.1,0.4,0.3
				c0-0.1,0.1-0.2,0.2-0.2c0.2,0,0.4,0.1,0.4,0.3c-0.5-0.1-0.9,0.1-1.2,0.5c0.2,0.3,0.4,0.7,0.5,1c0.1,0.2,0,0.3-0.2,0.3
				c-0.5-0.2-0.8-0.5-1-0.9c-0.8,0.1-1.5-0.1-2.2-0.4c0.1-0.1,0.2-0.2,0.3-0.3c0.3,0,0.6,0,1-0.1c0.2-0.2,0.1-0.3-0.1-0.5
				c-0.7-0.2-0.7-0.3,0.1-0.4c0.2,0,0.4,0.1,0.6,0.1C82.5,264,83,263.5,83.7,263.1z"/>
		</g>
		<g>
			<path class="st5" d="M31.1,263.5"/>
		</g>
		<g>
			<path class="st4" d="M100,263.5"/>
		</g>
		<g>
			<path class="st5" d="M30.9,263.9"/>
		</g>
		<g>
			<path class="st3" d="M100.3,263.9c0,0,0-0.1,0-0.1C100.3,263.9,100.3,263.9,100.3,263.9z"/>
		</g>
		<g>
			<path class="st9" d="M100.4,264.1"/>
		</g>
		<g>
			<path class="st10" d="M30.6,264.3c-0.1,0-0.1-0.1,0-0.1C30.6,264.2,30.6,264.2,30.6,264.3z"/>
		</g>
		<g>
			<path class="st10" d="M100.5,264.3c0,0,0-0.1,0-0.1C100.6,264.2,100.5,264.3,100.5,264.3z"/>
		</g>
		<g>
			<path class="st9" d="M30.5,264.5"/>
		</g>
		<g>
			<path class="st3" d="M30.3,264.9c-0.1,0-0.1-0.1,0-0.1C30.3,264.8,30.3,264.8,30.3,264.9z"/>
		</g>
		<g>
			<path class="st13" d="M84.7,263.3C84.7,263.3,84.6,263.3,84.7,263.3c0.1-0.2,0.2-0.4,0.3-0.6c-0.5,0-0.9,0.2-1.3,0.5
				c-0.7,0.4-1.2,0.9-1.6,1.6c-0.2,0-0.4-0.1-0.6-0.1c-0.7,0.1-0.7,0.2-0.1,0.4c0.2,0.1,0.2,0.3,0.1,0.5c-0.3,0.1-0.6,0.1-1,0.1
				c-0.1,0.1-0.2,0.1-0.3,0.3c0.7,0.3,1.4,0.4,2.2,0.4c0.2,0.5,0.5,0.8,1,0.9c0.2,0,0.2-0.1,0.2-0.3c-0.2-0.3-0.4-0.7-0.5-1
				c0.3-0.4,0.7-0.6,1.2-0.5c0-0.2-0.2-0.3-0.4-0.3c-0.1,0-0.2,0.1-0.2,0.2c0-0.2-0.2-0.3-0.4-0.3c0.3-0.5,0.7-1,1.1-1.4
				C84.5,263.4,84.5,263.4,84.7,263.3c-0.1,0.1,0,0.1-0.1,0.2c-0.3,0.4-0.6,0.8-1,1.1c-0.1,0.1-0.1,0.2-0.1,0.3c0.2,0,0.5,0,0.7,0.1
				c0.1,0.1,0.2,0.2,0.2,0.3c0,0.1-0.1,0.1-0.1,0.1c-0.4,0-0.7,0.1-1,0.3c-0.1,0.1-0.1,0.2,0,0.3c0.2,0.3,0.3,0.6,0.5,0.9
				c-0.1,0.1-0.1,0.2-0.3,0.3c-0.5-0.1-0.9-0.4-1.1-0.9c-0.6,0-1.2-0.1-1.7-0.3c-0.8,0.1-0.9-0.1-0.3-0.6c0.3-0.1,0.7-0.1,1-0.1
				c0.1-0.2,0-0.3-0.2-0.3c-0.2,0-0.4,0-0.6,0c0-0.1,0-0.1,0-0.2c0.1-0.1,0.2-0.2,0.4-0.3c0.4-0.1,0.7-0.1,1.1-0.1
				c0.6-1,1.5-1.6,2.6-2c0.1,0,0.2,0,0.3,0C85,262.8,84.9,263.1,84.7,263.3z"/>
		</g>
		<g>
			<path class="st14" d="M83.3,264.9c-0.2,0.1-0.4,0.2-0.7,0.3c0-0.1,0-0.2,0.1-0.2C83,265,83.1,264.9,83.3,264.9z"/>
		</g>
		<g>
			<path class="st4" d="M30.1,265.2"/>
		</g>
		<g>
			<path class="st4" d="M101.1,265.2"/>
		</g>
		<g>
			<path class="st9" d="M30,265.5"/>
		</g>
		<g>
			<path class="st9" d="M29.8,265.7"/>
		</g>
		<g>
			<path class="st15" d="M71,260.9c0.5,0.5,0.8,1,1.1,1.6c0.6,0.8,1.2,1.6,1.6,2.5c0.1,0.3,0.2,0.6,0.3,0.9c0.4-0.2,0.8-0.2,1.3-0.1
				c0.1,0.1,0.2,0.1,0.2,0.2c0.3,0,0.6,0.1,0.7,0.5c-0.6,0.3-1.2,0.6-1.9,0.7c-0.7,0.4-1.4,0.5-2.2,0.4c-0.4,0.2-0.8,0.2-1.2,0.1
				c-0.3-0.5-0.3-1,0.2-1.4c0.3,0,0.7,0,1,0c-0.4-1.2-0.7-2.4-1.1-3.6c-0.1-0.4-0.2-0.8-0.2-1.2C70.8,261.3,70.8,261.1,71,260.9z"/>
		</g>
		<g>
			<path class="st16" d="M71.6,262.4c0.2,0,0.3,0.1,0.4,0.2c0.4,0.6,0.7,1.1,1.1,1.6c0.2,0.6,0.4,1.2,0.7,1.7
				c0.4-0.1,0.7-0.1,1.1-0.1c0.3,0.1,0.6,0.3,0.9,0.5c-0.1,0.1-0.2,0.2-0.3,0.2c-0.7,0.3-1.4,0.6-2.2,0.9c-0.5,0-0.9,0-1.4,0.1
				c-0.4,0.2-0.8,0.2-1.2,0c-0.1-0.4-0.1-0.8,0.1-1.1c0.4-0.1,0.8-0.1,1.2,0c-0.3-1-0.6-2.1-1-3.1c0-0.1,0-0.2,0-0.3
				C71.3,262.7,71.4,262.5,71.6,262.4z"/>
		</g>
		<g>
			<path class="st17" d="M71.6,262.4c-0.2,0.1-0.4,0.3-0.5,0.6c-0.1,0-0.1-0.1-0.1-0.2c-0.1-0.3-0.1-0.6-0.2-0.9
				c0-0.2,0-0.5,0.1-0.7c0.1-0.1,0.2,0,0.3,0.1c0.2,0.4,0.4,0.7,0.7,1.1C71.8,262.3,71.7,262.4,71.6,262.4z"/>
		</g>
		<g>
			<path class="st18" d="M74.8,266.2c0.1,0,0.1,0,0.1,0.1C74.8,266.3,74.8,266.3,74.8,266.2z"/>
		</g>
		<g>
			<path class="st19" d="M29.5,266.4"/>
		</g>
		<g>
			<path class="st20" d="M75.3,266.3c0.1,0,0.1,0.1,0.1,0.2C75.2,266.4,75.2,266.4,75.3,266.3z"/>
		</g>
		<g>
			<path class="st9" d="M101.6,266.3"/>
		</g>
		<g>
			<path class="st21" d="M92.9,266.8c0.1,0,0.2,0,0.2,0.1c-0.1,0.1-0.2,0.3-0.3,0.4c-0.4,0.5-0.9,0.9-1.3,1.4
				c-0.2,0.2-0.5,0.3-0.8,0.5c0,0.1,0,0.1,0,0.1c0.2,0,0.4,0.1,0.5,0.1c0.1,0.2,0.1,0.3-0.1,0.4c-0.3,0.1-0.6,0.1-0.9,0.1
				c-0.3,0-0.6,0-0.9,0c-0.5,0.4-1,0.5-1.6,0.3c-0.1-0.1-0.1-0.1,0-0.2c0.2-0.1,0.4-0.2,0.6-0.3c0.2-0.1,0.2-0.3,0.1-0.4
				c-0.2-0.1-0.4-0.3-0.7-0.4c0.3-0.2,0.6-0.3,0.9-0.3c0-0.1-0.1-0.2-0.2-0.3c-0.3-0.1-0.5-0.2-0.7-0.4c0,0,0-0.1,0-0.1
				c0.3-0.2,0.6-0.2,1-0.1c0.3,0.2,0.7,0.3,1,0.5c0.7-0.5,1.5-0.9,2.2-1.3C92.3,267,92.6,266.9,92.9,266.8z"/>
		</g>
		<g>
			<path class="st22" d="M91.8,267.4c0.1,0,0.3,0.1,0.5,0.1c0,0,0.1,0.1,0.1,0.1c-0.3,0.4-0.6,0.7-1,1.1c-0.3,0.2-0.7,0.4-1,0.7
				c0.2,0.1,0.4,0.2,0.6,0.2c0.2,0.1,0.2,0.2,0,0.3c-0.8,0.2-1.5,0-2.2-0.4c-0.2-0.2-0.4-0.4-0.7-0.6c0.1,0,0.2,0,0.3-0.1
				c0.2,0,0.4,0.1,0.6,0.1c0.3,0,0.3-0.1,0-0.2c-0.2-0.3-0.4-0.6-0.8-0.7c-0.1-0.1-0.1-0.1-0.1-0.2c0.6,0,1.1,0.2,1.5,0.6
				c-0.1,0.1-0.1,0.1,0,0.2c0.4-0.3,0.8-0.6,1.3-0.9C91.2,267.7,91.5,267.5,91.8,267.4z"/>
		</g>
		<g>
			<path class="st23" d="M92.4,267.7c0-0.1,0-0.1-0.1-0.1c-0.2,0-0.3-0.1-0.5-0.1c0.3-0.2,0.7-0.4,1.1-0.5
				C92.8,267.3,92.6,267.5,92.4,267.7z"/>
		</g>
		<g>
			<path class="st24" d="M88.8,269.7c0.2,0.1,0.3,0.1,0.5,0.2c-0.3,0.4-0.7,0.5-1.2,0.3c0,0,0-0.1,0-0.1
				C88.4,270,88.6,269.9,88.8,269.7z"/>
		</g>
		<g>
			<path class="st25" d="M77.3,271.3C77.3,271.2,77.3,271.2,77.3,271.3c0.1-0.1,0.2-0.2,0.4-0.2c-0.3-0.1-0.6-0.2-0.9-0.3
				c-0.1,0-0.3-0.1-0.4-0.1c0.2,0.4,0.4,0.6,0.7,0.8c0.6,0.3,1,0.7,1.2,1.3c0.1,0.1,0.1,0.3,0.1,0.5c-0.5,0-0.9-0.1-1.4-0.1
				c-0.1,0.1-0.1,0.2-0.1,0.3c0,0.2,0,0.4,0,0.6c0.5-0.1,1.1-0.1,1.6-0.1c0.3,0.1,0.5,0.2,0.7,0.3c0.5,0.1,0.9,0.1,1.4-0.1
				c0.1,0,0.3,0.1,0.4,0.1c0-0.2,0-0.3-0.1-0.5c0.1-0.1,0.1-0.1,0.1,0c0.3,0.5,0.1,0.7-0.4,0.6c-0.5,0.2-1,0.2-1.5,0.1
				c-0.3-0.2-0.7-0.3-1.1-0.3c-0.4,0.1-0.9,0.1-1.3,0.1c-0.1-0.2-0.1-0.5,0-0.7c0-0.4,0.2-0.6,0.6-0.6c0.3,0.1,0.6,0.1,0.9,0
				c-0.1-0.2-0.2-0.4-0.3-0.6c-0.4-0.4-0.9-0.8-1.4-1.2c-0.1-0.2-0.2-0.3-0.3-0.5c0-0.1,0.1-0.1,0.2-0.1c0.8,0.2,1.5,0.5,2.2,0.9
				c0.5,0.3,0.8,0.7,1.1,1.2c1-0.4,2-0.7,3.1-0.9c0.1,0,0.2,0,0.2,0c0,0,0,0.1,0.1,0.1c-0.1,0.2-0.3,0.4-0.5,0.5
				c-0.6,0.3-1.2,0.6-1.9,0.9c0,0-0.1,0-0.1,0c0.4-0.3,0.8-0.5,1.3-0.7c0.1-0.1,0.1-0.1,0.1-0.2c-0.3-0.1-0.6-0.2-0.9-0.1
				c-0.5,0.1-0.9,0.3-1.4,0.5c-0.2-0.4-0.5-0.8-0.9-1.1c-0.3-0.2-0.6-0.4-1-0.5C77.7,271.2,77.5,271.2,77.3,271.3z"/>
		</g>
		<g>
			<path class="st26" d="M82.5,271.9c0.2,0,0.4,0,0.6,0.1c-0.1,0.1-0.1,0.2-0.2,0.3c-0.2,0.1-0.4,0.2-0.6,0.4c0-0.1,0-0.1-0.1-0.2
				c-0.2-0.1-0.4-0.2-0.6-0.2C81.9,272.1,82.2,272,82.5,271.9z"/>
		</g>
		<g>
			<path class="st27" d="M77.3,271.3c-0.1,0-0.1,0.1-0.1,0.2c-0.3-0.2-0.6-0.5-0.7-0.8c0.1,0,0.3,0,0.4,0.1c0.3,0.1,0.6,0.2,0.9,0.3
				C77.5,271.1,77.4,271.2,77.3,271.3C77.3,271.2,77.3,271.2,77.3,271.3z"/>
		</g>
		<g>
			<path class="st28" d="M80.9,273.8c-0.2,0-0.4-0.1-0.6-0.1c0.1-0.1,0.2-0.2,0.3-0.3c0.1,0.1,0.1,0.1,0.1,0.2
				C80.8,273.6,80.9,273.6,80.9,273.8z"/>
		</g>
		<g>
			<path class="st29" d="M59.3,270.4c0.4,0.1,0.7,0.3,1,0.7c0.2,0.3,0.4,0.6,0.6,1c0.1-0.2,0.3-0.4,0.5-0.5c0.4-0.1,0.8-0.1,1.2-0.2
				c0.3,0,0.3,0.2,0.2,0.4c-0.1,0.1-0.2,0.2-0.3,0.3c-0.4,0.2-0.8,0.4-1,0.8c0,0.1,0,0.1,0,0.2c0.1,0,0.1,0,0.2,0
				c0,0.1,0.1,0.2,0.1,0.3c0.1,0.3,0,0.5-0.3,0.6c-0.9-0.1-1.7-0.3-2.6-0.6c0.2-0.4,0.5-0.6,1-0.6c0-0.6-0.1-1.2-0.5-1.6
				C59.3,270.9,59.2,270.7,59.3,270.4z"/>
		</g>
		<g>
			<path class="st22" d="M60.2,271.2c0.2,0.3,0.4,0.6,0.6,1c0,0.2,0,0.3-0.1,0.5c0.1,0.1,0.2,0.1,0.2-0.1c0.1-0.2,0.1-0.3,0.1-0.5
				c0.4-0.5,0.8-0.6,1.3-0.2c-0.2,0.2-0.5,0.3-0.7,0.5c-0.2,0.2-0.3,0.4-0.3,0.7c0.3,0.1,0.5,0.3,0.4,0.7c-0.8,0-1.6-0.2-2.4-0.5
				c0-0.1,0.1-0.2,0.1-0.2c0.2-0.1,0.4-0.2,0.6-0.2c0.1-0.3,0.1-0.6,0-0.9c-0.1-0.2-0.2-0.5-0.3-0.7C59.8,271.1,60,271.1,60.2,271.2
				z"/>
		</g>
		<g>
			<path class="st30" d="M59.5,273.2c0.1,0,0.1,0,0.1,0.1C59.5,273.2,59.5,273.2,59.5,273.2z"/>
		</g>
		<g>
			<path class="st31" d="M60.7,272.1c0.1,0,0.2,0,0.3,0c0,0.2-0.1,0.3-0.1,0.5c0,0.1-0.1,0.1-0.2,0.1
				C60.7,272.5,60.7,272.3,60.7,272.1z"/>
		</g>
		<g>
			<path class="st32" d="M60.2,271.2c-0.2-0.1-0.4-0.1-0.5,0.1c0,0-0.1,0-0.1,0.1c-0.1-0.2-0.2-0.5-0.2-0.7
				C59.7,270.6,60,270.9,60.2,271.2z"/>
		</g>
		<g>
			<path class="st33" d="M68.9,271.3c0.6-0.1,1,0.1,1.4,0.6c0.2,0,0.5,0,0.7,0.1c0.2,0.3,0.1,0.7-0.1,0.9c-0.6-0.2-1.1-0.1-1.5,0.3
				c-0.2,0.6-0.4,1.2-0.6,1.8c-0.2,0.3-0.4,0.6-0.7,0.9c-0.1-0.2-0.2-0.4-0.2-0.6c0.1-0.8,0.2-1.5,0.3-2.3c0.1-0.3,0.2-0.5,0.4-0.7
				c-0.1-0.1-0.2-0.2-0.3-0.2c-0.3,0-0.6-0.1-0.9-0.2C67.7,271.6,68.2,271.4,68.9,271.3z"/>
		</g>
		<g>
			<path class="st16" d="M68.1,274.9c0-0.1-0.1-0.1-0.2-0.1c0-0.6,0.1-1.2,0.3-1.8c0.1-0.3,0.3-0.5,0.5-0.7
				c-0.3-0.1-0.6-0.2-0.9-0.3c-0.1-0.2,0-0.3,0.2-0.4c0,0.1,0.1,0.1,0.1,0.2c0-0.1,0-0.2,0.1-0.2c0.5-0.2,1.1-0.2,1.6,0
				c0.2,0.1,0.3,0.3,0.4,0.5c0.2,0,0.5,0.1,0.7,0.1c0,0.2,0,0.4,0,0.6c-0.2,0-0.4-0.1-0.7-0.1c-0.3,0.1-0.6,0.2-0.9,0.4
				c-0.1,0.1-0.2,0.3-0.3,0.5c-0.1,0.4-0.3,0.9-0.5,1.3C68.4,274.9,68.3,274.9,68.1,274.9z"/>
		</g>
		<g>
			<path class="st34" d="M68,274.7c0.1,0,0.1,0.1,0.2,0.1c0.1,0.1,0.3,0.1,0.4,0.1c-0.1,0.4-0.3,0.7-0.6,0.9
				C67.8,275.5,67.8,275.1,68,274.7z"/>
		</g>
		<g>
			<path class="st35" d="M33.1,280.8c3.6,0,7.1,0,10.7,0c-3.6,0-7.2,0-10.7-0.1C33.1,280.7,33.1,280.8,33.1,280.8
				c-0.1-0.1-0.1-0.2-0.1-0.3c21.7,0,43.3,0,65,0c0.1,0.9,0.1,1.7,0,2.6c-2.7-0.3-5.4-0.2-8,0.1c-0.4,0.1-0.8,0.1-1.1,0.2
				c-0.2,0.2-0.1,0.3,0.2,0.3c2.4-0.4,4.7-0.6,7.1-0.4c0.6,0,1.3,0.1,1.9,0.1c0,3,0,5.9,0,8.9c-1.2-0.3-2.5-0.5-3.8-0.7
				c-1.1-0.1-2.2,0-3.4,0.1c-0.2,0.1-0.2,0.2-0.1,0.3c1.1-0.1,2.2-0.1,3.4,0c1.3,0.2,2.6,0.4,3.9,0.7c0,3.3,0,6.6,0,10
				c-2-0.3-3.9-0.4-5.9-0.3c-2.8-0.1-5.6-0.4-8.4-0.8c-1,0-1.9,0-2.9,0c-0.2,0-0.3,0.1-0.1,0.3c1,0,2,0,3,0.1
				c4,0.6,7.9,0.8,11.9,0.8c0.8,0.1,1.6,0.1,2.4,0.3c0,1.9,0,3.8,0,5.7c-0.5,5.8-3.2,10.2-8,13.2c-2.7,1.6-5.6,2.4-8.7,2.6
				c-10.6,0-21.3,0-31.9,0c-4.1-0.2-7.7-1.7-10.9-4.3c-0.1-0.1-0.1-0.2-0.1-0.3c2.7-0.8,5.4-1,8.2-0.7c4.6,0,9.1-0.4,13.6-1.1
				c0.3,0,0.3-0.1,0.2-0.3c-3.7,0.5-7.4,0.9-11.1,1.1c-0.9,0-1.8,0-2.7,0c-2.9-0.3-5.7-0.1-8.5,0.8c-0.1,0-0.1,0-0.2,0
				c-1-1-1.9-2.1-2.6-3.3c0-0.1,0.1-0.1,0.1-0.2c5.3-3.2,10.6-6.6,15.7-10.1c0.2-0.2,0.4-0.4,0.6-0.5c2.1-1.4,4.1-3.1,5.9-5
				c0.4-0.5,0.8-1,1.2-1.5c1.9-0.4,3.8-0.5,5.7-0.3c1.3,0.2,2.7,0.3,4,0.4c0.7,0,1.5-0.1,2.2-0.3c0,0,0-0.1,0.1-0.1
				c-0.1-0.1-0.1-0.1-0.3-0.2c-0.9,0.2-1.8,0.3-2.7,0.2c-2.3-0.4-4.6-0.6-6.9-0.4c-0.5,0.1-1.1,0.1-1.6,0.3c0,0-0.1-0.1-0.1-0.1
				c0.5-0.8,0.9-1.6,1.1-2.6c0.1-1.3-0.3-2.4-1.3-3.3c-0.9-0.6-1.8-1.1-2.8-1.5c-1.4-0.5-2.8-1-4.3-1.5c-0.7-0.2-1.2-0.6-1.7-1.1
				c-0.4-0.6-0.4-1.2-0.1-1.8c0.6-0.7,1.3-1.3,2.1-1.7c1.4-0.7,2.8-1.3,4.3-1.8c2.5-0.9,4.9-1.6,7.5-2.4c-1.2,0-2.4,0-3.6,0
				c-3.4,0.9-6.7,2.1-9.9,3.6c-0.9,0.5-1.6,1-2.3,1.7c-0.4,0.4-0.6,0.9-0.7,1.4c0,0.3,0,0.6,0.1,0.9c0.2,0.3,0.4,0.6,0.6,0.9
				c0.6,0.4,1.2,0.8,1.9,1.1c1.7,0.6,3.3,1.2,4.9,2c2.3,1.5,2.6,3.3,0.8,5.4c-1.2,1.2-2.6,2.3-4.1,3.2c-3.4,1.9-6.9,3.7-10.5,5.3
				c-2.7,1.2-5.3,2.3-8,3.4c-0.1-0.1-0.2-0.2-0.1-0.3c3.4-1.5,6.9-3,10.3-4.5c2.8-1.3,5.5-2.7,8.2-4.2c1.4-0.8,2.6-1.7,3.8-2.8
				c0.3-0.3,0.6-0.6,0.8-1c0.8-1.3,0.7-2.5-0.4-3.6c-0.8-0.5-1.7-1-2.6-1.3c-1.2-0.4-2.3-0.8-3.4-1.3c-0.7-0.3-1.3-0.7-1.9-1.3
				c-0.7-0.8-0.8-1.7-0.3-2.7c0.3-0.6,0.7-1,1.2-1.5c1-0.8,2.1-1.4,3.3-1.9c2.3-1,4.7-1.9,7.2-2.6c0-0.1-0.1-0.1-0.2-0.1
				c-4.8,0-9.6,0.1-14.4,0.1c0.4,0.5,0.4,1-0.1,1.4c-1.2,0.7-2.5,1.3-3.8,1.9c-0.8,0.4-1.6,0.9-2.2,1.6c-0.1,0.2-0.3,0.4-0.3,0.7
				c0,0.3,0.1,0.6,0.3,0.8c0.9,0.5,1.7,1,2.5,1.5c1.6,1.2,1.7,2.5,0.1,3.8c-1.6,1.1-3.4,2-5.4,2.6c-0.8,0.2-1.6,0.5-2.4,0.7
				c-0.2,0-0.3-0.1-0.1-0.3c2.2-0.5,4.4-1.3,6.4-2.3c0.7-0.4,1.4-0.9,2-1.5c0.6-1,0.5-1.8-0.4-2.4c-0.4-0.3-0.7-0.5-1.1-0.8
				c-0.6-0.3-1.2-0.6-1.7-1c-0.4-0.3-0.5-0.7-0.4-1.2c0.2-0.7,0.7-1.2,1.3-1.5c0.1-0.2,0.3-0.3,0.5-0.4c1.4-0.8,2.9-1.5,4.4-2.2
				c0.2-0.2,0.4-0.4,0.4-0.6c0-0.3-0.2-0.6-0.5-0.7C40.4,280.9,36.8,280.9,33.1,280.8z"/>
		</g>
		<g>
			<path class="st36" d="M33.1,280.8C33.1,280.8,33.1,280.8,33.1,280.8c-0.1-0.1-0.1-0.1,0-0.1c3.6,0,7.1,0.1,10.7,0.1
				C40.3,280.8,36.7,280.8,33.1,280.8z"/>
		</g>
		<g>
			<path class="st37" d="M69.8,282.3c0.1,0,0.1,0.1,0.2,0.1c0.7,1.2,1.3,2.4,1.9,3.6c-0.1,0.2-0.2,0.4-0.3,0.6c-0.6,0-1.2,0-1.8,0
				C69.8,285.2,69.8,283.7,69.8,282.3z"/>
		</g>
		<g>
			<path class="st37" d="M69.4,282.9c0.1,1.2,0.2,2.4,0.1,3.6c-0.7,0-1.4,0-2.2,0c0-0.1,0-0.1,0-0.2C68,285.2,68.7,284.1,69.4,282.9
				z"/>
		</g>
		<g>
			<path class="st38" d="M79.6,284.2c1.1,0,2.2,0,3.2,0.1c0,0.1,0,0.1,0,0.2c-1.2,0-2.3,0-3.5,0c0-0.1,0-0.1,0-0.2
				C79.4,284.3,79.5,284.2,79.6,284.2z"/>
		</g>
		<g>
			<path class="st39" d="M61,284.9c1.3-0.1,2.6,0.1,3.9,0.4c0.1,0.1,0.1,0.1,0,0.1c-0.9-0.2-1.9-0.3-2.8-0.3c-1,0-2.1,0.1-3.1,0.3
				c-0.7,0-1.4,0-2.2,0c0-0.1,0-0.1,0-0.2c0.6,0.1,1.3,0.1,1.9,0C59.5,285.1,60.2,285,61,284.9z"/>
		</g>
		<g>
			<path class="st37" d="M72.7,285.8c1,0,1.9,0,2.9,0c0,0.1,0,0.2,0,0.3c-0.4,0.7-0.7,1.5-1.1,2.2c0.6,0,1.2,0,1.8-0.2
				c0,0.1,0,0.1,0,0.2c-0.4,0.1-0.9,0.2-1.3,0.2c-0.8-0.1-1.6-0.2-2.4-0.4c-0.7,0.1-1.4,0.2-2.1,0.3c-0.7-0.2-1.5-0.3-2.2-0.3
				c-0.6,0-1.2,0.1-1.8,0.2c-0.1,0-0.1,0-0.2-0.1c-0.3-0.5-0.5-0.9-0.6-1.4c2,0,4.1,0,6.1,0c0.1,0,0.1,0,0.2-0.1
				C72.1,286.5,72.4,286.2,72.7,285.8z"/>
		</g>
		<g>
			<path class="st40" d="M65.2,288.2c0.1,0,0.2,0,0.2,0c0,0.1,0,0.1,0,0.2c-0.5,0.1-1,0.2-1.5,0.2c-0.2,0-0.3,0-0.4-0.1
				C64.1,288.4,64.7,288.3,65.2,288.2z"/>
		</g>
		<g>
			<path class="st41" d="M76.6,288.3c0.1,0,0.1,0.1,0.1,0.2C76.6,288.5,76.6,288.4,76.6,288.3z"/>
		</g>
		<g>
			<path class="st42" d="M79.8,288.4c0.2,0,0.3,0,0.5,0.1c0,0,0,0.1-0.1,0.1c-1,0.2-1.9,0.2-2.9,0.1c0-0.1,0-0.1,0-0.2
				C78.2,288.5,79,288.5,79.8,288.4z"/>
		</g>
		<g>
			<path class="st43" d="M66.8,288.8c0.3,0,0.7,0,1,0.1c-0.1,0.1-0.3,0.1-0.4,0c-0.4,0.1-0.8,0.1-1.3,0.1c0,0,0,0-0.1-0.1
				C66.3,288.9,66.6,288.9,66.8,288.8z"/>
		</g>
		<g>
			<path class="st42" d="M72.2,288.9c0.2,0,0.2,0.1,0.1,0.2c-0.7,0.2-1.4,0.2-2.2,0.1c-0.1,0-0.1-0.1-0.2-0.1c0.3,0,0.7,0,1,0.1
				C71.4,289.1,71.8,289,72.2,288.9z"/>
		</g>
		<g>
			<path class="st39" d="M63.3,289.5c0.6,0,1.3,0,1.9,0c0.9,0.1,1.9,0.3,2.8,0.4c0.5,0,0.9,0,1.4,0c0,0.1,0,0.1,0,0.2
				c-0.6,0-1.1,0-1.6,0c-1.1-0.2-2.3-0.4-3.5-0.4c-0.7,0-1.4,0.1-2.2,0.2c-0.1,0-0.1,0-0.2-0.1c0,0,0-0.1,0.1-0.1
				C62.5,289.6,62.9,289.5,63.3,289.5z"/>
		</g>
		<g>
			<path class="st44" d="M75.5,289.7c0.6,0,1.1,0,1.6,0.1c0.7,0.1,1.4,0.2,2.1,0.3c0.4,0,0.7-0.1,1.1-0.2c0.2,0.1,0.2,0.1,0,0.2
				c-0.3,0.1-0.7,0.2-1.1,0.1c-0.8-0.1-1.6-0.2-2.4-0.3c-1.4-0.1-2.8,0-4.2,0.4c0-0.2,0.1-0.2,0.3-0.3
				C73.9,289.9,74.7,289.7,75.5,289.7z"/>
		</g>
		<g>
			<path class="st37" d="M75.1,299.2c0.1,0,0.1,0.1,0.2,0.2c1.2,2.1,2.4,4.3,3.6,6.4c0,0.1,0,0.3-0.1,0.4c-0.2,0.2-0.3,0.4-0.5,0.7
				c-1.1,0-2.2,0-3.3,0c0,0,0-0.1-0.1-0.1c0.1-2.4,0.1-4.8,0-7.2C75,299.3,75,299.2,75.1,299.2z"/>
		</g>
		<g>
			<path class="st37" d="M74.4,300.1C74.5,300.1,74.5,300.1,74.4,300.1c0.1,2.3,0.1,4.5,0.1,6.8c-1.3,0-2.7,0-4,0
				c0-0.2,0-0.3,0.1-0.5C71.9,304.3,73.2,302.2,74.4,300.1z"/>
		</g>
		<g>
			<path class="st37" d="M80.2,305.6c1.8,0,3.5,0,5.3,0.1c0,0.1,0,0.2,0,0.2c-0.7,1.3-1.3,2.7-2,4c0.3,0.1,0.6,0.1,1,0
				c0.6-0.1,1.1-0.2,1.7-0.3c0,0.1,0,0.1-0.1,0.2c-0.6,0.3-1.3,0.4-2,0.4c-0.5,0-1-0.1-1.5-0.1c-0.6-0.2-1.2-0.3-1.8-0.5
				c-0.7,0-1.4,0-2.1,0c-0.7,0.1-1.4,0.2-2,0.4c-0.5,0-0.9,0-1.4,0c-0.7-0.1-1.4-0.3-2.1-0.4c-0.7-0.1-1.5-0.1-2.2,0
				c-0.8,0.1-1.6,0.2-2.4,0.3c-0.4-0.8-0.8-1.6-1.2-2.4c0-0.1,0.1-0.1,0.1-0.1c3.8,0,7.5,0,11.3-0.1
				C79.2,306.8,79.7,306.2,80.2,305.6z"/>
		</g>
		<g>
			<path class="st39" d="M67.3,309.7c0.1,0,0.2,0,0.2,0.1c-0.1,0.1-0.3,0.2-0.5,0.2c-2.1,0.2-4.1,0.2-6.2,0c0-0.1,0-0.2,0-0.2
				c2,0.2,4,0.2,6,0C67,309.8,67.1,309.8,67.3,309.7z"/>
		</g>
		<g>
			<path class="st39" d="M70.2,310.4c0.4,0,0.8,0,1.3,0c0.1,0.1,0.1,0.1,0.1,0.2c-1,0-2,0.1-3,0.3c-0.2,0-0.4,0-0.6,0
				c-0.1-0.1-0.1-0.1-0.1-0.3C68.7,310.7,69.4,310.6,70.2,310.4z"/>
		</g>
		<g>
			<path class="st45" d="M78.6,310.7c0.1,0,0.2,0,0.3,0.1c-0.1,0.1-0.2,0.2-0.3,0.2c-1.2,0.4-2.5,0.4-3.7,0.1
				c-0.2,0-0.3-0.1-0.4-0.3c0.7,0.1,1.3,0.2,2,0.3C77.2,311,77.9,310.9,78.6,310.7z"/>
		</g>
		<g>
			<path class="st46" d="M65.7,311.6c0.9,0,1.8,0.1,2.7,0.1c1.3,0.2,2.7,0.4,4,0.6c0.6,0,1.3,0,1.9,0.1c0.1,0.1,0.1,0.2,0,0.2
				c-0.7,0.1-1.4,0.1-2.1,0c-1.3-0.2-2.6-0.4-3.9-0.6c-1.3-0.1-2.6-0.1-3.9,0c-0.7,0.1-1.4,0.2-2.2,0.4c0-0.1,0-0.2,0.2-0.3
				C63.5,311.8,64.6,311.7,65.7,311.6z"/>
		</g>
		<g>
			<path class="st46" d="M84.3,311.8c1.2,0,2.4,0,3.5,0.1c1.1,0.2,2.2,0.4,3.3,0.6c0.1,0.1,0.1,0.2,0,0.2c-0.2,0-0.5,0-0.7,0
				c-1-0.2-1.9-0.4-2.9-0.5c-2.6-0.3-5.2,0-7.7,0.8c-0.1-0.1-0.2-0.2-0.1-0.3C81.2,312.3,82.7,312,84.3,311.8z"/>
		</g>
		<g>
			<path class="st9" d="M29.5,317.8"/>
		</g>
		<g>
			<path class="st9" d="M101.6,317.8"/>
		</g>
		<g>
			<path class="st9" d="M29.7,318.3"/>
		</g>
		<g>
			<path class="st9" d="M101.4,318.3"/>
		</g>
		<g>
			<path class="st9" d="M29.8,318.5"/>
		</g>
		<g>
			<path class="st9" d="M30,318.7"/>
		</g>
		<g>
			<path class="st4" d="M101.1,318.9"/>
		</g>
		<g>
			<path class="st8" d="M30.2,319.2"/>
		</g>
		<g>
			<path class="st9" d="M100.7,319.5"/>
		</g>
		<g>
			<path class="st9" d="M30.5,319.7"/>
		</g>
		<g>
			<path class="st4" d="M100.6,319.7"/>
		</g>
		<g>
			<path class="st3" d="M30.6,319.9c0,0,0,0.1,0,0.1C30.6,320,30.6,319.9,30.6,319.9z"/>
		</g>
		<g>
			<path class="st9" d="M30.8,320.1"/>
		</g>
		<g>
			<path class="st19" d="M100.4,320.1"/>
		</g>
		<g>
			<path class="st5" d="M30.9,320.3"/>
		</g>
		<g>
			<path class="st5" d="M100.3,320.3"/>
		</g>
		<g>
			<path class="st5" d="M100,320.7"/>
		</g>
		<g>
			<path class="st5" d="M31.3,321"/>
		</g>
		<g>
			<path class="st5" d="M99.8,321"/>
		</g>
		<g>
			<path class="st9" d="M99.7,321.1"/>
		</g>
		<g>
			<path class="st3" d="M31.5,321.3c0,0,0,0.1,0,0.1C31.5,321.3,31.5,321.3,31.5,321.3z"/>
		</g>
		<g>
			<path class="st3" d="M99.6,321.3c0.1,0,0.1,0.1,0,0.1C99.6,321.4,99.6,321.3,99.6,321.3z"/>
		</g>
		<g>
			<path class="st5" d="M31.7,321.4"/>
		</g>
		<g>
			<path class="st5" d="M99.5,321.4"/>
		</g>
		<g>
			<path class="st5" d="M31.9,321.8"/>
		</g>
		<g>
			<path class="st5" d="M32,321.9"/>
		</g>
		<g>
			<path class="st5" d="M99.1,321.9"/>
		</g>
		<g>
			<path class="st9" d="M99,322"/>
		</g>
		<g>
			<path class="st3" d="M32.3,322.3c0,0,0,0.1,0,0.1C32.3,322.4,32.3,322.3,32.3,322.3z"/>
		</g>
		<g>
			<path class="st5" d="M32.5,322.5"/>
		</g>
		<g>
			<path class="st5" d="M98.7,322.5"/>
		</g>
		<g>
			<path class="st5" d="M32.6,322.6"/>
		</g>
		<g>
			<path class="st5" d="M98.6,322.6"/>
		</g>
		<g>
			<path class="st9" d="M32.7,322.7"/>
		</g>
		<g>
			<path class="st47" d="M33.2,323.3C33.2,323.3,33.2,323.3,33.2,323.3c0.1,0,0.1,0,0.1,0.1C33.2,323.5,33.2,323.4,33.2,323.3z"/>
		</g>
		<g>
			<path class="st7" d="M97.9,323.3C97.9,323.3,97.9,323.3,97.9,323.3C97.9,323.5,97.9,323.5,97.9,323.3z"/>
		</g>
		<g>
			<path class="st5" d="M33.4,323.5"/>
		</g>
		<g>
			<path class="st5" d="M97.8,323.5"/>
		</g>
		<g>
			<path class="st5" d="M33.5,323.6"/>
		</g>
		<g>
			<path class="st5" d="M97.6,323.6"/>
		</g>
		<g>
			<path class="st5" d="M33.6,323.7"/>
		</g>
		<g>
			<path class="st5" d="M97.5,323.7"/>
		</g>
		<g>
			<path class="st5" d="M33.7,323.8"/>
		</g>
		<g>
			<path class="st5" d="M97.4,323.8"/>
		</g>
		<g>
			<path class="st5" d="M33.8,324"/>
		</g>
		<g>
			<path class="st5" d="M97.3,324"/>
		</g>
		<g>
			<path class="st5" d="M33.9,324.1"/>
		</g>
		<g>
			<path class="st5" d="M97.2,324.1"/>
		</g>
		<g>
			<path class="st48" d="M34.1,324.2"/>
		</g>
		<g>
			<path class="st5" d="M97.1,324.2"/>
		</g>
		<g>
			<path class="st49" d="M97,324.2c0.1,0.1,0.1,0.1-0.1,0.1C96.9,324.3,96.9,324.3,97,324.2C96.9,324.3,97,324.3,97,324.2z"/>
		</g>
		<g>
			<path class="st5" d="M34.2,324.3"/>
		</g>
		<g>
			<path class="st50" d="M96.8,324.3C96.9,324.3,96.9,324.3,96.8,324.3c0.1,0.1,0,0.1-0.1,0.1C96.8,324.4,96.8,324.4,96.8,324.3
				C96.8,324.4,96.8,324.4,96.8,324.3z"/>
		</g>
		<g>
			<path class="st4" d="M34.8,324.9"/>
		</g>
		<g>
			<path class="st4" d="M96.3,324.9"/>
		</g>
		<g>
			<path class="st5" d="M35,325"/>
		</g>
		<g>
			<path class="st48" d="M96.2,325"/>
		</g>
		<g>
			<path class="st5" d="M35.1,325.1"/>
		</g>
		<g>
			<path class="st5" d="M96.1,325.1"/>
		</g>
		<g>
			<path class="st2" d="M35.2,325.1C35.2,325.1,35.2,325.2,35.2,325.1c0.1,0.1,0,0.1,0,0.1C35.1,325.2,35.1,325.2,35.2,325.1z"/>
		</g>
		<g>
			<path class="st3" d="M95.9,325.2c0,0,0.1,0,0.1,0C95.9,325.3,95.9,325.3,95.9,325.2z"/>
		</g>
		<g>
			<path class="st4" d="M35.5,325.4"/>
		</g>
		<g>
			<path class="st5" d="M35.6,325.5"/>
		</g>
		<g>
			<path class="st5" d="M95.5,325.5"/>
		</g>
		<g>
			<path class="st51" d="M95.4,325.6C95.4,325.6,95.4,325.6,95.4,325.6C95.4,325.7,95.3,325.7,95.4,325.6
				C95.4,325.7,95.4,325.6,95.4,325.6z"/>
		</g>
		<g>
			<path class="st8" d="M36.1,325.9"/>
		</g>
		<g>
			<path class="st8" d="M95,325.9"/>
		</g>
		<g>
			<path class="st3" d="M94.9,326c0,0,0.1,0,0.1,0C94.9,326.1,94.9,326.1,94.9,326z"/>
		</g>
		<g>
			<path class="st1" d="M36.4,326.1"/>
		</g>
		<g>
			<path class="st3" d="M36.6,326.2c0,0.1-0.1,0.1-0.1,0C36.5,326.2,36.6,326.2,36.6,326.2z"/>
		</g>
		<g>
			<path class="st5" d="M94.6,326.2"/>
		</g>
		<g>
			<path class="st48" d="M36.9,326.5"/>
		</g>
		<g>
			<path class="st8" d="M94.2,326.5"/>
		</g>
		<g>
			<path class="st48" d="M37.2,326.7"/>
		</g>
		<g>
			<path class="st8" d="M93.9,326.7"/>
		</g>
		<g>
			<path class="st1" d="M37.5,326.8"/>
		</g>
		<g>
			<path class="st3" d="M37.6,326.9c0,0.1-0.1,0.1-0.1,0C37.6,326.9,37.6,326.9,37.6,326.9z"/>
		</g>
		<g>
			<path class="st48" d="M93.5,326.9"/>
		</g>
		<g>
			<path class="st1" d="M93.3,327"/>
		</g>
		<g>
			<path class="st1" d="M38,327.1"/>
		</g>
		<g>
			<path class="st8" d="M38.4,327.4"/>
		</g>
		<g>
			<path class="st4" d="M92.8,327.4"/>
		</g>
		<g>
			<path class="st1" d="M38.8,327.6"/>
		</g>
		<g>
			<path class="st1" d="M92.3,327.6"/>
		</g>
		<g>
			<path class="st1" d="M39.1,327.7"/>
		</g>
	</g>
	<g>
		<path class="st52" d="M128.8,332.6h-15.6v-75.6h14.4l25,38.9h0.6l24.9-38.9h14.5v75.6H177v-46.4h-0.5l-17.7,27.3H147l-17.6-27
			h-0.6V332.6z"/>
		<path class="st53" d="M211.6,332.1c-2.7-1.3-4.9-3.2-6.5-5.7c-1.6-2.5-2.5-5.4-2.5-8.8c0-4,1-7.6,3.1-10.7
			c2.1-3.1,5.1-5.6,9.1-7.3c4-1.7,8.6-2.6,14-2.6h7.4v-1.5c0-2.5-0.9-4.5-2.7-6c-1.8-1.5-4.2-2.3-7.2-2.3c-4.4,0-7.9,2-10.5,5.9
			l-10.7-7.4c5.3-7.8,12.9-11.7,22.7-11.7c4.7,0,8.9,0.9,12.5,2.7c3.6,1.8,6.5,4.3,8.5,7.6c2,3.3,3,7.1,3,11.4v36.8h-15.6v-6.7h-0.6
			c-1.2,2.6-3.2,4.6-5.8,6c-2.6,1.4-5.6,2.1-9.1,2.1C217.4,334,214.3,333.4,211.6,332.1z M233.1,319c2-1.5,3.1-3.5,3.1-6v-3.4h-4.1
			c-9,0-13.5,2.3-13.5,6.9c0,1.5,0.6,2.7,1.8,3.5c1.2,0.8,2.9,1.2,5.2,1.2C228.5,321.2,231.1,320.5,233.1,319z"/>
		<path class="st54" d="M262.7,332.6v-57.2h15.7v10.4h0.5c4-7.8,11-11.8,21-11.8h0.7v15.2h-0.9c-7.4,0-12.8,1.2-16.2,3.7
			c-3.4,2.5-5.1,6.2-5.1,11.2v28.3H262.7z"/>
		<path class="st55" d="M323.5,266.1c-1.7,1.7-3.9,2.5-6.8,2.5c-2.8,0-5-0.8-6.7-2.5c-1.6-1.7-2.5-3.9-2.5-6.7c0-2.8,0.8-5,2.5-6.8
			c1.6-1.7,3.9-2.6,6.7-2.6c2.9,0,5.1,0.9,6.8,2.6c1.7,1.7,2.5,4,2.5,6.8C326,262.2,325.2,264.4,323.5,266.1z M324.6,275.4v57.2H309
			v-57.2H324.6z"/>
		<path class="st56" d="M372.4,290h-14.9v22.3c0,2.1,0.6,3.8,1.8,4.9c1.2,1.2,2.9,1.7,5.1,1.7c2.2,0,4.4-0.3,6.8-1v14.6
			c-3.3,1-6.8,1.5-10.4,1.5c-6.1,0-10.7-1.7-14-5.1c-3.3-3.4-4.9-8.2-4.9-14.5V290H333v-14.6h8.8v-16.2h15.7v16.2h14.9V290z"/>
		<path class="st57" d="M395.7,266.1c-1.7,1.7-3.9,2.5-6.8,2.5c-2.8,0-5-0.8-6.7-2.5c-1.6-1.7-2.5-3.9-2.5-6.7c0-2.8,0.8-5,2.5-6.8
			c1.6-1.7,3.9-2.6,6.7-2.6c2.9,0,5.1,0.9,6.8,2.6c1.7,1.7,2.5,4,2.5,6.8C398.2,262.2,397.3,264.4,395.7,266.1z M396.7,275.4v57.2
			h-15.6v-57.2H396.7z"/>
		<path class="st53" d="M409.2,332.6v-57.2h15.7v7.3h0.5c1.6-2.7,3.8-4.8,6.4-6.3c2.7-1.5,5.7-2.3,9-2.3c3.3,0,6.1,0.8,8.5,2.3
			c2.4,1.5,4.2,3.8,5.3,6.7h0.6c4.1-6,9.9-9,17.5-9c5.4,0,9.6,1.8,12.7,5.5c3.1,3.7,4.6,8.8,4.6,15.5v37.6h-15.6v-34.1
			c0-3.2-0.7-5.7-2-7.4c-1.3-1.7-3.2-2.6-5.7-2.6c-2.9,0-5.2,1-6.9,2.9c-1.7,1.9-2.5,4.7-2.5,8.1v33.1h-15.6v-34.1
			c0-3.1-0.7-5.6-2-7.4c-1.4-1.8-3.2-2.7-5.6-2.7c-2.9,0-5.2,1-6.9,2.9c-1.6,1.9-2.5,4.7-2.5,8.1v33.1H409.2z"/>
		<path class="st54" d="M550.4,309.3h-35.5c1.1,7.5,5.1,11.3,12,11.3c4.7,0,8.3-2.5,10.8-7.6l11.8,8c-1.8,3.8-4.7,6.9-8.5,9.3
			c-3.9,2.5-8.6,3.7-14.3,3.7c-5.6,0-10.5-1.2-14.7-3.6c-4.2-2.4-7.5-5.9-9.8-10.3c-2.3-4.5-3.5-9.7-3.5-15.6
			c0-6.1,1.1-11.5,3.4-16.1c2.3-4.6,5.4-8.1,9.6-10.6c4.1-2.5,8.9-3.7,14.3-3.7c5.1,0,9.6,1.1,13.5,3.2c3.9,2.1,6.9,5.1,9.1,9
			s3.2,8.4,3.2,13.6C551.7,302.9,551.3,306.1,550.4,309.3z M535.7,297.2c0-3.2-0.9-5.7-2.6-7.6c-1.7-1.8-4.1-2.8-7.3-2.8
			c-5.6,0-9.1,3.4-10.5,10.3H535.7z"/>
		<path class="st55" d="M585.4,332.6h-16.1V272h-21.5v-15h59v15h-21.5V332.6z"/>
		<path class="st56" d="M608.9,332.6v-57.2h15.7v10.4h0.5c4-7.8,11-11.8,21-11.8h0.7v15.2h-0.9c-7.4,0-12.8,1.2-16.2,3.7
			c-3.4,2.5-5.1,6.2-5.1,11.2v28.3H608.9z"/>
		<path class="st57" d="M657.9,332.1c-2.7-1.3-4.9-3.2-6.5-5.7c-1.6-2.5-2.5-5.4-2.5-8.8c0-4,1-7.6,3.1-10.7
			c2.1-3.1,5.1-5.6,9.1-7.3c4-1.7,8.6-2.6,14-2.6h7.4v-1.5c0-2.5-0.9-4.5-2.7-6c-1.8-1.5-4.2-2.3-7.2-2.3c-4.4,0-7.9,2-10.5,5.9
			l-10.7-7.4c5.3-7.8,12.9-11.7,22.7-11.7c4.7,0,8.9,0.9,12.5,2.7c3.6,1.8,6.5,4.3,8.5,7.6c2,3.3,3,7.1,3,11.4v36.8h-15.6v-6.7h-0.6
			c-1.2,2.6-3.2,4.6-5.8,6c-2.6,1.4-5.6,2.1-9.1,2.1C663.7,334,660.6,333.4,657.9,332.1z M679.4,319c2-1.5,3.1-3.5,3.1-6v-3.4h-4.1
			c-9,0-13.5,2.3-13.5,6.9c0,1.5,0.6,2.7,1.8,3.5c1.2,0.8,2.9,1.2,5.2,1.2C674.8,321.2,677.3,320.5,679.4,319z"/>
		<path class="st53" d="M719.8,330.3c-4.2-2.5-7.5-5.9-9.8-10.4c-2.3-4.5-3.4-9.8-3.4-15.9c0-6.1,1.1-11.4,3.4-15.9
			c2.3-4.5,5.5-8,9.8-10.4c4.2-2.4,9.2-3.6,14.8-3.6c5,0,9.6,1.2,13.7,3.7c4.1,2.5,7.1,5.9,9.1,10.1l-12.4,8.4
			c-2.7-5-6.3-7.6-10.8-7.6c-3.6,0-6.4,1.4-8.5,4.1c-2,2.8-3.1,6.5-3.1,11.2c0,4.7,1,8.4,3.1,11.2c2,2.7,4.9,4.1,8.5,4.1
			c4.6,0,8.2-2.5,10.8-7.6l12.4,8.4c-2,4.2-5,7.6-9.1,10.1c-4.1,2.5-8.6,3.8-13.7,3.8C729,334,724,332.8,719.8,330.3z"/>
		<path class="st52" d="M821.1,332.6h-19.5L788,308.8l-6.3,6.7v17.1H766v-75.6h15.7v40.2l19.3-21.8h18.5l-20.3,21.5L821.1,332.6z"/>
	</g>
</g>
</svg>
