<?xml version="1.0" encoding="utf-8"?>
<svg xmlns="http://www.w3.org/2000/svg" height="512pt" version="1.1" viewBox="0 0 512 512" width="512pt">
<path d="M 0.00 0.00 L 512.00 0.00 L 512.00 512.00 L 0.00 512.00 L 0.00 0.00 Z" fill="transparent" opacity="1.00" stroke="transparent" stroke-width="0.25"/>
<path d="M 250.50 116.36 C 255.81 115.20 261.72 114.42 266.82 116.81 C 263.84 119.22 259.30 117.98 256.18 120.41 L 256.51 119.77 C 257.87 118.99 259.26 118.28 260.64 117.54 C 257.50 115.85 253.91 116.30 250.50 116.36 Z" fill="#3b4b5a" opacity="1.00" stroke="#3b4b5a" stroke-width="0.25"/>
<path d="M 250.03 116.37 L 250.50 116.36 C 253.91 116.30 257.50 115.85 260.64 117.54 C 259.26 118.28 257.87 118.99 256.51 119.77 L 256.18 120.41 C 254.82 124.43 252.18 127.78 250.44 131.62 C 249.11 134.04 246.76 136.12 243.91 136.36 C 244.41 134.63 244.95 132.92 245.49 131.20 C 242.84 131.28 240.19 131.36 237.54 131.46 C 236.95 132.28 236.36 133.10 235.78 133.93 C 233.68 133.22 232.12 131.47 232.24 129.17 C 235.76 125.05 241.73 127.65 246.18 126.18 C 248.63 123.59 248.50 119.51 250.03 116.37 Z" fill="#fcfeff" opacity="1.00" stroke="#fcfeff" stroke-width="0.25"/>
<path d="M 231.35 134.75 C 232.24 135.40 233.12 136.06 234.00 136.74 C 234.54 136.26 235.64 135.29 236.19 134.81 C 234.83 136.77 234.19 140.78 231.44 140.80 C 231.16 138.79 231.23 136.76 231.35 134.75 Z" fill="#395062" opacity="1.00" stroke="#395062" stroke-width="0.25"/>
<path d="M 193.43 140.27 C 198.02 138.21 203.69 137.65 208.37 139.81 C 205.43 141.68 201.86 142.07 198.80 143.64 C 195.65 146.61 195.26 151.12 194.04 155.01 C 191.29 158.83 186.66 156.96 183.13 155.65 C 183.30 155.23 183.63 154.39 183.79 153.98 C 184.64 153.30 185.49 152.62 186.33 151.93 C 183.19 151.27 180.01 150.14 176.76 150.61 C 176.62 151.51 176.34 153.31 176.20 154.22 C 177.52 153.56 178.83 152.89 180.14 152.22 C 178.97 155.75 175.60 157.83 172.65 159.76 C 172.54 155.92 174.42 151.93 177.50 149.69 C 181.48 149.16 185.44 150.58 189.42 150.76 C 191.61 147.60 191.15 143.23 193.43 140.27 Z" fill="#7e9197" opacity="1.00" stroke="#7e9197" stroke-width="0.25"/>
<path d="M 196.19 140.18 C 197.93 139.80 199.68 140.31 201.40 140.54 C 199.89 141.93 198.13 143.07 196.75 144.60 C 194.87 147.59 194.46 151.15 193.65 154.51 C 192.02 157.13 188.58 156.82 186.13 155.73 C 186.25 154.38 186.37 153.03 186.49 151.69 C 187.62 151.47 188.72 151.18 189.81 150.82 C 193.54 148.28 190.86 140.85 196.19 140.18 Z" fill="#fcfdff" opacity="1.00" stroke="#fcfdff" stroke-width="0.25"/>
<path d="M 304.29 142.88 C 305.46 142.65 306.63 142.45 307.83 142.36 C 305.20 146.37 302.34 150.69 297.50 152.21 C 298.11 151.11 298.81 150.06 299.58 149.07 C 301.23 147.56 303.02 146.19 304.76 144.78 C 304.64 144.31 304.41 143.36 304.29 142.88 Z" fill="#3b4b5a" opacity="1.00" stroke="#3b4b5a" stroke-width="0.25"/>
<path d="M 265.14 146.40 C 266.26 146.87 267.38 147.36 268.51 147.84 C 268.47 148.63 268.43 149.43 268.40 150.22 C 271.95 152.94 276.56 153.43 280.24 155.88 C 274.34 154.80 266.65 153.30 265.14 146.40 Z" fill="#3b4b5a" opacity="1.00" stroke="#3b4b5a" stroke-width="0.25"/>
<path d="M 233.95 150.81 C 238.17 148.57 243.25 149.23 247.67 150.51 C 248.87 150.73 249.60 151.70 250.33 152.60 C 246.87 153.39 243.38 154.08 239.87 154.61 C 237.57 156.97 235.49 159.66 235.01 163.02 C 234.61 166.70 230.68 169.06 227.19 168.80 C 227.26 167.26 227.55 165.68 227.11 164.17 C 225.71 163.68 224.28 163.43 222.81 163.44 C 219.50 165.61 217.94 169.50 215.48 172.47 C 212.91 169.67 214.76 165.59 215.63 162.45 C 217.44 156.91 224.50 159.58 228.79 159.74 C 232.03 158.10 232.58 153.87 233.95 150.81 Z" fill="#95a0a7" opacity="1.00" stroke="#95a0a7" stroke-width="0.25"/>
<path d="M 294.65 149.73 C 296.26 149.33 297.91 149.10 299.58 149.07 C 298.81 150.06 298.11 151.11 297.50 152.21 L 297.00 153.13 C 296.79 152.93 296.37 152.54 296.16 152.35 L 295.91 151.95 C 295.59 151.39 294.96 150.29 294.65 149.73 Z" fill="#afb8bd" opacity="1.00" stroke="#afb8bd" stroke-width="0.25"/>
<path d="M 286.80 154.10 C 289.49 152.78 292.03 151.18 294.65 149.73 C 294.96 150.29 295.59 151.39 295.91 151.95 C 294.53 151.93 290.55 153.23 293.64 154.23 C 295.81 155.47 293.83 158.35 292.61 159.63 C 289.35 163.29 284.02 162.21 279.95 160.76 C 280.62 160.19 281.30 159.63 281.98 159.08 C 281.17 159.09 279.55 159.12 278.74 159.13 C 279.88 158.44 281.02 157.75 282.17 157.07 L 282.69 156.77 C 282.76 158.14 282.83 159.51 282.91 160.88 C 285.25 160.82 287.75 161.01 289.90 159.87 C 291.96 159.04 292.40 156.59 293.41 154.85 C 288.25 155.72 281.60 157.32 277.91 152.38 C 280.89 152.78 283.78 154.20 286.80 154.10 Z" fill="#c9ced0" opacity="1.00" stroke="#c9ced0" stroke-width="0.25"/>
<path d="M 234.76 151.80 C 236.95 149.73 240.23 151.23 242.75 151.82 C 237.09 154.23 234.12 160.06 233.46 165.92 C 229.54 166.26 227.05 162.29 223.15 162.47 C 221.22 162.25 220.02 164.07 218.70 165.15 C 217.13 164.33 215.67 163.00 217.06 161.20 C 220.81 158.70 225.51 161.48 229.66 160.68 C 232.52 158.52 233.20 154.81 234.76 151.80 Z" fill="#fcffff" opacity="1.00" stroke="#fcffff" stroke-width="0.25"/>
<path d="M 293.64 154.23 C 290.55 153.23 294.53 151.93 295.91 151.95 L 296.16 152.35 C 295.53 152.82 294.27 153.76 293.64 154.23 Z" fill="#727d81" opacity="1.00" stroke="#727d81" stroke-width="0.25"/>
<path d="M 361.16 156.67 C 364.45 156.09 368.68 155.70 371.33 158.14 C 371.45 159.38 371.61 160.62 371.82 161.86 C 372.33 162.84 372.79 163.86 373.21 164.89 C 375.94 165.19 378.69 165.19 381.40 165.59 C 378.45 165.92 375.49 165.62 372.55 165.34 C 372.14 164.73 371.73 164.12 371.33 163.51 C 371.99 161.03 370.75 158.57 368.66 157.23 C 366.90 156.67 365.37 157.79 363.89 158.51 C 362.95 157.92 362.02 157.35 361.16 156.67 Z" fill="#3b4b5a" opacity="1.00" stroke="#3b4b5a" stroke-width="0.25"/>
<path d="M 278.57 157.70 C 279.77 157.49 280.97 157.28 282.17 157.07 C 281.02 157.75 279.88 158.44 278.74 159.13 C 279.55 159.12 281.17 159.09 281.98 159.08 C 281.30 159.63 280.62 160.19 279.95 160.76 C 279.62 161.04 278.95 161.60 278.62 161.88 C 278.59 160.48 278.58 159.09 278.57 157.70 Z" fill="#52626f" opacity="1.00" stroke="#52626f" stroke-width="0.25"/>
<path d="M 366.08 158.68 C 370.68 160.08 368.43 165.99 371.38 168.83 C 372.60 168.06 373.83 167.28 375.05 166.50 C 374.19 167.77 373.45 169.10 373.12 170.61 C 371.98 169.88 370.83 169.15 369.69 168.42 C 369.43 164.88 368.84 161.19 366.08 158.68 Z" fill="#7e9197" opacity="1.00" stroke="#7e9197" stroke-width="0.25"/>
<path d="M 323.72 164.89 C 327.28 161.97 332.10 162.46 336.38 162.49 L 335.63 162.64 C 333.43 163.13 331.31 163.92 329.35 165.04 C 331.17 165.81 333.09 166.39 334.85 167.31 C 338.75 170.41 337.61 176.30 341.13 179.57 L 341.77 180.14 C 340.31 179.10 338.69 177.95 338.55 176.00 C 338.07 172.94 336.60 170.24 334.87 167.72 C 331.29 166.30 327.49 165.61 323.72 164.89 Z" fill="#304351" opacity="1.00" stroke="#304351" stroke-width="0.25"/>
<path d="M 336.38 162.49 C 340.39 162.10 340.03 167.70 341.67 170.15 C 344.03 175.87 350.85 168.95 354.60 172.20 C 355.79 173.73 356.21 175.67 356.82 177.47 C 355.80 178.65 354.77 179.83 353.75 181.02 C 352.50 179.49 351.66 177.56 350.06 176.37 C 348.74 176.46 347.43 176.62 346.13 176.85 C 346.27 178.52 346.97 180.58 345.03 181.51 C 343.86 181.24 342.77 180.78 341.77 180.14 L 341.13 179.57 C 343.13 178.13 344.95 176.17 347.42 175.57 C 350.17 175.16 352.86 176.20 355.52 176.77 C 355.03 175.27 354.55 173.77 354.08 172.28 C 350.51 172.53 347.01 173.73 343.43 173.53 C 339.32 171.05 340.38 164.60 335.63 162.64 L 336.38 162.49 Z" fill="#95a0a7" opacity="1.00" stroke="#95a0a7" stroke-width="0.25"/>
<path d="M 329.35 165.04 C 331.31 163.92 333.43 163.13 335.63 162.64 C 340.38 164.60 339.32 171.05 343.43 173.53 C 347.01 173.73 350.51 172.53 354.08 172.28 C 354.55 173.77 355.03 175.27 355.52 176.77 C 352.86 176.20 350.17 175.16 347.42 175.57 C 344.95 176.17 343.13 178.13 341.13 179.57 C 337.61 176.30 338.75 170.41 334.85 167.31 C 333.09 166.39 331.17 165.81 329.35 165.04 Z" fill="#feffff" opacity="1.00" stroke="#feffff" stroke-width="0.25"/>
<path d="M 377.34 166.87 C 378.43 168.15 379.49 169.52 381.15 170.11 C 381.21 169.24 381.33 167.52 381.39 166.66 C 381.81 168.83 381.89 171.06 381.79 173.27 C 379.47 171.83 378.66 169.10 377.34 166.87 Z" fill="#3b4b5a" opacity="1.00" stroke="#3b4b5a" stroke-width="0.25"/>
<path d="M 353.75 181.02 C 354.77 179.83 355.80 178.65 356.82 177.47 C 356.82 179.62 356.85 181.77 356.85 183.91 C 355.82 182.94 354.79 181.96 353.75 181.02 Z" fill="#304351" opacity="1.00" stroke="#304351" stroke-width="0.25"/>
<path d="M 381.56 185.41 C 387.03 185.63 392.87 187.84 396.03 192.51 C 392.02 192.16 387.99 190.71 383.96 191.61 C 381.99 192.75 380.26 194.23 378.47 195.61 C 377.78 197.72 377.48 200.78 374.80 201.28 C 370.46 202.34 367.26 198.34 363.13 197.99 C 364.21 196.84 365.24 195.63 366.42 194.58 C 367.49 194.54 367.50 196.01 368.12 196.59 L 365.73 196.54 C 367.10 199.48 370.18 200.51 373.06 201.33 C 376.14 201.00 377.88 198.69 377.71 195.64 C 379.50 194.17 381.22 192.60 383.18 191.37 C 385.25 190.01 387.87 190.68 390.18 190.41 C 388.30 187.82 385.47 185.51 382.06 185.96 C 378.67 188.43 376.66 192.56 372.83 194.46 C 368.74 195.33 366.02 191.44 362.91 189.56 C 361.14 188.78 359.59 190.31 358.24 191.17 C 357.92 191.40 357.29 191.85 356.98 192.07 C 357.34 192.63 358.07 193.73 358.43 194.29 C 356.66 194.25 354.80 194.59 353.15 193.78 C 355.64 191.30 358.66 189.43 362.02 188.39 C 365.42 190.30 368.43 192.87 372.04 194.40 C 375.91 192.20 378.46 188.48 381.56 185.41 Z" fill="#52626f" opacity="1.00" stroke="#52626f" stroke-width="0.25"/>
<path d="M 356.98 192.07 C 357.29 191.85 357.92 191.40 358.24 191.17 C 359.70 192.98 361.83 192.58 363.85 192.36 C 363.81 192.65 363.74 193.23 363.70 193.52 C 360.18 194.45 356.54 194.73 352.94 195.13 C 352.86 194.60 352.68 193.56 352.60 193.03 L 353.15 193.78 C 354.80 194.59 356.66 194.25 358.43 194.29 C 358.07 193.73 357.34 192.63 356.98 192.07 Z" fill="#a7b0b9" opacity="1.00" stroke="#a7b0b9" stroke-width="0.25"/>
<path d="M 340.29 220.82 C 340.46 220.14 340.78 218.77 340.95 218.09 C 341.62 219.47 342.24 220.93 342.37 222.50 C 343.89 238.92 344.48 255.46 343.50 271.93 C 343.35 273.77 342.95 275.56 342.58 277.37 C 342.14 276.00 341.63 274.66 341.17 273.31 C 340.81 265.90 341.51 258.49 341.06 251.09 C 340.72 245.52 341.93 239.80 340.09 234.40 C 340.01 229.87 340.24 225.35 340.29 220.82 Z" fill="#b0c9da" opacity="1.00" stroke="#b0c9da" stroke-width="0.25"/>
<path d="M 340.29 220.82 C 340.24 225.35 340.01 229.87 340.09 234.40 C 339.55 248.12 339.65 261.86 340.18 275.58 C 340.09 277.18 340.02 278.77 339.97 280.37 C 337.87 275.54 338.06 270.09 337.61 264.93 C 337.38 250.22 337.14 235.25 340.29 220.82 Z" fill="#395062" opacity="1.00" stroke="#395062" stroke-width="0.25"/>
<path d="M 224.73 226.98 C 224.90 228.15 225.23 229.36 224.91 230.55 C 224.25 233.03 223.99 235.60 223.99 238.17 C 223.90 248.79 223.80 259.41 224.06 270.03 C 224.12 272.35 223.92 274.68 223.43 276.96 C 221.47 262.72 221.94 248.21 223.39 233.95 C 223.51 232.62 223.59 231.17 224.63 230.20 C 224.66 229.39 224.71 227.79 224.73 226.98 Z" fill="#395062" opacity="1.00" stroke="#395062" stroke-width="0.25"/>
<path d="M 223.99 238.17 C 223.99 235.60 224.25 233.03 224.91 230.55 C 226.36 233.13 227.02 236.02 227.31 238.95 C 228.68 249.22 228.59 259.62 228.23 269.96 C 228.24 273.58 226.68 276.89 225.54 280.25 C 233.63 280.73 241.72 279.87 249.82 280.13 C 249.09 281.55 248.37 282.98 247.48 284.32 C 246.17 286.13 244.75 287.87 243.38 289.64 C 231.92 289.82 220.45 289.68 208.98 289.71 C 205.26 290.37 204.05 286.15 201.49 284.36 C 200.90 282.88 200.33 281.40 199.78 279.92 C 207.89 279.79 215.98 280.69 224.09 280.31 C 223.85 279.26 223.62 278.21 223.39 277.16 L 223.43 276.96 C 223.92 274.68 224.12 272.35 224.06 270.03 C 223.80 259.41 223.90 248.79 223.99 238.17 Z" fill="#bbd0e1" opacity="1.00" stroke="#bbd0e1" stroke-width="0.25"/>
<path d="M 340.09 234.40 C 341.93 239.80 340.72 245.52 341.06 251.09 C 341.51 258.49 340.81 265.90 341.17 273.31 C 340.92 273.88 340.43 275.01 340.18 275.58 C 339.65 261.86 339.55 248.12 340.09 234.40 Z" fill="#b9dbf5" opacity="1.00" stroke="#b9dbf5" stroke-width="0.25"/>
<path d="M 83.99 257.40 C 92.37 257.59 100.65 259.20 108.94 260.39 C 112.55 261.14 116.53 261.40 119.50 263.84 C 117.64 265.09 115.74 266.27 113.84 267.46 C 121.01 272.32 130.28 271.50 138.14 274.65 C 141.62 276.25 146.19 277.35 147.16 281.63 C 145.12 283.62 140.07 285.81 142.67 289.24 C 146.61 291.92 151.62 292.71 155.70 295.28 C 155.71 295.93 155.75 297.23 155.76 297.88 C 148.10 302.72 138.83 303.84 130.67 307.64 C 122.51 311.44 113.77 316.70 110.72 325.71 C 108.88 330.75 110.97 335.97 111.99 340.94 C 101.05 331.90 91.23 321.48 83.18 309.77 C 78.61 302.11 73.79 294.23 72.04 285.38 C 83.02 283.94 94.01 282.28 104.77 279.61 C 107.17 278.91 109.81 278.50 111.79 276.85 C 112.44 275.46 111.80 274.11 110.39 273.61 C 105.86 271.55 100.73 271.06 96.36 268.61 C 96.25 268.25 96.02 267.53 95.90 267.17 C 98.61 265.90 101.44 264.88 104.03 263.37 C 97.77 260.01 90.37 260.35 83.99 257.40 Z" fill="#e5e5e5" opacity="1.00" stroke="#e5e5e5" stroke-width="0.25"/>
<path d="M 341.17 273.31 C 341.63 274.66 342.14 276.00 342.58 277.37 C 342.66 278.96 342.28 280.54 342.11 282.12 C 352.13 281.83 362.17 281.74 372.19 281.18 C 371.77 282.27 371.32 283.34 370.84 284.40 C 368.98 287.63 366.60 290.51 364.44 293.54 C 350.62 293.86 336.80 293.55 322.97 293.72 C 321.21 293.50 318.87 294.12 317.67 292.45 C 315.53 289.96 313.58 287.29 311.96 284.44 C 311.60 283.41 311.27 282.37 310.98 281.33 C 320.63 281.78 330.29 281.73 339.94 282.07 C 339.94 281.64 339.96 280.80 339.97 280.37 C 340.02 278.77 340.09 277.18 340.18 275.58 C 340.43 275.01 340.92 273.88 341.17 273.31 Z" fill="#bcd0e0" opacity="1.00" stroke="#bcd0e0" stroke-width="0.25"/>
<path d="M 147.07 288.09 C 148.52 286.69 149.80 284.42 152.09 284.49 C 168.55 284.34 185.03 284.57 201.49 284.36 C 204.05 286.15 205.26 290.37 208.98 289.71 C 220.45 289.68 231.92 289.82 243.38 289.64 C 244.75 287.87 246.17 286.13 247.48 284.32 C 268.97 284.61 290.47 284.39 311.96 284.44 C 313.58 287.29 315.53 289.96 317.67 292.45 C 318.87 294.12 321.21 293.50 322.97 293.72 C 336.80 293.55 350.62 293.86 364.44 293.54 C 366.60 290.51 368.98 287.63 370.84 284.40 C 395.15 284.61 419.48 284.21 443.79 284.60 C 438.24 302.16 428.11 318.12 415.09 331.10 C 400.12 346.73 381.81 358.94 362.21 368.00 C 340.93 377.79 318.14 384.20 294.93 387.31 C 245.96 394.04 194.78 387.31 150.08 365.83 C 141.50 361.73 133.54 356.49 125.55 351.37 C 121.86 343.88 117.74 335.27 120.52 326.80 C 124.12 316.99 133.63 311.12 142.85 307.33 C 148.94 304.42 155.85 303.35 161.49 299.54 C 162.82 298.91 162.72 297.39 162.99 296.18 C 158.09 292.64 151.72 292.01 147.07 288.09 Z" fill="#134a81" opacity="1.00" stroke="#134a81" stroke-width="0.25"/>
<path d="M 186.98 291.55 C 188.33 291.24 189.68 290.92 191.03 290.62 C 193.49 293.60 197.65 292.80 201.06 293.09 C 207.06 292.86 213.05 292.57 219.05 292.68 C 210.44 294.11 201.59 294.09 192.89 293.52 C 190.75 293.50 188.98 292.11 186.98 291.55 Z" fill="#b0c9da" opacity="1.00" stroke="#b0c9da" stroke-width="0.25"/>
<path d="M 248.46 291.17 C 249.52 290.45 252.23 290.33 252.55 291.82 C 251.47 292.58 248.83 292.60 248.46 291.17 Z" fill="#5f95ca" opacity="1.00" stroke="#5f95ca" stroke-width="0.25"/>
<path d="M 224.83 292.61 C 231.91 291.43 239.08 292.32 246.19 292.45 C 244.93 294.63 242.13 293.85 240.05 294.05 C 234.99 293.70 229.57 294.86 224.83 292.61 Z" fill="#4373a1" opacity="1.00" stroke="#4373a1" stroke-width="0.25"/>
<path d="M 286.50 295.65 C 290.18 293.98 294.43 294.15 298.38 294.39 C 294.78 296.29 290.43 296.08 286.50 295.65 Z" fill="#bbd0e1" opacity="1.00" stroke="#bbd0e1" stroke-width="0.25"/>
<path d="M 383.71 294.34 C 387.56 294.32 391.78 293.65 395.32 295.55 C 391.41 295.87 387.48 295.33 383.71 294.34 Z" fill="#e3ffff" opacity="1.00" stroke="#e3ffff" stroke-width="0.25"/>
<path d="M 218.91 298.31 C 228.42 297.22 238.08 297.91 247.65 297.71 C 247.64 297.85 247.63 298.12 247.63 298.26 C 242.06 297.82 236.56 299.72 231.01 298.81 C 226.99 298.31 222.94 298.47 218.91 298.31 Z" fill="#e3ffff" opacity="1.00" stroke="#e3ffff" stroke-width="0.25"/>
<path d="M 292.85 297.34 C 300.28 297.05 307.60 299.05 315.04 298.35 C 320.64 297.80 326.28 297.59 331.91 297.76 C 326.96 298.66 321.88 298.31 316.91 299.07 C 308.87 300.29 300.79 298.51 292.85 297.34 Z" fill="#e3ffff" opacity="1.00" stroke="#e3ffff" stroke-width="0.25"/>
<path d="M 347.53 298.16 C 349.21 297.16 351.13 296.87 353.07 297.00 C 359.72 297.18 366.38 296.94 373.03 296.93 C 374.59 296.81 376.05 297.37 377.42 298.08 C 367.48 299.11 357.48 298.72 347.53 298.16 Z" fill="#0b3a68" opacity="1.00" stroke="#0b3a68" stroke-width="0.25"/>
<path d="M 377.42 298.08 C 379.70 297.90 382.04 297.59 384.30 298.16 C 380.67 298.67 377.02 299.03 373.39 299.54 C 363.19 300.91 352.99 298.86 342.80 298.45 C 344.37 298.28 345.95 298.13 347.53 298.16 C 357.48 298.72 367.48 299.11 377.42 298.08 Z" fill="#e3ffff" opacity="1.00" stroke="#e3ffff" stroke-width="0.25"/>
<path d="M 320.86 309.86 C 327.56 309.34 334.29 309.64 341.00 309.52 C 345.37 309.74 349.82 309.21 354.14 310.12 C 343.06 310.52 331.86 311.32 320.86 309.86 Z" fill="#e3ffff" opacity="1.00" stroke="#e3ffff" stroke-width="0.25"/>
<path d="M 195.95 324.64 C 204.23 322.60 212.66 324.63 221.05 324.45 C 216.01 324.68 210.96 326.23 205.93 325.12 C 202.64 324.43 199.28 324.55 195.95 324.64 Z" fill="#e3ffff" opacity="1.00" stroke="#e3ffff" stroke-width="0.25"/>
<path d="M 269.78 334.82 C 275.15 333.80 280.60 333.72 286.00 334.59 C 291.96 334.11 297.95 334.01 303.93 334.47 C 299.28 335.00 294.58 335.07 289.99 335.96 C 287.00 336.57 283.92 336.44 280.96 335.79 C 277.28 334.96 273.49 335.34 269.78 334.82 Z" fill="#e3ffff" opacity="1.00" stroke="#e3ffff" stroke-width="0.25"/>
<path d="M 356.85 339.27 C 363.26 337.79 369.71 339.86 376.12 340.24 C 369.79 341.34 363.37 340.08 357.03 340.96 C 352.99 341.37 348.93 340.89 344.92 340.42 C 348.92 340.31 352.93 340.11 356.85 339.27 Z" fill="#e3ffff" opacity="1.00" stroke="#e3ffff" stroke-width="0.25"/>
</svg>