<?xml version="1.0" encoding="utf-8"?>
<!-- Generator: Adobe Illustrator 26.0.2, SVG Export Plug-In . SVG Version: 6.00 Build 0)  -->
<svg version="1.1" id="图层_1" xmlns="http://www.w3.org/2000/svg" xmlns:xlink="http://www.w3.org/1999/xlink" x="0px" y="0px"
	 viewBox="0 0 841.9 595.3" style="enable-background:new 0 0 841.9 595.3;" xml:space="preserve">
<style type="text/css">
	.st0{opacity:0.999;fill-rule:evenodd;clip-rule:evenodd;fill:#FEFCFC;enable-background:new    ;}
	.st1{opacity:1.600000e-02;fill-rule:evenodd;clip-rule:evenodd;fill:#FEFDFC;enable-background:new    ;}
	.st2{opacity:3.900000e-02;fill-rule:evenodd;clip-rule:evenodd;fill:#FFFDFD;enable-background:new    ;}
	.st3{opacity:3.900000e-02;fill-rule:evenodd;clip-rule:evenodd;fill:#FFFEFE;enable-background:new    ;}
	.st4{opacity:1.200000e-02;fill-rule:evenodd;clip-rule:evenodd;fill:#FEFDFC;enable-background:new    ;}
	.st5{opacity:1.200000e-02;fill-rule:evenodd;clip-rule:evenodd;fill:#FFFFFF;enable-background:new    ;}
	.st6{opacity:1.200000e-02;fill-rule:evenodd;clip-rule:evenodd;fill:#FFFFFD;enable-background:new    ;}
	.st7{opacity:2.900000e-02;fill-rule:evenodd;clip-rule:evenodd;fill:#FFFEFE;enable-background:new    ;}
	.st8{opacity:1.200000e-02;fill-rule:evenodd;clip-rule:evenodd;fill:#FFFEFD;enable-background:new    ;}
	.st9{opacity:1.600000e-02;fill-rule:evenodd;clip-rule:evenodd;fill:#FFFFFF;enable-background:new    ;}
	.st10{opacity:3.900000e-02;fill-rule:evenodd;clip-rule:evenodd;fill:#FFFFFF;enable-background:new    ;}
	.st11{fill-rule:evenodd;clip-rule:evenodd;fill:#515051;}
	.st12{fill-rule:evenodd;clip-rule:evenodd;fill:#FCFBFB;}
	.st13{fill-rule:evenodd;clip-rule:evenodd;fill:#282929;}
	.st14{fill-rule:evenodd;clip-rule:evenodd;fill:#555556;}
	.st15{fill-rule:evenodd;clip-rule:evenodd;fill:#2D2D2D;}
	.st16{fill-rule:evenodd;clip-rule:evenodd;fill:#FDFBFB;}
	.st17{fill-rule:evenodd;clip-rule:evenodd;fill:#504F4F;}
	.st18{fill-rule:evenodd;clip-rule:evenodd;fill:#08070A;}
	.st19{opacity:1.600000e-02;fill-rule:evenodd;clip-rule:evenodd;fill:#FFFFFE;enable-background:new    ;}
	.st20{fill-rule:evenodd;clip-rule:evenodd;fill:#1A1E22;}
	.st21{fill-rule:evenodd;clip-rule:evenodd;fill:#2E2E2F;}
	.st22{fill-rule:evenodd;clip-rule:evenodd;fill:#F8F6F6;}
	.st23{fill-rule:evenodd;clip-rule:evenodd;fill:#4A4949;}
	.st24{fill-rule:evenodd;clip-rule:evenodd;fill:#F5F4F4;}
	.st25{fill-rule:evenodd;clip-rule:evenodd;fill:#353535;}
	.st26{fill-rule:evenodd;clip-rule:evenodd;fill:#515052;}
	.st27{fill-rule:evenodd;clip-rule:evenodd;fill:#525151;}
	.st28{fill-rule:evenodd;clip-rule:evenodd;fill:#2B2B2D;}
	.st29{fill-rule:evenodd;clip-rule:evenodd;fill:#2F2F30;}
	.st30{fill-rule:evenodd;clip-rule:evenodd;fill:#242423;}
	.st31{fill-rule:evenodd;clip-rule:evenodd;fill:#5E5F60;}
	.st32{fill-rule:evenodd;clip-rule:evenodd;fill:#4D4E4E;}
	.st33{fill-rule:evenodd;clip-rule:evenodd;fill:#2E2F2F;}
	.st34{fill-rule:evenodd;clip-rule:evenodd;fill:#4F4F51;}
	.st35{fill-rule:evenodd;clip-rule:evenodd;fill:#183263;}
	.st36{fill-rule:evenodd;clip-rule:evenodd;fill:#1C2C56;}
	.st37{fill-rule:evenodd;clip-rule:evenodd;fill:#FEFCFC;}
	.st38{fill-rule:evenodd;clip-rule:evenodd;fill:#F8F6F8;}
	.st39{fill-rule:evenodd;clip-rule:evenodd;fill:#FBFAFB;}
	.st40{fill-rule:evenodd;clip-rule:evenodd;fill:#FBF9F9;}
	.st41{fill-rule:evenodd;clip-rule:evenodd;fill:#FEFDFC;}
	.st42{fill-rule:evenodd;clip-rule:evenodd;fill:#FBF9FA;}
	.st43{fill-rule:evenodd;clip-rule:evenodd;fill:#F6F4F7;}
	.st44{fill-rule:evenodd;clip-rule:evenodd;fill:#FAF8F9;}
	.st45{fill-rule:evenodd;clip-rule:evenodd;fill:#F9F8FA;}
	.st46{fill-rule:evenodd;clip-rule:evenodd;fill:#FCFAFA;}
	.st47{opacity:3.300000e-02;fill-rule:evenodd;clip-rule:evenodd;fill:#FFFEFD;enable-background:new    ;}
	.st48{opacity:1.200000e-02;fill-rule:evenodd;clip-rule:evenodd;fill:#FFFFFE;enable-background:new    ;}
	.st49{opacity:3.300000e-02;fill-rule:evenodd;clip-rule:evenodd;fill:#FFFDFD;enable-background:new    ;}
	.st50{opacity:3.300000e-02;fill-rule:evenodd;clip-rule:evenodd;fill:#FEFDFC;enable-background:new    ;}
	.st51{opacity:3.900000e-02;fill-rule:evenodd;clip-rule:evenodd;fill:#FEFDFC;enable-background:new    ;}
	.st52{fill:#183263;}
	.st53{fill:#4A79A3;}
	.st54{fill:#A5C9E8;}
	.st55{fill:#F0F2FA;}
	.st56{fill:#E19FAD;}
	.st57{fill:#BD4C6D;}
</style>
<g>
	<g>
		<g>
			<path class="st0" d="M69.3,168.1c46.2,0,92.5,0,138.7,0c0,0.2,0,0.4,0,0.6c0.9,0,1.8,0,2.7,0c0.4,0,0.4,0.1,0.2,0.3
				c7.5,1.6,14.4,4.2,20.5,7.7c0.1,0.1,0.3,0.3,0.5,0.4c0.4-0.3,0.5-0.2,0.3,0.1c0.2,0.1,0.4,0.2,0.6,0.3c0.4,0.3,0.9,0.6,1.4,0.8
				c0.3,0.3,0.7,0.6,1.2,0.8c0.1,0.1,0.3,0.3,0.5,0.4c0.4-0.3,0.5-0.2,0.3,0.1c0.1,0.1,0.2,0.2,0.4,0.3c0.2,0.2,0.3,0.3,0.6,0.4
				c0.2,0.2,0.3,0.3,0.6,0.4c0.3,0.3,0.7,0.6,1.2,0.8c0.1,0.2,0.2,0.3,0.4,0.4c0.2,0.3,0.5,0.4,0.8,0.2c0.2,0.1,0.2,0.3,0,0.5
				c0.1,0.1,0.2,0.1,0.4,0.1c0.1,0.2,0.2,0.3,0.4,0.4c0.1,0.2,0.2,0.3,0.3,0.4c0.5-0.2,0.9,0,1.1,0.6c-0.3,0.1-0.3,0.1,0,0.2
				c0.2,0.2,0.3,0.3,0.6,0.4c0.1,0.2,0.2,0.3,0.4,0.4c0.3,0.2,0.6,0.5,0.9,0.8c0.1-0.1,0.2-0.2,0.3-0.2c0.3,0.3,0.6,0.6,1,1
				c-0.3,0.3-0.2,0.4,0.2,0.4c0.1,0.2,0.2,0.3,0.4,0.4c0.1,0.2,0.2,0.3,0.4,0.4c0.1,0.2,0.2,0.3,0.4,0.4c0.1,0.2,0.2,0.3,0.4,0.4
				c0.1,0.2,0.2,0.3,0.4,0.4c0.1,0.2,0.2,0.3,0.4,0.4c0.1,0.2,0.2,0.3,0.4,0.4c0.1,0.2,0.2,0.3,0.4,0.4c0.1,0.2,0.2,0.3,0.4,0.4
				c0.1,0.2,0.2,0.3,0.4,0.4c0.1,0.2,0.2,0.3,0.4,0.4c0,0.4,0.1,0.5,0.4,0.2c0.3,0.3,0.5,0.5,0.8,0.8c0.2,0.2,0.2,0.4,0,0.7
				c0.1,0.1,0.2,0.2,0.4,0.3c0.1,0.2,0.2,0.3,0.4,0.4c0.1,0.2,0.2,0.3,0.4,0.4c0.3,0.6,0.7,1.1,1.2,1.6c0.1,0.2,0.2,0.4,0.4,0.6
				c0.2,0.4,0.5,0.7,0.8,1c0.1,0.2,0.2,0.4,0.4,0.6c0.2,0.4,0.5,0.7,0.8,1c0.2,0.4,0.4,0.8,0.8,1.2c0.2,0.5,0.5,0.9,0.8,1.4
				c0.1,0.2,0.2,0.4,0.4,0.6c0.1,0.2,0.2,0.4,0.4,0.6c0.1,0.4,0.2,0.5,0.5,0.4c0.3,1,0.7,2,1.5,2.9c0.5,1.4,1.2,2.6,1.9,3.9
				c0.7,1.7,1.3,3.3,1.8,4.7c0.3-0.2,0.4-0.1,0.1,0.3c0.1,0.4,0.3,0.7,0.6,1c-0.1,0.1-0.1,0.1-0.2,0.2c0.6,1.5,1.2,3,1.7,4.5
				c-0.1,0.6,0,1.1,0.4,1.6c-0.1,0.1-0.1,0.1-0.2,0.2c0.2,1,0.5,2,1,2.9c-0.1,1.1,0.1,2.2,0.6,3.2c0,46,0,92,0,138
				c-0.3,0.2-0.5,0.5-0.5,1c-0.5,4.3-1.7,8.6-3.4,12.9c0.1,0.1,0.1,0.1,0.2,0.2c-0.8,1.3-1.5,2.9-2.1,4.7c-0.1,0.7-0.3,1.2-0.8,1.6
				c-0.5,0.7-0.9,1.5-1.2,2.3c-0.5,0.6-0.9,1.2-1.2,1.9c-0.2,0.2-0.4,0.5-0.4,0.8c-0.3,0.3-0.6,0.7-0.8,1.2
				c-0.2,0.2-0.4,0.5-0.4,0.8c-0.4,0.3-0.6,0.7-0.8,1.2c-0.4,0.3-0.6,0.7-0.8,1.2c-0.2,0.1-0.3,0.2-0.4,0.4
				c-0.2,0.2-0.3,0.3-0.4,0.6c-0.2,0.2-0.3,0.3-0.4,0.6c-0.3,0.3-0.5,0.5-0.8,0.9c0.1,0.1,0.2,0.2,0.2,0.3c-0.1,0.2-0.3,0.2-0.5,0
				c-0.1,0.1-0.1,0.2-0.1,0.4c-0.2,0.1-0.3,0.2-0.4,0.4c-0.3,0.2-0.4,0.5-0.2,0.8c-0.2,0.2-0.4,0.4-0.6,0.6
				c-0.3-0.3-0.4-0.2-0.4,0.2c-0.2,0.1-0.3,0.2-0.4,0.4c-0.3,0.4-0.7,0.9-1.2,1.3c0.1,0.1,0.2,0.2,0.2,0.3c-0.3,0.4-0.7,0.7-1.2,1
				c-0.1-0.3-0.1-0.3-0.2,0c-0.2,0.2-0.3,0.3-0.4,0.6c-0.2,0.1-0.3,0.2-0.4,0.4c-0.2,0.1-0.3,0.2-0.4,0.4c-0.2,0.1-0.3,0.2-0.4,0.4
				c-0.2,0.1-0.3,0.2-0.4,0.4c-0.2,0.1-0.3,0.2-0.4,0.4c-0.2,0.1-0.3,0.2-0.4,0.4c-0.2,0-0.3,0-0.4,0.2c-0.1,0-0.2,0.1-0.2,0.2
				c-0.1,0-0.2,0.1-0.2,0.2c-0.1,0-0.2,0.1-0.2,0.2c-0.3,0.1-0.3,0.1,0,0.2c-0.6,0.3-1.2,0.8-1.7,1.4c-0.2,0.1-0.3,0.2-0.4,0.4
				c-0.2,0.1-0.3,0.2-0.4,0.4c-0.2,0.1-0.4,0.2-0.6,0.4c-0.5,0.4-0.9,0.8-1.4,1.2c-0.2,0-0.3,0-0.4,0.2c-0.1,0-0.2,0.1-0.2,0.2
				c-0.4,0.2-0.7,0.5-1,0.8c-0.2,0.1-0.4,0.2-0.6,0.4c-0.4,0.2-0.7,0.5-1,0.8c-0.5,0.2-0.8,0.4-1.2,0.8c-0.5,0.2-0.8,0.4-1.2,0.8
				c-0.5,0.2-0.8,0.4-1.2,0.8c-0.3,0-0.6,0.2-0.8,0.4c-0.7,0.3-1.4,0.7-1.9,1.2c-0.4,0.4-0.9,0.7-1.6,0.8c-0.9,0.4-1.7,0.8-2.3,1.4
				c-0.1,0-0.2-0.1-0.3-0.2c-0.4,0.1-0.6,0.3-0.5,0.6c-0.1,0-0.2-0.1-0.3-0.2c-1.9,1-4,1.8-6.3,2.6c0.2,0.3,0.1,0.4-0.3,0.1
				c-0.4,0.1-0.7,0.3-1,0.6c-0.4-0.1-0.8,0-1.2,0.4c-0.1-0.1-0.1-0.1-0.2-0.2c-2.1,0.7-4.4,1.3-6.9,1.8c-0.2,0.3-0.4,0.4-0.7,0.1
				c-1.1,0.1-2.2,0.4-3.2,0.8c-45.5,0-90.9,0-136.4,0c-0.9-0.2-1.9-0.4-2.9-0.8c-0.1,0-0.2,0.1-0.3,0.2c-1.2-0.6-2.5-0.9-3.8-0.9
				c0.1-0.1,0.1-0.1,0.2-0.2c-4-1-7.9-2.4-11.7-4.2c-0.1,0.1-0.2,0.2-0.3,0.2c0.1-0.3-0.1-0.5-0.5-0.6c-0.4,0.3-0.5,0.2-0.3-0.1
				c-0.8-0.3-1.6-0.7-2.3-1.1c-0.2-0.2-0.5-0.3-0.8-0.4c-0.7-0.1-1.2-0.3-1.6-0.8c-0.3-0.4-0.7-0.6-1.2-0.8
				c-0.1-0.1-0.3-0.3-0.5-0.4c-0.4,0.3-0.5,0.2-0.3-0.1c-0.2-0.1-0.4-0.2-0.6-0.3c-0.2-0.2-0.3-0.3-0.6-0.4
				c-0.2-0.2-0.5-0.4-0.8-0.4c-0.3-0.4-0.7-0.6-1.2-0.8c-0.3-0.3-0.6-0.6-1-0.8c-0.2-0.2-0.3-0.3-0.6-0.4c-0.1-0.1-0.3-0.3-0.5-0.4
				c-0.4,0.3-0.5,0.2-0.3-0.1c-0.1-0.1-0.2-0.2-0.4-0.3c-0.5-0.5-1-0.8-1.6-1.2c-0.1-0.2-0.2-0.3-0.4-0.4c-0.3-0.3-0.6-0.5-1-0.8
				c0-0.1-0.1-0.2-0.2-0.2c-0.1-0.2-0.2-0.2-0.4-0.2c-0.1-0.2-0.2-0.3-0.4-0.4c-0.1-0.2-0.2-0.3-0.4-0.4c-0.4-0.3-0.9-0.7-1.3-1.2
				c-0.1,0.1-0.2,0.2-0.3,0.2c0.1-0.5-0.2-0.8-0.8-1c-0.1-0.2-0.2-0.3-0.4-0.4c-0.1-0.2-0.2-0.3-0.4-0.4c-0.1-0.2-0.2-0.3-0.4-0.4
				c-0.1-0.2-0.2-0.3-0.4-0.4c-0.1-0.2-0.2-0.3-0.4-0.4c-0.1-0.2-0.2-0.3-0.4-0.4c-0.1-0.2-0.2-0.3-0.4-0.4c0-0.2,0-0.3-0.2-0.4
				c0-0.1-0.1-0.2-0.2-0.2c-0.1-0.3-0.1-0.3-0.2,0c-0.6-0.4-1.1-0.8-1.6-1.4c0.2-0.3,0.1-0.6-0.2-0.8c-0.1-0.2-0.2-0.3-0.4-0.4
				c-0.1-0.2-0.2-0.3-0.4-0.4c-0.1-0.2-0.2-0.4-0.4-0.6c-0.4-0.5-0.8-0.9-1.2-1.4c-0.1-0.2-0.2-0.3-0.4-0.4
				c-0.2-0.5-0.4-0.8-0.8-1.2c-0.1-0.2-0.2-0.4-0.4-0.6c-0.2-0.4-0.5-0.7-0.8-1c0-0.1,0-0.3-0.1-0.4c-0.2,0.2-0.3,0.2-0.5,0
				c0.2-0.3,0.2-0.5-0.1-0.8c-0.3,0.2-0.4,0.1-0.1-0.3c-0.2-0.3-0.5-0.6-0.8-0.9c0-0.3-0.2-0.6-0.4-0.8c-0.1-0.2-0.2-0.4-0.4-0.6
				c-0.1-0.2-0.2-0.4-0.4-0.6c-0.3-0.7-0.7-1.4-1.2-1.9c-0.4-0.4-0.7-0.9-0.8-1.6c-0.1-0.3-0.2-0.5-0.4-0.8
				c-0.1-0.3-0.2-0.5-0.4-0.8c-0.4-0.4-0.7-0.9-0.8-1.6c-0.1-0.2-0.2-0.5-0.3-0.8c-0.3,0.2-0.4,0.1-0.1-0.3
				c-1.2-2.7-2.3-5.5-3.1-8.3c-0.6-1.9-1.1-3.7-1.7-5.5c0.1-1.2-0.1-2.4-0.6-3.5c0-46.1,0-92.2,0-138.4c0.8-3.5,1.7-7,2.7-10.4
				c-0.3-0.4-0.2-0.5,0.1-0.3c0.8-2.3,1.7-4.5,2.6-6.7c-0.3-0.4-0.2-0.5,0.1-0.3c0.2-0.2,0.3-0.5,0.3-0.8c0.4-0.6,0.8-1.3,1.2-2.3
				c0.2-0.2,0.3-0.5,0.4-0.8c0.2-0.2,0.4-0.5,0.4-0.8c0.4-0.4,0.7-0.8,0.8-1.4c0.3-0.4,0.6-0.9,0.8-1.4c0.2-0.2,0.3-0.3,0.4-0.6
				c0.3-0.4,0.6-0.9,0.8-1.4c0.4-0.3,0.6-0.7,0.8-1.2c0.3-0.3,0.6-0.6,0.8-1c0.2-0.2,0.3-0.3,0.4-0.6c0.2-0.2,0.3-0.3,0.4-0.6
				c0.2-0.2,0.3-0.3,0.4-0.6c0.3-0.3,0.6-0.6,0.8-1c0.2-0.2,0.3-0.3,0.4-0.6c0.3-0.3,0.5-0.5,0.8-0.9c-0.1-0.1-0.2-0.2-0.2-0.3
				c0.2-0.1,0.4-0.3,0.6-0.4c0.2-0.1,0.3-0.2,0.4-0.4c0.2-0.1,0.3-0.2,0.4-0.4c0.3-0.3,0.5-0.5,0.8-0.9c-0.1-0.1-0.2-0.2-0.2-0.3
				c0.3-0.3,0.6-0.6,0.9-1c0.2,0.4,0.4,0.4,0.5-0.2c0.2-0.1,0.3-0.2,0.4-0.4c0.2-0.1,0.3-0.2,0.4-0.4c0.2-0.1,0.3-0.2,0.4-0.4
				c0.2-0.1,0.3-0.2,0.4-0.4c0.2-0.1,0.3-0.2,0.4-0.4c0.2-0.1,0.3-0.2,0.4-0.4c0.2-0.1,0.3-0.2,0.4-0.4c0.2-0.1,0.3-0.2,0.4-0.4
				c0.2-0.1,0.3-0.2,0.4-0.4c0.2-0.1,0.3-0.2,0.4-0.4c0.6-0.1,0.6-0.3,0.2-0.5c0.5-0.4,0.9-0.8,1.4-1.3c0.1,0,0.2,0.1,0.3,0.2
				c0.3-0.2,0.6-0.5,0.9-0.8c0.2-0.1,0.3-0.2,0.4-0.4c0.2-0.1,0.4-0.2,0.6-0.4c0.3-0.3,0.7-0.5,1-0.8c0.2-0.1,0.3-0.2,0.4-0.4
				c0.1,0,0.3,0,0.4-0.1c-0.2-0.2-0.2-0.3,0-0.5c0.3,0.2,0.6,0.1,0.8-0.2c0.2-0.1,0.3-0.2,0.4-0.4c0.5-0.2,0.8-0.4,1.2-0.8
				c0.2-0.1,0.4-0.2,0.6-0.4c0.2-0.1,0.4-0.2,0.6-0.4c0.2-0.1,0.4-0.2,0.6-0.4c0.2-0.1,0.4-0.2,0.6-0.4c0.4-0.2,0.8-0.4,1.2-0.8
				c0.3-0.1,0.7-0.3,1-0.5c0.3-0.1,0.3-0.3,0-0.4c0.2-0.1,0.3-0.1,0.5,0.1c0.1-0.1,0.3-0.2,0.5-0.3c-0.2-0.3-0.1-0.4,0.3-0.1
				c0.2-0.1,0.4-0.2,0.5-0.4c0.7-0.3,1.5-0.7,2.1-1.2c1.6-0.8,3.2-1.6,4.8-2.3c3-1.2,6.3-2.3,10.1-3.4c-0.2-0.2-0.2-0.3,0.2-0.3
				c0.2,0,0.3,0.1,0.5,0.2c1.6-0.5,3.3-0.8,4.9-1.1C69.1,168.5,69.3,168.3,69.3,168.1z"/>
		</g>
		<g>
			<path class="st1" d="M53.2,173.1"/>
		</g>
		<g>
			<path class="st2" d="M48.3,175.4c-0.1,0-0.3,0-0.4-0.1C48.1,175.2,48.3,175.2,48.3,175.4z"/>
		</g>
		<g>
			<path class="st1" d="M46.2,176.6"/>
		</g>
		<g>
			<path class="st1" d="M231.5,176.4"/>
		</g>
		<g>
			<path class="st3" d="M232.8,177.4c0.1-0.2,0.2-0.2,0.4-0.1C233.1,177.4,233,177.4,232.8,177.4z"/>
		</g>
		<g>
			<path class="st4" d="M43.5,178.1"/>
		</g>
		<g>
			<path class="st5" d="M234.2,178"/>
		</g>
		<g>
			<path class="st1" d="M42.3,178.9"/>
		</g>
		<g>
			<path class="st1" d="M235.3,178.7"/>
		</g>
		<g>
			<path class="st3" d="M41.8,179.3c-0.1,0-0.3,0-0.4-0.1C41.5,179.1,41.7,179.1,41.8,179.3z"/>
		</g>
		<g>
			<path class="st1" d="M41.2,179.7"/>
		</g>
		<g>
			<path class="st1" d="M236.5,179.5"/>
		</g>
		<g>
			<path class="st3" d="M40.6,180.1c-0.1,0-0.3,0-0.4-0.1C40.4,179.9,40.5,179.9,40.6,180.1z"/>
		</g>
		<g>
			<path class="st3" d="M237.1,180.1c0.1-0.2,0.2-0.2,0.4-0.1C237.4,180.1,237.2,180.1,237.1,180.1z"/>
		</g>
		<g>
			<path class="st6" d="M40,180.5"/>
		</g>
		<g>
			<path class="st4" d="M237.7,180.3"/>
		</g>
		<g>
			<path class="st5" d="M38.8,181.2"/>
		</g>
		<g>
			<path class="st5" d="M238.8,181.1"/>
		</g>
		<g>
			<path class="st1" d="M38.5,181.6"/>
		</g>
		<g>
			<path class="st1" d="M239.2,181.4"/>
		</g>
		<g>
			<path class="st5" d="M37.3,182.4"/>
		</g>
		<g>
			<path class="st5" d="M240.4,182.2"/>
		</g>
		<g>
			<path class="st4" d="M36.9,182.8"/>
		</g>
		<g>
			<path class="st1" d="M240.8,182.6"/>
		</g>
		<g>
			<path class="st3" d="M35.9,183.6c-0.1,0-0.3,0-0.4-0.1C35.7,183.3,35.9,183.4,35.9,183.6z"/>
		</g>
		<g>
			<path class="st5" d="M35.4,184"/>
		</g>
		<g>
			<path class="st7" d="M242.1,184c0-0.1,0-0.1,0-0.2C242.6,183.8,242.6,183.9,242.1,184z"/>
		</g>
		<g>
			<path class="st8" d="M35,184.3"/>
		</g>
		<g>
			<path class="st5" d="M242.7,184.2"/>
		</g>
		<g>
			<path class="st5" d="M243.1,184.5"/>
		</g>
		<g>
			<path class="st5" d="M32.3,186.7"/>
		</g>
		<g>
			<path class="st5" d="M245.4,186.5"/>
		</g>
		<g>
			<path class="st5" d="M31.9,187.1"/>
		</g>
		<g>
			<path class="st5" d="M245.8,186.9"/>
		</g>
		<g>
			<path class="st5" d="M31.5,187.4"/>
		</g>
		<g>
			<path class="st5" d="M246.2,187.3"/>
		</g>
		<g>
			<path class="st5" d="M31.1,187.8"/>
		</g>
		<g>
			<path class="st5" d="M246.6,187.6"/>
		</g>
		<g>
			<path class="st5" d="M30.7,188.2"/>
		</g>
		<g>
			<path class="st5" d="M247,188"/>
		</g>
		<g>
			<path class="st5" d="M30.3,188.6"/>
		</g>
		<g>
			<path class="st5" d="M247.4,188.4"/>
		</g>
		<g>
			<path class="st5" d="M29.9,189"/>
		</g>
		<g>
			<path class="st5" d="M247.7,188.8"/>
		</g>
		<g>
			<path class="st5" d="M29.5,189.4"/>
		</g>
		<g>
			<path class="st5" d="M248.1,189.2"/>
		</g>
		<g>
			<path class="st5" d="M29.2,189.8"/>
		</g>
		<g>
			<path class="st5" d="M248.5,189.6"/>
		</g>
		<g>
			<path class="st5" d="M28.8,190.2"/>
		</g>
		<g>
			<path class="st5" d="M248.9,190"/>
		</g>
		<g>
			<path class="st5" d="M28.4,190.5"/>
		</g>
		<g>
			<path class="st5" d="M249.3,190.4"/>
		</g>
		<g>
			<path class="st5" d="M249.7,190.7"/>
		</g>
		<g>
			<path class="st5" d="M26.4,192.9"/>
		</g>
		<g>
			<path class="st9" d="M251.2,192.7"/>
		</g>
		<g>
			<path class="st5" d="M26.1,193.3"/>
		</g>
		<g>
			<path class="st5" d="M251.6,193.1"/>
		</g>
		<g>
			<path class="st5" d="M25.7,193.6"/>
		</g>
		<g>
			<path class="st5" d="M252,193.5"/>
		</g>
		<g>
			<path class="st5" d="M24.5,195.2"/>
		</g>
		<g>
			<path class="st5" d="M253.2,195"/>
		</g>
		<g>
			<path class="st3" d="M24.1,195.8c-0.2-0.1-0.2-0.2-0.1-0.4C24.1,195.5,24.1,195.6,24.1,195.8z"/>
		</g>
		<g>
			<path class="st10" d="M253.6,195.8c0-0.1,0-0.3,0.1-0.4C253.8,195.6,253.8,195.7,253.6,195.8z"/>
		</g>
		<g>
			<path class="st5" d="M23.3,196.7"/>
		</g>
		<g>
			<path class="st11" d="M203.9,198.5c0,0.3,0,0.4-0.2,0.6c0-0.1,0-0.3-0.1-0.4c-0.2,0.2-0.4,0.4-0.7,0.6c0-0.2,0-0.4,0-0.6
				c-0.8-0.1-1.6-0.3-2.3-0.6c1.3-1,2.7-1.5,4.3-1.6c-0.3,0.7-0.7,1.3-1.2,1.8C203.8,198.5,203.9,198.5,203.9,198.5z"/>
		</g>
		<g>
			<path class="st5" d="M254.3,196.6"/>
		</g>
		<g>
			<path class="st10" d="M23,197.3c-0.2-0.1-0.2-0.2-0.1-0.4C22.9,197.1,23,197.2,23,197.3z"/>
		</g>
		<g>
			<path class="st3" d="M254.7,197.3c0-0.1,0-0.3,0.1-0.4C255,197.1,254.9,197.3,254.7,197.3z"/>
		</g>
		<g>
			<path class="st9" d="M22.6,197.9"/>
		</g>
		<g>
			<path class="st3" d="M22.2,198.5c-0.2-0.1-0.2-0.2-0.1-0.4C22.2,198.2,22.2,198.3,22.2,198.5z"/>
		</g>
		<g>
			<path class="st5" d="M255.5,198.1"/>
		</g>
		<g>
			<path class="st12" d="M200.7,198.1c0.8,0.3,1.5,0.4,2.3,0.6c0,0.2,0,0.4,0,0.6c-1.3,1.6-2.5,3.2-3.7,4.8c0.7,0,1.1,0.4,1.3,1.2
				c0.1-0.4,0.3-0.6,0.7-0.6c0.8,0.1,1.2,0.5,1.4,1.2c-1.7-0.3-3.1,0.3-4.1,1.6c0.6,1.1,1.2,2.3,1.8,3.4c0.2,0.6,0,0.9-0.6,1
				c-1.6-0.6-2.7-1.7-3.4-3.2c-2.6,0.2-5.1-0.2-7.6-1.3c0.2-0.4,0.6-0.7,1-0.9c1.1,0,2.2-0.2,3.3-0.4c0.5-0.6,0.5-1.1-0.2-1.6
				c-2.3-0.6-2.2-1.1,0.2-1.5c0.7,0.1,1.4,0.2,2.1,0.3C196.5,201.1,198.3,199.3,200.7,198.1z"/>
		</g>
		<g>
			<path class="st5" d="M21.4,199.5"/>
		</g>
		<g>
			<path class="st4" d="M256.3,199.3"/>
		</g>
		<g>
			<path class="st5" d="M20.6,200.6"/>
		</g>
		<g>
			<path class="st3" d="M257,200.8c0-0.1,0-0.3,0.1-0.4C257.3,200.6,257.2,200.7,257,200.8z"/>
		</g>
		<g>
			<path class="st9" d="M257.4,201.2"/>
		</g>
		<g>
			<path class="st10" d="M19.9,202c-0.2-0.1-0.2-0.2-0.1-0.4C19.8,201.7,19.9,201.8,19.9,202z"/>
		</g>
		<g>
			<path class="st10" d="M257.8,202c0-0.1,0-0.3,0.1-0.4C258.1,201.8,258,201.9,257.8,202z"/>
		</g>
		<g>
			<path class="st9" d="M19.5,202.6"/>
		</g>
		<g>
			<path class="st3" d="M18.7,203.9c-0.2-0.1-0.2-0.2-0.1-0.4C18.7,203.6,18.7,203.8,18.7,203.9z"/>
		</g>
		<g>
			<path class="st13" d="M203.9,198.5c-0.1,0-0.1,0-0.2-0.1c0.5-0.5,0.9-1.1,1.2-1.8c-1.6,0-3,0.5-4.3,1.6c-2.3,1.2-4.2,3-5.4,5.3
				c-0.7-0.1-1.4-0.2-2.1-0.3c-2.4,0.4-2.5,0.8-0.2,1.5c0.7,0.5,0.7,1,0.2,1.6c-1.1,0.2-2.2,0.4-3.3,0.4c-0.4,0.2-0.7,0.5-1,0.9
				c2.4,1.1,4.9,1.5,7.6,1.3c0.7,1.5,1.8,2.6,3.4,3.2c0.6-0.1,0.8-0.4,0.6-1c-0.6-1.1-1.3-2.3-1.8-3.4c1-1.4,2.4-1.9,4.1-1.6
				c-0.1-0.7-0.6-1.1-1.4-1.2c-0.4,0-0.6,0.2-0.7,0.6c-0.1-0.7-0.5-1.1-1.3-1.2c1.2-1.6,2.4-3.3,3.7-4.8c0.3-0.2,0.5-0.3,0.7-0.6
				c0.1,0.1,0.1,0.2,0.1,0.4c-1.1,1.3-2.2,2.6-3.3,3.9c-0.2,0.4-0.4,0.7-0.4,1.2c0.8,0,1.6,0.1,2.3,0.5c0.4,0.3,0.6,0.6,0.8,1.1
				c-0.1,0.2-0.2,0.4-0.4,0.5c-1.3-0.1-2.5,0.2-3.5,1.1c-0.3,0.4-0.3,0.8,0,1.2c0.6,1,1.1,2,1.6,3c-0.2,0.5-0.5,0.8-1,0.9
				c-1.7-0.4-2.9-1.5-3.7-3c-2,0-3.9-0.3-5.8-1c-2.8,0.3-3.2-0.3-1-1.9c1.2-0.2,2.3-0.4,3.5-0.5c0.3-0.6,0.1-0.9-0.6-1.1
				c-0.7-0.1-1.4-0.1-2.1-0.1c0-0.2,0-0.4,0.1-0.6c0.4-0.4,0.8-0.7,1.3-1.1c1.2-0.3,2.5-0.4,3.7-0.3c2.2-3.3,5.1-5.5,8.9-6.7
				c0.4-0.1,0.8-0.1,1.2-0.1C205.2,197,204.8,197.9,203.9,198.5z"/>
		</g>
		<g>
			<path class="st14" d="M199.3,204.1c-0.7,0.3-1.4,0.6-2.2,1c0-0.3,0.1-0.5,0.5-0.7C198.1,204.3,198.7,204.2,199.3,204.1z"/>
		</g>
		<g>
			<path class="st4" d="M17.9,205.3"/>
		</g>
		<g>
			<path class="st4" d="M259.8,205.1"/>
		</g>
		<g>
			<path class="st9" d="M17.5,206"/>
		</g>
		<g>
			<path class="st9" d="M17.1,206.8"/>
		</g>
		<g>
			<path class="st15" d="M157.2,190.5c1.6,1.6,2.8,3.4,3.8,5.4c2.1,2.7,3.9,5.5,5.4,8.5c0.3,1.1,0.6,2.1,1.1,3.1
				c1.4-0.6,2.8-0.7,4.3-0.3c0.3,0.2,0.5,0.4,0.8,0.6c1.2-0.1,1.9,0.5,2.3,1.6c-2.1,1.1-4.3,1.9-6.6,2.5c-2.3,1.4-4.7,1.8-7.4,1.4
				c-1.3,0.7-2.7,0.8-4.1,0.4c-1.2-1.8-1-3.4,0.6-4.8c1.2-0.1,2.3-0.1,3.5-0.1c-1.3-4-2.5-8.1-3.8-12.2c-0.3-1.3-0.5-2.6-0.7-4
				C156.6,191.8,156.8,191.1,157.2,190.5z"/>
		</g>
		<g>
			<path class="st16" d="M159.6,195.6c0.6,0,1.1,0.2,1.5,0.8c1.2,1.9,2.5,3.8,3.9,5.6c0.8,2,1.5,3.9,2.2,5.9
				c1.3-0.3,2.6-0.4,3.9-0.4c1.1,0.4,2.1,1,3.1,1.6c-0.2,0.3-0.6,0.5-1,0.7c-2.5,0.9-4.9,1.9-7.4,2.9c-1.6,0.1-3.2,0.1-4.8,0.2
				c-1.3,0.6-2.7,0.6-4,0.1c-0.5-1.3-0.3-2.6,0.5-3.7c1.4-0.2,2.7-0.2,4.1,0c-1-3.6-2.2-7.1-3.4-10.7c-0.1-0.4-0.1-0.8-0.1-1.2
				C158.3,196.7,158.8,196.1,159.6,195.6z"/>
		</g>
		<g>
			<path class="st17" d="M159.6,195.6c-0.7,0.5-1.3,1.1-1.6,1.9c-0.2-0.1-0.4-0.4-0.5-0.8c-0.2-1-0.4-2.1-0.6-3.1
				c-0.2-0.8-0.1-1.6,0.2-2.3c0.4-0.2,0.7-0.1,1,0.4c0.7,1.2,1.5,2.4,2.2,3.6C160,195.3,159.8,195.4,159.6,195.6z"/>
		</g>
		<g>
			<path class="st18" d="M170.4,208.6c0.4,0,0.4,0.2,0.2,0.4C170.5,208.9,170.4,208.7,170.4,208.6z"/>
		</g>
		<g>
			<path class="st19" d="M16,209.1"/>
		</g>
		<g>
			<path class="st20" d="M172,208.8c0.3,0.1,0.4,0.3,0.4,0.6C171.8,209.4,171.7,209.2,172,208.8z"/>
		</g>
		<g>
			<path class="st9" d="M261.7,209"/>
		</g>
		<g>
			<path class="st21" d="M231.9,210.7c0.3,0,0.5,0.1,0.6,0.5c-0.3,0.5-0.6,1-0.9,1.5c-1.5,1.6-2.9,3.2-4.4,4.8
				c-0.8,0.6-1.7,1.1-2.6,1.6c-0.1,0.2-0.1,0.3,0.1,0.5c0.7,0,1.3,0.2,1.8,0.5c0.4,0.5,0.3,0.9-0.3,1.3c-0.9,0.3-1.9,0.5-2.9,0.5
				c-1-0.1-2.1-0.2-3.1-0.1c-1.6,1.2-3.5,1.6-5.4,1c-0.3-0.2-0.3-0.4,0-0.6c0.7-0.3,1.5-0.7,2.1-1.2c0.7-0.4,0.7-0.9,0.2-1.5
				c-0.7-0.5-1.5-0.9-2.3-1.3c0.9-0.8,1.9-1.1,3.1-0.9c-0.1-0.5-0.3-0.8-0.8-1.1c-0.9-0.3-1.7-0.7-2.4-1.3c-0.1-0.1-0.1-0.3,0-0.4
				c1.1-0.7,2.2-0.8,3.4-0.3c1.2,0.5,2.3,1.1,3.4,1.8c2.4-1.7,5-3.2,7.7-4.6C230.1,211.3,231,211,231.9,210.7z"/>
		</g>
		<g>
			<path class="st22" d="M228.4,212.6c0.5,0.2,1,0.3,1.6,0.5c0.1,0.1,0.2,0.3,0.2,0.5c-1,1.2-2.1,2.4-3.3,3.6
				c-1.2,0.7-2.3,1.5-3.3,2.3c0.7,0.3,1.4,0.5,2.1,0.6c0.7,0.3,0.7,0.6,0,1c-2.7,0.6-5.2,0.1-7.6-1.3c-0.7-0.7-1.5-1.4-2.3-1.9
				c0.3-0.1,0.6-0.1,0.9-0.2c0.7,0.1,1.3,0.2,1.9,0.4c0.9-0.1,0.9-0.3,0-0.6c-0.5-1.2-1.4-1.9-2.6-2.3c-0.2-0.2-0.2-0.5-0.2-0.8
				c2,0.1,3.7,0.8,5.2,2c-0.2,0.2-0.2,0.5,0,0.7c1.4-1,2.8-2,4.3-3C226.2,213.5,227.3,213,228.4,212.6z"/>
		</g>
		<g>
			<path class="st23" d="M230.1,213.6c0-0.2,0-0.4-0.2-0.5c-0.5-0.2-1-0.3-1.6-0.5c1.1-0.7,2.3-1.3,3.6-1.6
				C231.6,212.1,231,212.9,230.1,213.6z"/>
		</g>
		<g>
			<path class="st24" d="M218.1,220.4c0.6,0.2,1.2,0.5,1.7,0.8c-1.2,1.2-2.5,1.6-4.2,1.2c-0.1-0.2-0.1-0.3,0.1-0.4
				C216.6,221.5,217.4,221,218.1,220.4z"/>
		</g>
		<g>
			<path class="st25" d="M178.8,225.8c0-0.1-0.1-0.2-0.2-0.3c0.5-0.1,1-0.3,1.6-0.4c-1-0.3-2-0.7-2.9-1.2c-0.4-0.2-0.9-0.2-1.4-0.2
				c0.6,1.2,1.4,2.1,2.5,2.8c2,1,3.3,2.4,4.2,4.5c0.2,0.5,0.3,1,0.3,1.6c-1.6-0.1-3.1-0.2-4.7-0.3c-0.3,0.3-0.5,0.6-0.5,1.1
				c-0.1,0.6-0.1,1.3-0.1,1.9c1.8-0.3,3.6-0.4,5.4-0.3c0.9,0.3,1.7,0.6,2.5,1c1.6,0.4,3.1,0.3,4.7-0.3c0.4,0.2,0.9,0.2,1.4,0.2
				c0-0.6-0.1-1.1-0.4-1.6c0.2-0.2,0.3-0.2,0.5,0c1,1.7,0.5,2.3-1.4,1.9c-1.6,0.6-3.3,0.7-4.9,0.3c-1.2-0.6-2.4-1-3.8-1.1
				c-1.4,0.2-2.9,0.4-4.4,0.4c-0.2-0.8-0.2-1.5-0.1-2.3c0-1.3,0.7-1.9,1.9-1.9c1.1,0.2,2.1,0.2,3.2,0c-0.3-0.7-0.7-1.4-1.1-2.1
				c-1.5-1.4-3.1-2.8-4.7-4.1c-0.3-0.5-0.7-1.1-1-1.6c0.2-0.2,0.4-0.4,0.6-0.5c2.6,0.8,5.2,1.8,7.6,3.2c1.6,1,2.9,2.4,3.9,4
				c3.3-1.4,6.8-2.4,10.5-2.9c0.3,0,0.5,0.1,0.8,0.1c0.1,0.1,0.2,0.2,0.2,0.4c-0.4,0.7-1,1.3-1.7,1.7c-2.1,1.1-4.3,2.2-6.4,3.2
				c-0.1,0-0.3-0.1-0.4-0.1c1.3-1,2.8-1.8,4.5-2.3c0.3-0.2,0.4-0.4,0.2-0.7c-1-0.4-2-0.6-3.1-0.5c-1.6,0.5-3.2,1.1-4.7,1.8
				c-0.7-1.5-1.7-2.8-3-3.8c-1.1-0.6-2.2-1.2-3.3-1.7C180.2,225.6,179.5,225.6,178.8,225.8z"/>
		</g>
		<g>
			<path class="st26" d="M196.6,227.9c0.7-0.1,1.3,0,1.9,0.2c-0.2,0.3-0.5,0.6-0.8,0.9c-0.7,0.4-1.4,0.8-2,1.3
				c0-0.2-0.1-0.4-0.3-0.6c-0.7-0.3-1.4-0.6-2.1-0.8C194.4,228.6,195.5,228.2,196.6,227.9z"/>
		</g>
		<g>
			<path class="st27" d="M178.8,225.8c-0.3,0.2-0.4,0.4-0.4,0.8c-1.1-0.7-2-1.6-2.5-2.8c0.5,0,0.9,0,1.4,0.2c1,0.4,1.9,0.8,2.9,1.2
				c-0.5,0.1-1,0.3-1.6,0.4C178.7,225.6,178.7,225.7,178.8,225.8z"/>
		</g>
		<g>
			<path class="st28" d="M191.2,234.3c-0.7-0.1-1.3-0.2-1.9-0.5c0.3-0.3,0.6-0.6,0.9-0.9c0.2,0.2,0.3,0.5,0.3,0.8
				C190.9,233.7,191.1,233.9,191.2,234.3z"/>
		</g>
		<g>
			<path class="st29" d="M117.5,222.9c1.4,0.4,2.5,1.1,3.4,2.3c0.7,1.1,1.4,2.2,2,3.3c0.5-0.6,1.1-1.2,1.7-1.6
				c1.3-0.2,2.7-0.4,4-0.7c0.9,0.2,1.1,0.6,0.6,1.4c-0.3,0.3-0.6,0.6-0.9,0.9c-1.4,0.5-2.6,1.4-3.4,2.6c-0.1,0.3-0.1,0.5-0.1,0.8
				c0.2,0,0.4,0,0.6,0c0,0.4,0.2,0.8,0.5,1.2c0.4,1,0,1.7-1,1.9c-3-0.5-6-1.1-8.8-1.9c0.7-1.2,1.8-2,3.3-2.1c0.1-2.1-0.5-4-1.7-5.6
				C117.4,224.5,117.3,223.7,117.5,222.9z"/>
		</g>
		<g>
			<path class="st22" d="M120.4,225.4c0.8,1,1.4,2.1,1.9,3.3c0,0.6,0,1.2-0.2,1.7c0.3,0.2,0.5,0.2,0.7-0.2c0.2-0.5,0.3-1,0.5-1.6
				c1.2-1.7,2.7-2,4.5-0.8c-0.8,0.5-1.6,1.1-2.4,1.7c-0.6,0.7-0.9,1.5-1.1,2.3c1.2,0.3,1.6,1.1,1.3,2.3c-2.9,0-5.6-0.6-8.2-1.7
				c0.1-0.3,0.2-0.5,0.4-0.8c0.6-0.3,1.3-0.6,1.9-0.8c0.2-1,0.3-1.9,0.1-2.9c-0.5-0.8-0.8-1.7-1.1-2.5
				C119.2,225.2,119.8,225.1,120.4,225.4z"/>
		</g>
		<g>
			<path class="st30" d="M118.1,232.2c0.4,0,0.4,0.2,0.2,0.4C118.1,232.5,118.1,232.4,118.1,232.2z"/>
		</g>
		<g>
			<path class="st31" d="M122.4,228.7c0.3,0,0.6,0,1,0c-0.1,0.5-0.3,1-0.5,1.6c-0.2,0.4-0.4,0.4-0.7,0.2
				C122.3,229.9,122.4,229.3,122.4,228.7z"/>
		</g>
		<g>
			<path class="st32" d="M120.4,225.4c-0.7-0.3-1.2-0.3-1.7,0.2c-0.1,0-0.2,0.1-0.3,0.2c-0.4-0.8-0.6-1.6-0.7-2.5
				C119,223.7,119.9,224.4,120.4,225.4z"/>
		</g>
		<g>
			<path class="st33" d="M150.1,226c2-0.2,3.6,0.5,4.7,2.1c0.8,0,1.6,0.1,2.3,0.3c0.6,1.2,0.4,2.3-0.5,3.2c-2-0.8-3.7-0.4-5.2,1.2
				c-0.7,2-1.5,4-2.1,6c-0.6,1.1-1.3,2.1-2.3,2.9c-0.4-0.6-0.6-1.2-0.7-1.9c0.3-2.6,0.6-5.2,1.1-7.8c0.3-0.9,0.7-1.7,1.3-2.4
				c-0.2-0.3-0.6-0.5-1-0.6c-1.1-0.1-2.1-0.3-3.1-0.6C146.1,227,148,226.2,150.1,226z"/>
		</g>
		<g>
			<path class="st16" d="M147.6,238c-0.2-0.2-0.3-0.3-0.6-0.4c0.1-2,0.4-4,0.9-6c0.4-1,1-1.7,1.8-2.2c-1-0.4-2-0.8-3.1-1
				c-0.3-0.7-0.2-1.1,0.6-1.3c0.1,0.2,0.3,0.4,0.4,0.6c0.1-0.3,0.1-0.5,0.2-0.8c1.8-0.7,3.6-0.8,5.4-0.1c0.6,0.5,1,1,1.4,1.6
				c0.8,0.1,1.6,0.3,2.4,0.4c0,0.7-0.1,1.4-0.1,2.1c-0.8-0.1-1.5-0.2-2.2-0.4c-1.1,0.3-2.1,0.7-3,1.3c-0.5,0.5-0.8,1-1.1,1.6
				c-0.4,1.5-1,2.9-1.6,4.3C148.5,238,148,238.1,147.6,238z"/>
		</g>
		<g>
			<path class="st34" d="M147,237.6c0.2,0.1,0.4,0.2,0.6,0.4c0.4,0.2,0.9,0.3,1.4,0.2c-0.4,1.2-1.1,2.2-2,3.1
				C146.5,240.1,146.5,238.8,147,237.6z"/>
		</g>
		<g>
			<path class="st35" d="M28.4,258.4c12.1,0,24.3,0,36.4-0.1c-12.2,0-24.4-0.1-36.5-0.3c-0.1,0-0.1,0.1-0.1,0.2
				c-0.3-0.3-0.3-0.6,0-0.9c73.8-0.1,147.5-0.1,221.3,0c0.3,2.9,0.3,5.9,0,8.8c-9.1-0.9-18.2-0.8-27.3,0.5c-1.3,0.2-2.6,0.5-3.9,0.8
				c-0.5,0.7-0.4,0.9,0.6,0.9c8-1.5,16.1-2,24.2-1.5c2.2,0.1,4.4,0.2,6.6,0.3c0,10.1,0,20.2,0,30.2c-4.2-1-8.5-1.7-12.8-2.2
				c-3.8-0.2-7.6-0.1-11.4,0.2c-0.5,0.2-0.7,0.5-0.5,1.1c3.8-0.2,7.6-0.2,11.5-0.1c4.4,0.5,8.8,1.3,13.2,2.2c0,11.3,0,22.6,0,33.9
				c-6.7-1-13.3-1.3-20.1-1c-9.6-0.4-19.2-1.3-28.8-2.6c-3.3-0.1-6.6-0.1-9.9,0c-0.8,0.1-0.9,0.4-0.4,1c3.4-0.2,6.8-0.1,10.3,0.2
				c13.5,2,27.1,2.9,40.7,2.7c2.7,0.2,5.4,0.5,8.1,0.9c0,6.5,0,13-0.1,19.6c-1.8,19.6-10.8,34.6-27.2,45.1c-9.1,5.4-19,8.3-29.6,8.7
				c-36.2,0.1-72.5,0.1-108.7,0c-14-0.8-26.4-5.7-37-14.7c-0.4-0.3-0.5-0.6-0.2-1c9.2-2.7,18.6-3.5,28.1-2.5c15.5,0,31-1.2,46.3-3.7
				c0.9,0,1.2-0.4,0.8-1.2c-12.6,1.8-25.3,3.1-38,3.7c-3.1,0.1-6.2,0.1-9.3,0c-9.9-1.1-19.6-0.2-29.1,2.8c-0.2,0-0.4-0.1-0.6-0.1
				c-3.4-3.4-6.4-7.2-8.9-11.2c0.1-0.2,0.2-0.4,0.4-0.6c18.1-11.1,36-22.5,53.6-34.4c0.6-0.7,1.3-1.3,2-1.8
				c7.3-4.9,14-10.7,20.3-17.1c1.4-1.6,2.7-3.2,4-4.9c6.5-1.3,13-1.7,19.6-1.2c4.5,0.6,9,1.1,13.6,1.5c2.5,0,4.9-0.3,7.4-0.9
				c0.1-0.1,0.2-0.2,0.2-0.3c-0.2-0.3-0.5-0.5-0.9-0.6c-3,0.7-6.1,0.9-9.2,0.7c-7.8-1.5-15.7-1.9-23.6-1.4c-1.9,0.2-3.7,0.5-5.5,0.9
				c-0.1-0.1-0.2-0.2-0.3-0.4c1.8-2.6,3-5.5,3.6-8.7c0.5-4.5-1-8.2-4.6-11.1c-2.9-2.1-6.1-3.8-9.5-5c-4.9-1.6-9.7-3.3-14.5-5
				c-2.2-0.8-4.1-2.1-5.7-3.8c-1.4-2-1.4-4-0.2-6c2-2.4,4.4-4.3,7.3-5.7c4.7-2.3,9.6-4.4,14.5-6.2c8.4-2.9,16.9-5.6,25.4-8.1
				c-4.1-0.1-8.1-0.1-12.2,0c-11.7,3-22.9,7.1-33.7,12.4c-2.9,1.6-5.5,3.5-7.8,5.9c-1.2,1.4-2,3-2.5,4.8c-0.1,1-0.1,2.1,0.2,3.1
				c0.6,1.1,1.2,2.2,2,3.2c2,1.4,4.2,2.6,6.4,3.7c5.7,2,11.2,4.3,16.7,6.8c8,5,8.9,11.1,2.8,18.3c-4.2,4.3-8.9,7.8-14,10.8
				c-11.6,6.6-23.6,12.6-35.8,18c-9,4-18.1,7.9-27.2,11.7c-0.4-0.2-0.5-0.6-0.4-1c11.7-5.1,23.3-10.2,35-15.4
				c9.5-4.4,18.8-9.2,27.9-14.3c4.7-2.7,9-5.9,12.9-9.6c1-1,1.9-2.1,2.7-3.3c2.8-4.5,2.4-8.6-1.4-12.4c-2.7-1.8-5.7-3.3-8.8-4.6
				c-3.9-1.4-7.8-2.9-11.6-4.5c-2.4-1.1-4.6-2.5-6.5-4.4c-2.3-2.8-2.6-5.8-1-9.1c1.1-1.9,2.5-3.5,4.2-4.9c3.5-2.6,7.2-4.8,11.2-6.6
				c8-3.4,16.1-6.3,24.4-8.7c-0.1-0.2-0.3-0.3-0.6-0.3c-16.4,0.2-32.8,0.3-49.2,0.3c1.3,1.7,1.3,3.3-0.2,4.8
				c-4.2,2.2-8.5,4.4-12.8,6.4c-2.9,1.4-5.4,3.2-7.7,5.5c-0.5,0.7-0.9,1.5-1.2,2.3c-0.1,1.1,0.2,1.9,1.1,2.6c2.9,1.6,5.7,3.3,8.5,5
				c5.6,4.1,5.7,8.4,0.3,12.9c-5.5,3.9-11.6,6.9-18.5,9c-2.7,0.8-5.4,1.5-8.1,2.2c-0.8-0.1-1-0.4-0.4-1.1c7.6-1.7,14.8-4.3,21.7-7.9
				c2.5-1.4,4.7-3.1,6.8-5.1c2.2-3.3,1.7-6-1.3-8.1c-1.2-0.9-2.5-1.8-3.8-2.6c-2-1-3.9-2.1-5.8-3.3c-1.4-1.1-1.9-2.5-1.5-4.2
				c0.8-2.4,2.3-4.1,4.5-5c0.4-0.6,1-1.1,1.6-1.5c4.9-2.7,10-5.2,15.1-7.6c0.8-0.5,1.2-1.2,1.4-2.1c-0.1-1.2-0.6-1.9-1.7-2.3
				C53,258.6,40.7,258.5,28.4,258.4z"/>
		</g>
		<g>
			<path class="st36" d="M28.4,258.4c-0.1,0-0.2-0.1-0.2-0.2c0-0.1,0-0.1,0.1-0.2c12.2,0.2,24.3,0.3,36.5,0.3
				C52.7,258.4,40.5,258.4,28.4,258.4z"/>
		</g>
		<g>
			<path class="st37" d="M153.4,263.4c0.2,0.1,0.4,0.2,0.6,0.4c2.2,4,4.4,8.1,6.6,12.1c-0.2,0.7-0.6,1.4-1.2,1.9c-2,0.1-4,0.1-6,0.1
				C153.4,273.1,153.4,268.3,153.4,263.4z"/>
		</g>
		<g>
			<path class="st37" d="M151.8,265.5c0.4,4.1,0.5,8.2,0.4,12.4c-2.5,0-4.9,0-7.4,0c0-0.2,0-0.4,0.1-0.6
				C147.2,273.4,149.5,269.5,151.8,265.5z"/>
		</g>
		<g>
			<path class="st38" d="M186.5,269.8c3.7,0.1,7.4,0.1,11,0.2c0,0.2,0,0.4,0,0.6c-3.9,0-7.9,0-11.8,0c0-0.2,0-0.4,0-0.6
				C186,270,186.3,270,186.5,269.8z"/>
		</g>
		<g>
			<path class="st39" d="M123.1,272.1c4.5-0.2,9,0.2,13.4,1.3c0.5,0.2,0.5,0.4,0,0.5c-3.2-0.7-6.4-1-9.6-1.2
				c-3.5,0.1-7.1,0.5-10.6,1.1c-2.5,0.1-4.9,0.1-7.4-0.1c0-0.2,0-0.4,0-0.6c2.2,0.2,4.4,0.2,6.6,0.1
				C118.1,272.9,120.7,272.5,123.1,272.1z"/>
		</g>
		<g>
			<path class="st37" d="M163.1,275.4c3.3,0,6.6,0,9.9,0c0,0.3,0,0.7-0.1,1c-1.3,2.5-2.5,5-3.6,7.6c2,0.1,4-0.1,6-0.6
				c0,0.2,0,0.4,0,0.6c-1.4,0.5-2.9,0.8-4.5,0.8c-2.8-0.4-5.5-0.8-8.2-1.4c-2.4,0.3-4.8,0.7-7.2,1.2c-2.5-0.5-5.1-0.9-7.7-1
				c-2,0-4,0.3-6,0.8c-0.2,0-0.5-0.1-0.7-0.2c-0.9-1.5-1.6-3.2-2-4.8c6.9,0,13.8,0,20.7-0.1c0.2-0.1,0.5-0.2,0.7-0.3
				C161.3,277.7,162.1,276.5,163.1,275.4z"/>
		</g>
		<g>
			<path class="st40" d="M137.7,283.4c0.3,0,0.5,0,0.8,0c0,0.2,0,0.4,0,0.6c-1.7,0.4-3.4,0.7-5.1,0.8c-0.6,0-1-0.1-1.5-0.5
				C133.9,284.2,135.8,283.9,137.7,283.4z"/>
		</g>
		<g>
			<path class="st41" d="M176.4,283.9c0.3,0.1,0.4,0.3,0.3,0.6C176.5,284.4,176.4,284.2,176.4,283.9z"/>
		</g>
		<g>
			<path class="st42" d="M187.5,284.1c0.5-0.1,1,0,1.6,0.2c0,0.1-0.1,0.2-0.2,0.3c-3.3,0.5-6.6,0.6-9.9,0.3c0-0.2,0-0.4,0-0.6
				C181.8,284.6,184.7,284.6,187.5,284.1z"/>
		</g>
		<g>
			<path class="st43" d="M143.1,285.5c1.1-0.1,2.2,0,3.3,0.3c-0.4,0.3-0.9,0.3-1.4,0.1c-1.4,0.3-2.8,0.4-4.3,0.3
				c-0.1-0.1-0.1-0.1-0.2-0.2C141.5,285.9,142.3,285.7,143.1,285.5z"/>
		</g>
		<g>
			<path class="st42" d="M161.5,285.7c0.6,0.1,0.7,0.3,0.2,0.7c-2.4,0.7-4.9,0.8-7.4,0.2c-0.2-0.1-0.4-0.2-0.6-0.4
				c1.1,0,2.3,0.1,3.4,0.3C158.7,286.4,160.1,286.2,161.5,285.7z"/>
		</g>
		<g>
			<path class="st39" d="M131.1,287.8c2.2,0,4.4,0,6.6,0.1c3.2,0.4,6.3,0.9,9.5,1.4c1.6,0.1,3.2,0.1,4.8,0.1c0,0.2,0,0.4,0,0.6
				c-1.9,0-3.7,0-5.6-0.1c-3.9-0.7-7.8-1.2-11.8-1.5c-2.5,0.1-4.9,0.4-7.4,0.8c-0.2-0.1-0.4-0.1-0.6-0.2c0-0.1,0.1-0.2,0.2-0.3
				C128.3,288.3,129.7,288.1,131.1,287.8z"/>
		</g>
		<g>
			<path class="st44" d="M172.6,288.4c1.9,0,3.8,0.1,5.6,0.3c2.4,0.4,4.8,0.8,7.3,1.1c1.3-0.1,2.5-0.3,3.8-0.6
				c0.8,0.2,0.8,0.4,0,0.7c-1.2,0.4-2.4,0.5-3.6,0.5c-2.7-0.2-5.4-0.6-8-1.1c-4.8-0.3-9.5,0.2-14.1,1.5c0.1-0.6,0.4-0.8,1-0.9
				C167.1,289.2,169.8,288.7,172.6,288.4z"/>
		</g>
		<g>
			<path class="st37" d="M171.4,320.8c0.3,0.2,0.5,0.3,0.7,0.6c4.1,7.3,8.1,14.6,12.2,21.9c0.1,0.5,0.1,0.9-0.2,1.4
				c-0.6,0.7-1.1,1.5-1.6,2.2c-3.7,0.2-7.5,0.1-11.2-0.1c0-0.1-0.1-0.2-0.2-0.3c0.2-8.2,0.2-16.4,0-24.6
				C171,321.4,171.1,321.1,171.4,320.8z"/>
		</g>
		<g>
			<path class="st37" d="M169.1,323.9c0.1,0,0.2,0.1,0.3,0.2c0.1,7.6,0.1,15.2,0.1,22.9c-4.6,0-9.2,0-13.8,0c0-0.6,0.2-1.1,0.5-1.6
				C160.5,338.2,164.8,331.1,169.1,323.9z"/>
		</g>
		<g>
			<path class="st37" d="M188.6,342.9c6-0.1,12,0,17.9,0.2c0.1,0.3,0.1,0.5,0,0.8c-2.3,4.6-4.6,9.1-6.7,13.8
				c1.1,0.2,2.2,0.2,3.3,0.1c2-0.2,3.9-0.6,5.8-1.1c0,0.3,0,0.5-0.2,0.7c-2.2,1-4.5,1.5-6.9,1.5c-1.7-0.1-3.4-0.2-5.1-0.5
				c-2-0.6-4-1.2-6-1.6c-2.4-0.1-4.8-0.1-7.2,0c-2.3,0.4-4.7,0.8-7,1.4c-1.6,0.1-3.1,0.1-4.7,0c-2.4-0.4-4.8-0.9-7.2-1.4
				c-2.5-0.3-5-0.3-7.6,0c-2.7,0.4-5.4,0.8-8.1,1.2c-1.5-2.7-2.8-5.5-4.1-8.3c0.1-0.2,0.2-0.3,0.4-0.4c12.8-0.1,25.6-0.1,38.4-0.2
				C185.5,347,187.1,344.9,188.6,342.9z"/>
		</g>
		<g>
			<path class="st39" d="M144.7,356.8c0.4-0.1,0.7,0.1,0.8,0.5c-0.4,0.4-0.9,0.7-1.6,0.8c-7,0.8-14.1,0.8-21.1,0.1
				c0-0.3,0-0.5,0-0.8c6.8,0.7,13.6,0.7,20.3-0.1C143.7,357.2,144.2,357,144.7,356.8z"/>
		</g>
		<g>
			<path class="st39" d="M154.5,358.9c1.4,0,2.8,0,4.3,0.1c0.4,0.2,0.5,0.4,0.2,0.8c-3.4,0.1-6.7,0.4-10.1,0.9
				c-0.6,0-1.3-0.1-1.9-0.1c-0.3-0.2-0.4-0.5-0.3-0.9C149.4,360,152,359.7,154.5,358.9z"/>
		</g>
		<g>
			<path class="st45" d="M183.2,360.1c0.5-0.1,0.8,0.1,1,0.5c-0.2,0.3-0.6,0.5-1,0.6c-4.2,1.2-8.4,1.3-12.6,0.2
				c-0.7-0.1-1.2-0.4-1.4-1.1c2.3,0.5,4.6,0.8,6.9,1C178.6,361.1,180.9,360.8,183.2,360.1z"/>
		</g>
		<g>
			<path class="st46" d="M139.4,363.2c3,0,6.1,0.2,9.1,0.5c4.5,0.7,9,1.3,13.6,1.9c2.2,0.1,4.4,0.1,6.6,0.2c0.4,0.3,0.4,0.6,0,0.8
				c-2.4,0.4-4.8,0.4-7.2,0c-4.5-0.6-8.9-1.2-13.4-1.9c-4.4-0.4-8.8-0.4-13.2,0c-2.5,0.4-4.9,0.8-7.4,1.3c-0.1-0.5,0.1-0.8,0.6-0.9
				C131.9,364,135.6,363.4,139.4,363.2z"/>
		</g>
		<g>
			<path class="st46" d="M202.6,364c4-0.1,8,0.1,12,0.5c3.7,0.8,7.5,1.4,11.2,1.9c0.3,0.3,0.3,0.5,0,0.8c-0.8,0.1-1.6,0.1-2.3,0
				c-3.3-0.6-6.6-1.2-9.9-1.7c-8.9-1-17.7-0.1-26.3,2.6c-0.5-0.2-0.6-0.5-0.3-1C192.2,365.5,197.3,364.5,202.6,364z"/>
		</g>
		<g>
			<path class="st9" d="M16,384.3"/>
		</g>
		<g>
			<path class="st9" d="M261.7,384.3"/>
		</g>
		<g>
			<path class="st9" d="M16.8,385.9"/>
		</g>
		<g>
			<path class="st9" d="M260.9,385.9"/>
		</g>
		<g>
			<path class="st9" d="M17.1,386.7"/>
		</g>
		<g>
			<path class="st9" d="M17.5,387.4"/>
		</g>
		<g>
			<path class="st4" d="M259.8,388.2"/>
		</g>
		<g>
			<path class="st8" d="M18.3,389"/>
		</g>
		<g>
			<path class="st9" d="M258.6,390.1"/>
		</g>
		<g>
			<path class="st9" d="M19.5,390.9"/>
		</g>
		<g>
			<path class="st4" d="M258.2,390.9"/>
		</g>
		<g>
			<path class="st3" d="M19.9,391.5c0,0.1,0,0.3-0.1,0.4C19.6,391.7,19.7,391.6,19.9,391.5z"/>
		</g>
		<g>
			<path class="st9" d="M20.2,392.1"/>
		</g>
		<g>
			<path class="st19" d="M257.4,392.1"/>
		</g>
		<g>
			<path class="st5" d="M20.6,392.9"/>
		</g>
		<g>
			<path class="st5" d="M257,392.9"/>
		</g>
		<g>
			<path class="st5" d="M256.3,394"/>
		</g>
		<g>
			<path class="st5" d="M22.2,395.2"/>
		</g>
		<g>
			<path class="st5" d="M255.5,395.2"/>
		</g>
		<g>
			<path class="st9" d="M255.1,395.6"/>
		</g>
		<g>
			<path class="st3" d="M23,396.2c0,0.1,0,0.3-0.1,0.4C22.7,396.4,22.8,396.2,23,396.2z"/>
		</g>
		<g>
			<path class="st3" d="M254.7,396.2c0.2,0.1,0.2,0.2,0.1,0.4C254.7,396.4,254.7,396.3,254.7,396.2z"/>
		</g>
		<g>
			<path class="st5" d="M23.3,396.7"/>
		</g>
		<g>
			<path class="st5" d="M254.3,396.7"/>
		</g>
		<g>
			<path class="st5" d="M24.1,397.9"/>
		</g>
		<g>
			<path class="st5" d="M24.5,398.3"/>
		</g>
		<g>
			<path class="st5" d="M253.2,398.3"/>
		</g>
		<g>
			<path class="st9" d="M252.8,398.7"/>
		</g>
		<g>
			<path class="st3" d="M25.7,399.6c0,0.1,0,0.3-0.1,0.4C25.4,399.8,25.5,399.7,25.7,399.6z"/>
		</g>
		<g>
			<path class="st5" d="M26.1,400.2"/>
		</g>
		<g>
			<path class="st5" d="M251.6,400.2"/>
		</g>
		<g>
			<path class="st5" d="M26.4,400.6"/>
		</g>
		<g>
			<path class="st5" d="M251.2,400.6"/>
		</g>
		<g>
			<path class="st9" d="M26.8,401"/>
		</g>
		<g>
			<path class="st47" d="M28.6,403.1c0.1,0,0.1,0,0.2,0c0.1,0,0.2,0.1,0.2,0.2C28.7,403.6,28.6,403.5,28.6,403.1z"/>
		</g>
		<g>
			<path class="st7" d="M248.9,403.1c0.1,0,0.1,0,0.2,0C249,403.6,249,403.6,248.9,403.1z"/>
		</g>
		<g>
			<path class="st5" d="M29.2,403.7"/>
		</g>
		<g>
			<path class="st5" d="M248.5,403.7"/>
		</g>
		<g>
			<path class="st5" d="M29.5,404.1"/>
		</g>
		<g>
			<path class="st5" d="M248.1,404.1"/>
		</g>
		<g>
			<path class="st5" d="M29.9,404.5"/>
		</g>
		<g>
			<path class="st5" d="M247.7,404.5"/>
		</g>
		<g>
			<path class="st5" d="M30.3,404.9"/>
		</g>
		<g>
			<path class="st5" d="M247.4,404.9"/>
		</g>
		<g>
			<path class="st5" d="M30.7,405.3"/>
		</g>
		<g>
			<path class="st5" d="M247,405.3"/>
		</g>
		<g>
			<path class="st5" d="M31.1,405.6"/>
		</g>
		<g>
			<path class="st5" d="M246.6,405.6"/>
		</g>
		<g>
			<path class="st48" d="M31.5,406"/>
		</g>
		<g>
			<path class="st5" d="M246.2,406"/>
		</g>
		<g>
			<path class="st49" d="M245.8,406.2c0.2,0.2,0.2,0.3-0.2,0.4c0-0.1,0-0.1,0-0.2C245.7,406.4,245.8,406.4,245.8,406.2z"/>
		</g>
		<g>
			<path class="st5" d="M31.9,406.4"/>
		</g>
		<g>
			<path class="st50" d="M245.4,406.6c0.1,0,0.1,0,0.2,0c0,0.3-0.1,0.4-0.4,0.4c0-0.1,0-0.1,0-0.2
				C245.4,406.8,245.4,406.7,245.4,406.6z"/>
		</g>
		<g>
			<path class="st4" d="M34.2,408.4"/>
		</g>
		<g>
			<path class="st4" d="M243.5,408.4"/>
		</g>
		<g>
			<path class="st5" d="M34.6,408.7"/>
		</g>
		<g>
			<path class="st48" d="M243.1,408.7"/>
		</g>
		<g>
			<path class="st5" d="M35,409.1"/>
		</g>
		<g>
			<path class="st5" d="M242.7,409.1"/>
		</g>
		<g>
			<path class="st2" d="M35.4,409.3c0.1,0,0.2,0.1,0.2,0.2c0,0.1-0.1,0.2-0.2,0.2C35.1,409.6,35.1,409.4,35.4,409.3z"/>
		</g>
		<g>
			<path class="st3" d="M242.1,409.5c0.1,0,0.3,0,0.4,0.1C242.3,409.8,242.2,409.7,242.1,409.5z"/>
		</g>
		<g>
			<path class="st4" d="M36.5,410.3"/>
		</g>
		<g>
			<path class="st5" d="M36.9,410.7"/>
		</g>
		<g>
			<path class="st5" d="M240.8,410.7"/>
		</g>
		<g>
			<path class="st51" d="M240.4,410.9c0.1,0,0.2,0.1,0.2,0.2c-0.1,0.2-0.3,0.2-0.4,0C240.3,411.1,240.4,411,240.4,410.9z"/>
		</g>
		<g>
			<path class="st8" d="M38.5,411.8"/>
		</g>
		<g>
			<path class="st8" d="M239.2,411.8"/>
		</g>
		<g>
			<path class="st3" d="M238.6,412.2c0.1,0,0.3,0,0.4,0.1C238.8,412.5,238.7,412.4,238.6,412.2z"/>
		</g>
		<g>
			<path class="st1" d="M39.6,412.6"/>
		</g>
		<g>
			<path class="st3" d="M40.2,413c-0.1,0.2-0.2,0.2-0.4,0.1C39.9,413,40.1,413,40.2,413z"/>
		</g>
		<g>
			<path class="st5" d="M237.7,413"/>
		</g>
		<g>
			<path class="st48" d="M41.2,413.8"/>
		</g>
		<g>
			<path class="st8" d="M236.5,413.8"/>
		</g>
		<g>
			<path class="st48" d="M42.3,414.6"/>
		</g>
		<g>
			<path class="st8" d="M235.3,414.6"/>
		</g>
		<g>
			<path class="st1" d="M43.1,414.9"/>
		</g>
		<g>
			<path class="st3" d="M43.7,415.3c-0.1,0.2-0.2,0.2-0.4,0.1C43.4,415.3,43.5,415.3,43.7,415.3z"/>
		</g>
		<g>
			<path class="st48" d="M234.2,415.3"/>
		</g>
		<g>
			<path class="st1" d="M233.4,415.7"/>
		</g>
		<g>
			<path class="st1" d="M45,416.1"/>
		</g>
		<g>
			<path class="st8" d="M46.2,416.9"/>
		</g>
		<g>
			<path class="st4" d="M231.5,416.9"/>
		</g>
		<g>
			<path class="st1" d="M47.8,417.7"/>
		</g>
		<g>
			<path class="st1" d="M229.9,417.7"/>
		</g>
		<g>
			<path class="st1" d="M48.5,418"/>
		</g>
	</g>
	<g>
		<path class="st52" d="M301.6,271.5h-19.5v-94.8h18.1l31.3,48.7h0.8l31.2-48.7h18.2v94.8h-19.6v-58.1h-0.6l-22.2,34.3h-14.8
			l-22.1-33.9h-0.8V271.5z"/>
		<path class="st53" d="M405.4,270.8c-3.4-1.6-6.2-4-8.2-7.1c-2.1-3.1-3.1-6.8-3.1-11c0-5,1.3-9.5,3.9-13.5c2.6-3.9,6.4-7,11.4-9.2
			c5-2.2,10.8-3.3,17.6-3.3h9.2v-1.9c0-3.2-1.1-5.7-3.4-7.6c-2.3-1.9-5.3-2.8-9-2.8c-5.5,0-9.9,2.5-13.2,7.4l-13.5-9.2
			c6.7-9.7,16.2-14.6,28.5-14.6c5.9,0,11.1,1.1,15.7,3.4c4.6,2.3,8.1,5.5,10.6,9.6c2.5,4.1,3.8,8.9,3.8,14.2v46.2h-19.5v-8.3h-0.8
			c-1.5,3.3-4,5.8-7.2,7.5c-3.3,1.8-7.1,2.6-11.4,2.6C412.7,273.3,408.9,272.4,405.4,270.8z M432.4,254.5c2.6-1.8,3.8-4.3,3.8-7.5
			v-4.2h-5.1c-11.3,0-16.9,2.9-16.9,8.6c0,1.9,0.7,3.3,2.2,4.4c1.5,1,3.7,1.5,6.5,1.5C426.6,257.2,429.8,256.3,432.4,254.5z"/>
		<path class="st54" d="M469.4,271.5v-71.7h19.6v13.1h0.6c5-9.8,13.8-14.8,26.3-14.8h0.9v19.1h-1.2c-9.3,0-16.1,1.6-20.3,4.7
			c-4.2,3.1-6.4,7.8-6.4,14v35.5H469.4z"/>
		<path class="st55" d="M545.7,188.1c-2.1,2.1-4.9,3.1-8.5,3.1c-3.5,0-6.3-1-8.3-3.1c-2.1-2.1-3.1-4.9-3.1-8.4c0-3.5,1-6.3,3.1-8.5
			c2.1-2.1,4.8-3.2,8.3-3.2c3.6,0,6.4,1.1,8.5,3.2c2.1,2.1,3.1,5,3.1,8.5C548.9,183.2,547.8,186,545.7,188.1z M547.1,199.8v71.7
			h-19.5v-71.7H547.1z"/>
		<path class="st56" d="M607,218.1h-18.7v28c0,2.7,0.8,4.7,2.3,6.2c1.5,1.5,3.7,2.2,6.4,2.2c2.7,0,5.6-0.4,8.5-1.3v18.3
			c-4.1,1.3-8.5,1.9-13.1,1.9c-7.6,0-13.5-2.1-17.6-6.4c-4.1-4.2-6.2-10.3-6.2-18.2v-30.8h-11v-18.3h11v-20.3h19.6v20.3H607V218.1z"
			/>
		<path class="st57" d="M636.2,188.1c-2.1,2.1-4.9,3.1-8.5,3.1c-3.5,0-6.3-1-8.3-3.1c-2.1-2.1-3.1-4.9-3.1-8.4c0-3.5,1-6.3,3.1-8.5
			c2.1-2.1,4.8-3.2,8.3-3.2c3.6,0,6.4,1.1,8.5,3.2c2.1,2.1,3.1,5,3.1,8.5C639.3,183.2,638.2,186,636.2,188.1z M637.5,199.8v71.7H618
			v-71.7H637.5z"/>
		<path class="st53" d="M653.2,271.5v-71.7h19.6v9.1h0.6c2.1-3.4,4.7-6.1,8.1-8c3.3-1.9,7.1-2.8,11.3-2.8c4.1,0,7.7,1,10.6,2.9
			c3,1.9,5.2,4.7,6.7,8.4h0.8c5.1-7.5,12.4-11.3,21.9-11.3c6.8,0,12.1,2.3,15.9,6.9c3.8,4.6,5.8,11.1,5.8,19.4v47.1H735v-42.7
			c0-4-0.8-7.1-2.5-9.3c-1.7-2.2-4-3.3-7.1-3.3c-3.7,0-6.6,1.2-8.7,3.7c-2.1,2.4-3.1,5.8-3.1,10.2v41.4h-19.5v-42.7
			c0-3.9-0.9-7-2.6-9.2c-1.7-2.2-4.1-3.3-7.1-3.3c-3.7,0-6.5,1.2-8.6,3.7c-2.1,2.4-3.1,5.8-3.1,10.2v41.4H653.2z"/>
		<path class="st54" d="M830.2,242.3h-44.5c1.4,9.4,6.4,14.1,15,14.1c5.9,0,10.4-3.2,13.6-9.5l14.8,10c-2.3,4.7-5.9,8.6-10.7,11.7
			c-4.8,3.1-10.8,4.6-17.9,4.6c-7,0-13.2-1.5-18.5-4.6c-5.3-3-9.4-7.4-12.3-13c-2.9-5.6-4.4-12.1-4.4-19.6c0-7.7,1.4-14.4,4.2-20.1
			c2.8-5.7,6.8-10.2,12-13.3c5.2-3.1,11.1-4.7,17.9-4.7c6.4,0,12.1,1.3,16.9,4c4.9,2.7,8.7,6.4,11.4,11.3s4,10.6,4,17.1
			C831.7,234.3,831.2,238.2,830.2,242.3z M811.7,227.1c0-4-1.1-7.2-3.2-9.5c-2.1-2.3-5.2-3.5-9.1-3.5c-7,0-11.4,4.3-13.2,13H811.7z"
			/>
		<path class="st53" d="M432.1,425.4h-20.1v-75.9H385v-18.9h74v18.9h-26.9V425.4z"/>
		<path class="st54" d="M461.4,425.4v-71.7h19.6v13.1h0.6c5-9.8,13.8-14.8,26.3-14.8h0.9v19.1h-1.2c-9.3,0-16.1,1.6-20.3,4.7
			c-4.2,3.1-6.4,7.8-6.4,14v35.5H461.4z"/>
		<path class="st55" d="M522.9,424.8c-3.4-1.6-6.2-4-8.2-7.1c-2.1-3.1-3.1-6.8-3.1-11c0-5,1.3-9.5,3.9-13.5c2.6-3.9,6.4-7,11.4-9.2
			c5-2.2,10.8-3.3,17.6-3.3h9.2v-1.9c0-3.2-1.1-5.7-3.4-7.6c-2.3-1.9-5.3-2.8-9-2.8c-5.5,0-9.9,2.5-13.2,7.4l-13.5-9.2
			c6.7-9.7,16.2-14.6,28.5-14.6c5.9,0,11.1,1.1,15.7,3.4c4.6,2.3,8.1,5.5,10.6,9.6c2.5,4.1,3.8,8.9,3.8,14.2v46.2h-19.5v-8.3h-0.8
			c-1.5,3.3-4,5.8-7.2,7.5c-3.3,1.8-7.1,2.6-11.4,2.6C530.1,427.2,526.3,426.4,522.9,424.8z M549.8,408.4c2.6-1.8,3.8-4.3,3.8-7.5
			v-4.2h-5.1c-11.3,0-16.9,2.9-16.9,8.6c0,1.9,0.7,3.3,2.2,4.4c1.5,1,3.7,1.5,6.5,1.5C544.1,411.2,547.3,410.3,549.8,408.4z"/>
		<path class="st56" d="M600.5,422.6c-5.3-3.1-9.4-7.4-12.3-13.1c-2.9-5.6-4.3-12.3-4.3-19.9c0-7.6,1.4-14.3,4.3-19.9
			c2.9-5.7,6.9-10,12.3-13.1c5.3-3,11.5-4.6,18.6-4.6c6.3,0,12,1.6,17.1,4.7c5.1,3.1,8.9,7.3,11.4,12.6L632,379.9
			c-3.3-6.3-7.9-9.5-13.6-9.5c-4.5,0-8.1,1.7-10.6,5.2c-2.6,3.5-3.8,8.1-3.8,14c0,5.9,1.3,10.6,3.8,14c2.6,3.4,6.1,5.1,10.6,5.1
			c5.7,0,10.3-3.2,13.6-9.5l15.5,10.5c-2.5,5.3-6.3,9.5-11.4,12.7c-5.1,3.2-10.8,4.7-17.1,4.7C612,427.2,605.8,425.7,600.5,422.6z"
			/>
		<path class="st57" d="M727.5,425.4H703l-17.1-29.8l-8,8.3v21.4h-19.6v-94.8H678V381l24.2-27.3h23.2L700,380.6L727.5,425.4z"/>
	</g>
</g>
</svg>
