<?xml version="1.0" encoding="UTF-8"?>
<!DOCTYPE svg PUBLIC "-//W3C//DTD SVG 1.1//EN" "http://www.w3.org/Graphics/SVG/1.1/DTD/svg11.dtd">
<svg xmlns="http://www.w3.org/2000/svg" version="1.1" width="1328px" height="1328px" style="shape-rendering:geometricPrecision; text-rendering:geometricPrecision; image-rendering:optimizeQuality; fill-rule:evenodd; clip-rule:evenodd" xmlns:xlink="http://www.w3.org/1999/xlink">
<g><path style="opacity:0.999" fill="#fefbfb" d="M 304.5,-0.5 C 543.167,-0.5 781.833,-0.5 1020.5,-0.5C 1020.5,0.5 1020.5,1.5 1020.5,2.5C 1025.33,2.71122 1029.99,2.71122 1034.5,2.5C 1036.37,2.4823 1036.71,2.9823 1035.5,4C 1074.26,12.3627 1109.6,25.5293 1141.5,43.5C 1142.17,44.2674 1143.01,44.9341 1144,45.5C 1145.84,44.1669 1146.34,44.3335 1145.5,46C 1146.53,46.5133 1147.53,47.0133 1148.5,47.5C 1150.64,49.0709 1152.97,50.4043 1155.5,51.5C 1157.2,53.1921 1159.2,54.5254 1161.5,55.5C 1162.17,56.2674 1163.01,56.9341 1164,57.5C 1165.84,56.1669 1166.34,56.3335 1165.5,58C 1166.04,58.7172 1166.71,59.2172 1167.5,59.5C 1168.29,60.4013 1169.29,61.0679 1170.5,61.5C 1171.29,62.4013 1172.29,63.0679 1173.5,63.5C 1175.2,65.1921 1177.2,66.5254 1179.5,67.5C 1179.83,68.5 1180.5,69.1667 1181.5,69.5C 1182.64,71.0878 1183.97,71.4212 1185.5,70.5C 1186.71,71.2739 1186.71,72.1072 1185.5,73C 1186.09,73.4643 1186.76,73.631 1187.5,73.5C 1187.83,74.5 1188.5,75.1667 1189.5,75.5C 1189.78,76.2891 1190.28,76.9558 1191,77.5C 1193.77,76.4489 1195.61,77.4489 1196.5,80.5C 1195.17,80.8333 1195.17,81.1667 1196.5,81.5C 1197.29,82.4013 1198.29,83.0679 1199.5,83.5C 1199.83,84.5 1200.5,85.1667 1201.5,85.5C 1203.1,86.5964 1204.6,87.9297 1206,89.5C 1206.41,89.0426 1206.91,88.7093 1207.5,88.5C 1209.17,90.1667 1210.83,91.8333 1212.5,93.5C 1211.02,94.944 1211.35,95.6106 1213.5,95.5C 1213.83,96.5 1214.5,97.1667 1215.5,97.5C 1215.83,98.5 1216.5,99.1667 1217.5,99.5C 1217.83,100.5 1218.5,101.167 1219.5,101.5C 1219.83,102.5 1220.5,103.167 1221.5,103.5C 1221.83,104.5 1222.5,105.167 1223.5,105.5C 1223.83,106.5 1224.5,107.167 1225.5,107.5C 1225.83,108.5 1226.5,109.167 1227.5,109.5C 1227.83,110.5 1228.5,111.167 1229.5,111.5C 1229.83,112.5 1230.5,113.167 1231.5,113.5C 1231.83,114.5 1232.5,115.167 1233.5,115.5C 1233.83,116.5 1234.5,117.167 1235.5,117.5C 1235.39,119.648 1236.06,119.981 1237.5,118.5C 1238.83,119.833 1240.17,121.167 1241.5,122.5C 1242.73,123.651 1242.73,124.817 1241.5,126C 1242.04,126.717 1242.71,127.217 1243.5,127.5C 1243.83,128.5 1244.5,129.167 1245.5,129.5C 1245.83,130.5 1246.5,131.167 1247.5,131.5C 1249.12,134.455 1251.12,137.122 1253.5,139.5C 1253.93,140.71 1254.6,141.71 1255.5,142.5C 1256.6,144.389 1257.94,146.055 1259.5,147.5C 1259.93,148.71 1260.6,149.71 1261.5,150.5C 1262.6,152.389 1263.94,154.055 1265.5,155.5C 1266.45,157.777 1267.78,159.777 1269.5,161.5C 1270.58,164.004 1271.92,166.337 1273.5,168.5C 1273.93,169.71 1274.6,170.71 1275.5,171.5C 1275.93,172.71 1276.6,173.71 1277.5,174.5C 1277.86,176.485 1278.69,177.151 1280,176.5C 1281.33,181.825 1283.83,186.825 1287.5,191.5C 1290.33,198.484 1293.66,205.151 1297.5,211.5C 1301,220.316 1304.17,228.316 1307,235.5C 1308.67,234.66 1308.83,235.16 1307.5,237C 1308.13,238.892 1309.13,240.559 1310.5,242C 1310.17,242.333 1309.83,242.667 1309.5,243C 1312.51,250.714 1315.51,258.38 1318.5,266C 1317.73,268.904 1318.39,271.57 1320.5,274C 1320.17,274.333 1319.83,274.667 1319.5,275C 1320.58,280.24 1322.25,285.24 1324.5,290C 1324.14,295.696 1325.14,301.196 1327.5,306.5C 1327.5,543.833 1327.5,781.167 1327.5,1018.5C 1325.88,1019.59 1325.05,1021.26 1325,1023.5C 1322.27,1045.57 1316.44,1067.74 1307.5,1090C 1307.83,1090.33 1308.17,1090.67 1308.5,1091C 1304.36,1097.94 1300.7,1106.11 1297.5,1115.5C 1297.12,1118.93 1295.79,1121.6 1293.5,1123.5C 1290.99,1127.18 1288.99,1131.18 1287.5,1135.5C 1285.01,1138.47 1283.01,1141.8 1281.5,1145.5C 1280.33,1146.51 1279.66,1147.85 1279.5,1149.5C 1277.81,1151.2 1276.47,1153.2 1275.5,1155.5C 1274.33,1156.51 1273.66,1157.85 1273.5,1159.5C 1271.67,1161.15 1270.34,1163.15 1269.5,1165.5C 1267.67,1167.15 1266.34,1169.15 1265.5,1171.5C 1264.5,1171.83 1263.83,1172.5 1263.5,1173.5C 1262.6,1174.29 1261.93,1175.29 1261.5,1176.5C 1260.6,1177.29 1259.93,1178.29 1259.5,1179.5C 1258.07,1180.83 1256.73,1182.33 1255.5,1184C 1255.96,1184.41 1256.29,1184.91 1256.5,1185.5C 1255.73,1186.71 1254.89,1186.71 1254,1185.5C 1253.54,1186.09 1253.37,1186.76 1253.5,1187.5C 1252.5,1187.83 1251.83,1188.5 1251.5,1189.5C 1249.91,1190.64 1249.58,1191.97 1250.5,1193.5C 1249.5,1194.5 1248.5,1195.5 1247.5,1196.5C 1246.06,1195.02 1245.39,1195.35 1245.5,1197.5C 1244.5,1197.83 1243.83,1198.5 1243.5,1199.5C 1241.73,1201.77 1239.73,1203.94 1237.5,1206C 1237.96,1206.41 1238.29,1206.91 1238.5,1207.5C 1236.75,1209.59 1234.75,1211.26 1232.5,1212.5C 1232.17,1211.17 1231.83,1211.17 1231.5,1212.5C 1230.6,1213.29 1229.93,1214.29 1229.5,1215.5C 1228.5,1215.83 1227.83,1216.5 1227.5,1217.5C 1226.5,1217.83 1225.83,1218.5 1225.5,1219.5C 1224.5,1219.83 1223.83,1220.5 1223.5,1221.5C 1222.5,1221.83 1221.83,1222.5 1221.5,1223.5C 1220.5,1223.83 1219.83,1224.5 1219.5,1225.5C 1218.5,1225.83 1217.83,1226.5 1217.5,1227.5C 1216.51,1227.33 1215.84,1227.66 1215.5,1228.5C 1214.83,1228.5 1214.5,1228.83 1214.5,1229.5C 1213.83,1229.5 1213.5,1229.83 1213.5,1230.5C 1212.83,1230.5 1212.5,1230.83 1212.5,1231.5C 1211.17,1231.83 1211.17,1232.17 1212.5,1232.5C 1209.51,1234.08 1206.51,1236.41 1203.5,1239.5C 1202.5,1239.83 1201.83,1240.5 1201.5,1241.5C 1200.5,1241.83 1199.83,1242.5 1199.5,1243.5C 1198.29,1243.93 1197.29,1244.6 1196.5,1245.5C 1194.14,1247.53 1191.81,1249.53 1189.5,1251.5C 1188.51,1251.33 1187.84,1251.66 1187.5,1252.5C 1186.83,1252.5 1186.5,1252.83 1186.5,1253.5C 1184.61,1254.6 1182.94,1255.94 1181.5,1257.5C 1180.29,1257.93 1179.29,1258.6 1178.5,1259.5C 1176.61,1260.6 1174.94,1261.94 1173.5,1263.5C 1171.15,1264.34 1169.15,1265.67 1167.5,1267.5C 1165.12,1268.35 1163.12,1269.68 1161.5,1271.5C 1159.15,1272.34 1157.15,1273.67 1155.5,1275.5C 1153.85,1275.66 1152.51,1276.33 1151.5,1277.5C 1147.8,1279.01 1144.47,1281.01 1141.5,1283.5C 1139.59,1285.79 1136.92,1287.12 1133.5,1287.5C 1128.66,1289.54 1124.66,1291.88 1121.5,1294.5C 1120.91,1294.29 1120.41,1293.96 1120,1293.5C 1117.94,1294.11 1117.11,1295.11 1117.5,1296.5C 1116.91,1296.29 1116.41,1295.96 1116,1295.5C 1106.33,1300.43 1095.5,1304.93 1083.5,1309C 1084.34,1310.67 1083.84,1310.83 1082,1309.5C 1080.11,1310.13 1078.44,1311.13 1077,1312.5C 1074.82,1311.89 1072.82,1312.56 1071,1314.5C 1070.67,1314.17 1070.33,1313.83 1070,1313.5C 1059.23,1317.05 1047.4,1320.22 1034.5,1323C 1033.58,1324.76 1032.41,1324.92 1031,1323.5C 1025.2,1324.18 1019.7,1325.52 1014.5,1327.5C 779.833,1327.5 545.167,1327.5 310.5,1327.5C 305.737,1326.65 300.737,1325.32 295.5,1323.5C 294.914,1323.71 294.414,1324.04 294,1324.5C 287.838,1321.34 281.338,1319.84 274.5,1320C 274.833,1319.67 275.167,1319.33 275.5,1319C 254.728,1313.85 234.562,1306.69 215,1297.5C 214.586,1297.96 214.086,1298.29 213.5,1298.5C 213.891,1297.11 213.058,1296.11 211,1295.5C 209.16,1296.83 208.66,1296.67 209.5,1295C 205.354,1293.43 201.354,1291.59 197.5,1289.5C 196.329,1288.66 194.995,1287.99 193.5,1287.5C 190.075,1287.12 187.408,1285.79 185.5,1283.5C 183.882,1281.68 181.882,1280.35 179.5,1279.5C 178.828,1278.73 177.995,1278.07 177,1277.5C 175.16,1278.83 174.66,1278.67 175.5,1277C 174.473,1276.49 173.473,1275.99 172.5,1275.5C 171.71,1274.6 170.71,1273.93 169.5,1273.5C 168.486,1272.33 167.153,1271.66 165.5,1271.5C 163.853,1269.67 161.853,1268.34 159.5,1267.5C 158.055,1265.94 156.389,1264.6 154.5,1263.5C 153.71,1262.6 152.71,1261.93 151.5,1261.5C 150.828,1260.73 149.995,1260.07 149,1259.5C 147.16,1260.83 146.66,1260.67 147.5,1259C 146.956,1258.28 146.289,1257.78 145.5,1257.5C 143.14,1255.15 140.473,1253.15 137.5,1251.5C 137.167,1250.5 136.5,1249.83 135.5,1249.5C 133.858,1248.2 132.191,1246.86 130.5,1245.5C 130.5,1244.83 130.167,1244.5 129.5,1244.5C 129.158,1243.66 128.492,1243.33 127.5,1243.5C 127.167,1242.5 126.5,1241.83 125.5,1241.5C 125.167,1240.5 124.5,1239.83 123.5,1239.5C 121.229,1237.73 119.063,1235.73 117,1233.5C 116.586,1233.96 116.086,1234.29 115.5,1234.5C 115.923,1231.88 114.59,1230.21 111.5,1229.5C 111.167,1228.5 110.5,1227.83 109.5,1227.5C 109.167,1226.5 108.5,1225.83 107.5,1225.5C 107.167,1224.5 106.5,1223.83 105.5,1223.5C 105.167,1222.5 104.5,1221.83 103.5,1221.5C 103.167,1220.5 102.5,1219.83 101.5,1219.5C 101.167,1218.5 100.5,1217.83 99.5,1217.5C 99.1667,1216.5 98.5,1215.83 97.5,1215.5C 97.6716,1214.51 97.3382,1213.84 96.5,1213.5C 96.5,1212.83 96.1667,1212.5 95.5,1212.5C 95.1667,1211.17 94.8333,1211.17 94.5,1212.5C 91.5768,1210.58 88.9101,1208.25 86.5,1205.5C 87.4212,1203.97 87.0878,1202.64 85.5,1201.5C 85.1667,1200.5 84.5,1199.83 83.5,1199.5C 83.1667,1198.5 82.5,1197.83 81.5,1197.5C 81.0679,1196.29 80.4013,1195.29 79.5,1194.5C 77.4707,1192.14 75.4707,1189.81 73.5,1187.5C 73.1667,1186.5 72.5,1185.83 71.5,1185.5C 70.6597,1183.15 69.3264,1181.15 67.5,1179.5C 67.0679,1178.29 66.4013,1177.29 65.5,1176.5C 64.396,1174.61 63.0627,1172.94 61.5,1171.5C 61.631,1170.76 61.4643,1170.09 61,1169.5C 60.1072,1170.71 59.2739,1170.71 58.5,1169.5C 59.4604,1168.19 59.2937,1166.85 58,1165.5C 56.3335,1166.34 56.1669,1165.84 57.5,1164C 56.2668,1162.33 54.9335,1160.83 53.5,1159.5C 53.3404,1157.85 52.6737,1156.51 51.5,1155.5C 51.0679,1154.29 50.4013,1153.29 49.5,1152.5C 49.0679,1151.29 48.4013,1150.29 47.5,1149.5C 45.9884,1145.8 43.9884,1142.47 41.5,1139.5C 39.2104,1137.59 37.8771,1134.92 37.5,1131.5C 37.0113,1130 36.3446,1128.67 35.5,1127.5C 35.0113,1126 34.3446,1124.67 33.5,1123.5C 31.2127,1121.6 29.8794,1118.93 29.5,1115.5C 28.9101,1114.23 28.4101,1112.9 28,1111.5C 26.3335,1112.34 26.1669,1111.84 27.5,1110C 21.1969,1096.1 15.8635,1081.76 11.5,1067C 8.62275,1057.42 5.62275,1047.92 2.5,1038.5C 2.98977,1032.26 1.98977,1026.26 -0.5,1020.5C -0.5,782.5 -0.5,544.5 -0.5,306.5C 3.75529,288.322 8.42196,270.488 13.5,253C 12.1669,251.16 12.3335,250.66 14,251.5C 18.1095,239.836 22.6095,228.336 27.5,217C 26.1669,215.16 26.3335,214.66 28,215.5C 28.7914,214.255 29.2914,212.922 29.5,211.5C 31.5034,208.621 33.5034,204.621 35.5,199.5C 36.3446,198.329 37.0113,196.995 37.5,195.5C 38.6737,194.486 39.3404,193.153 39.5,191.5C 41.5716,189.65 42.9049,187.317 43.5,184.5C 45.0709,182.365 46.4043,180.032 47.5,177.5C 48.4013,176.71 49.0679,175.71 49.5,174.5C 51.0828,172.337 52.4161,170.004 53.5,167.5C 55.316,165.882 56.6493,163.882 57.5,161.5C 59.0627,160.055 60.396,158.389 61.5,156.5C 62.4013,155.71 63.0679,154.71 63.5,153.5C 64.4013,152.71 65.0679,151.71 65.5,150.5C 66.4013,149.71 67.0679,148.71 67.5,147.5C 69.0627,146.055 70.396,144.389 71.5,142.5C 72.4013,141.71 73.0679,140.71 73.5,139.5C 74.9335,138.167 76.2668,136.667 77.5,135C 77.0426,134.586 76.7093,134.086 76.5,133.5C 77.6016,132.824 78.6016,132.158 79.5,131.5C 80.5,131.167 81.1667,130.5 81.5,129.5C 82.5,129.167 83.1667,128.5 83.5,127.5C 84.9335,126.167 86.2668,124.667 87.5,123C 87.0426,122.586 86.7093,122.086 86.5,121.5C 88.1851,119.983 89.6851,118.316 91,116.5C 92.0074,118.742 92.8407,118.408 93.5,115.5C 94.5,115.167 95.1667,114.5 95.5,113.5C 96.5,113.167 97.1667,112.5 97.5,111.5C 98.5,111.167 99.1667,110.5 99.5,109.5C 100.5,109.167 101.167,108.5 101.5,107.5C 102.5,107.167 103.167,106.5 103.5,105.5C 104.5,105.167 105.167,104.5 105.5,103.5C 106.5,103.167 107.167,102.5 107.5,101.5C 108.5,101.167 109.167,100.5 109.5,99.5C 110.5,99.1667 111.167,98.5 111.5,97.5C 112.5,97.1667 113.167,96.5 113.5,95.5C 116.408,94.8407 116.742,94.0074 114.5,93C 116.984,91.017 119.317,88.8504 121.5,86.5C 122.086,86.7093 122.586,87.0426 123,87.5C 124.667,86.2668 126.167,84.9335 127.5,83.5C 128.5,83.1667 129.167,82.5 129.5,81.5C 130.71,81.0679 131.71,80.4013 132.5,79.5C 134.191,78.1363 135.858,76.803 137.5,75.5C 138.5,75.1667 139.167,74.5 139.5,73.5C 140.239,73.631 140.906,73.4643 141.5,73C 140.289,72.1072 140.289,71.2739 141.5,70.5C 143.031,71.4212 144.365,71.0878 145.5,69.5C 146.5,69.1667 147.167,68.5 147.5,67.5C 149.853,66.6597 151.853,65.3264 153.5,63.5C 154.71,63.0679 155.71,62.4013 156.5,61.5C 157.71,61.0679 158.71,60.4013 159.5,59.5C 160.71,59.0679 161.71,58.4013 162.5,57.5C 163.71,57.0679 164.71,56.4013 165.5,55.5C 167.795,54.5254 169.795,53.1921 171.5,51.5C 173.255,50.9278 174.922,50.0945 176.5,49C 177.833,48.3333 177.833,47.6667 176.5,47C 177.449,46.3828 178.282,46.5494 179,47.5C 179.75,46.8742 180.584,46.3742 181.5,46C 180.66,44.3335 181.16,44.1669 183,45.5C 183.995,44.9341 184.828,44.2674 185.5,43.5C 189.362,41.7381 193.028,39.7381 196.5,37.5C 204.835,33.4965 213.169,29.4965 221.5,25.5C 236.742,19.3658 254.075,13.5324 273.5,8C 272.294,6.9823 272.627,6.4823 274.5,6.5C 275.442,6.60816 276.275,6.94149 277,7.5C 285.355,5.14038 293.855,3.30705 302.5,2C 303.756,1.58309 304.423,0.749754 304.5,-0.5 Z"/></g>
<g><path style="opacity:0.016" fill="#fefcfb" d="M 221.5,25.5 C 220.833,24.1667 220.833,24.1667 221.5,25.5 Z"/></g>
<g><path style="opacity:0.039" fill="#fffcfc" d="M 196.5,37.5 C 195.761,37.631 195.094,37.4643 194.5,37C 195.437,36.3083 196.103,36.475 196.5,37.5 Z"/></g>
<g><path style="opacity:0.016" fill="#fefcfb" d="M 185.5,43.5 C 184.833,42.1667 184.833,42.1667 185.5,43.5 Z"/></g>
<g><path style="opacity:0.016" fill="#fefcfb" d="M 1141.5,42.5 C 1142.83,43.1667 1142.83,43.1667 1141.5,42.5 Z"/></g>
<g><path style="opacity:0.039" fill="#fffdfd" d="M 1148.5,47.5 C 1148.9,46.475 1149.56,46.3083 1150.5,47C 1149.91,47.4643 1149.24,47.631 1148.5,47.5 Z"/></g>
<g><path style="opacity:0.012" fill="#fefcfb" d="M 171.5,51.5 C 170.833,50.1667 170.833,50.1667 171.5,51.5 Z"/></g>
<g><path style="opacity:0.012" fill="#fefffe" d="M 1155.5,50.5 C 1156.83,51.1667 1156.83,51.1667 1155.5,50.5 Z"/></g>
<g><path style="opacity:0.016" fill="#fefcfb" d="M 165.5,55.5 C 164.833,54.1667 164.833,54.1667 165.5,55.5 Z"/></g>
<g><path style="opacity:0.016" fill="#fefcfb" d="M 1161.5,54.5 C 1162.83,55.1667 1162.83,55.1667 1161.5,54.5 Z"/></g>
<g><path style="opacity:0.039" fill="#fffdfd" d="M 162.5,57.5 C 161.761,57.631 161.094,57.4643 160.5,57C 161.437,56.3083 162.103,56.475 162.5,57.5 Z"/></g>
<g><path style="opacity:0.016" fill="#fefcfb" d="M 159.5,59.5 C 158.833,58.1667 158.833,58.1667 159.5,59.5 Z"/></g>
<g><path style="opacity:0.016" fill="#fefcfb" d="M 1167.5,58.5 C 1168.83,59.1667 1168.83,59.1667 1167.5,58.5 Z"/></g>
<g><path style="opacity:0.039" fill="#fffdfd" d="M 156.5,61.5 C 155.761,61.631 155.094,61.4643 154.5,61C 155.437,60.3083 156.103,60.475 156.5,61.5 Z"/></g>
<g><path style="opacity:0.039" fill="#fffdfd" d="M 1170.5,61.5 C 1170.9,60.475 1171.56,60.3083 1172.5,61C 1171.91,61.4643 1171.24,61.631 1170.5,61.5 Z"/></g>
<g><path style="opacity:0.012" fill="#fefefc" d="M 153.5,63.5 C 152.833,62.1667 152.833,62.1667 153.5,63.5 Z"/></g>
<g><path style="opacity:0.012" fill="#fefcfb" d="M 1173.5,62.5 C 1174.83,63.1667 1174.83,63.1667 1173.5,62.5 Z"/></g>
<g><path style="opacity:0.012" fill="#fefefe" d="M 147.5,67.5 C 146.833,66.1667 146.833,66.1667 147.5,67.5 Z"/></g>
<g><path style="opacity:0.012" fill="#fefffe" d="M 1179.5,66.5 C 1180.83,67.1667 1180.83,67.1667 1179.5,66.5 Z"/></g>
<g><path style="opacity:0.016" fill="#fefcfb" d="M 145.5,69.5 C 144.833,68.1667 144.833,68.1667 145.5,69.5 Z"/></g>
<g><path style="opacity:0.016" fill="#fefcfb" d="M 1181.5,68.5 C 1182.83,69.1667 1182.83,69.1667 1181.5,68.5 Z"/></g>
<g><path style="opacity:0.012" fill="#fefffe" d="M 139.5,73.5 C 138.833,72.1667 138.833,72.1667 139.5,73.5 Z"/></g>
<g><path style="opacity:0.012" fill="#fefffe" d="M 1187.5,72.5 C 1188.83,73.1667 1188.83,73.1667 1187.5,72.5 Z"/></g>
<g><path style="opacity:0.012" fill="#fefcfb" d="M 137.5,75.5 C 136.833,74.1667 136.833,74.1667 137.5,75.5 Z"/></g>
<g><path style="opacity:0.016" fill="#fefcfb" d="M 1189.5,74.5 C 1190.83,75.1667 1190.83,75.1667 1189.5,74.5 Z"/></g>
<g><path style="opacity:0.039" fill="#fffdfd" d="M 132.5,79.5 C 131.761,79.631 131.094,79.4643 130.5,79C 131.437,78.3083 132.103,78.475 132.5,79.5 Z"/></g>
<g><path style="opacity:0.012" fill="#fefffe" d="M 129.5,81.5 C 128.833,80.1667 128.833,80.1667 129.5,81.5 Z"/></g>
<g><path style="opacity:0.029" fill="#fffdfd" d="M 1196.5,81.5 C 1196.5,81.1667 1196.5,80.8333 1196.5,80.5C 1199.17,80.8333 1199.17,81.1667 1196.5,81.5 Z"/></g>
<g><path style="opacity:0.012" fill="#fefdfc" d="M 127.5,83.5 C 126.833,82.1667 126.833,82.1667 127.5,83.5 Z"/></g>
<g><path style="opacity:0.012" fill="#fefffe" d="M 1199.5,82.5 C 1200.83,83.1667 1200.83,83.1667 1199.5,82.5 Z"/></g>
<g><path style="opacity:0.012" fill="#fefffe" d="M 1201.5,84.5 C 1202.83,85.1667 1202.83,85.1667 1201.5,84.5 Z"/></g>
<g><path style="opacity:0.012" fill="#fefffe" d="M 113.5,95.5 C 112.833,94.1667 112.833,94.1667 113.5,95.5 Z"/></g>
<g><path style="opacity:0.012" fill="#fefffe" d="M 1213.5,94.5 C 1214.83,95.1667 1214.83,95.1667 1213.5,94.5 Z"/></g>
<g><path style="opacity:0.012" fill="#fefffe" d="M 111.5,97.5 C 110.833,96.1667 110.833,96.1667 111.5,97.5 Z"/></g>
<g><path style="opacity:0.012" fill="#fefffe" d="M 1215.5,96.5 C 1216.83,97.1667 1216.83,97.1667 1215.5,96.5 Z"/></g>
<g><path style="opacity:0.012" fill="#fefffe" d="M 109.5,99.5 C 108.833,98.1667 108.833,98.1667 109.5,99.5 Z"/></g>
<g><path style="opacity:0.012" fill="#fefffe" d="M 1217.5,98.5 C 1218.83,99.1667 1218.83,99.1667 1217.5,98.5 Z"/></g>
<g><path style="opacity:0.012" fill="#fefffe" d="M 107.5,101.5 C 106.833,100.167 106.833,100.167 107.5,101.5 Z"/></g>
<g><path style="opacity:0.012" fill="#fefffe" d="M 1219.5,100.5 C 1220.83,101.167 1220.83,101.167 1219.5,100.5 Z"/></g>
<g><path style="opacity:0.012" fill="#fefffe" d="M 105.5,103.5 C 104.833,102.167 104.833,102.167 105.5,103.5 Z"/></g>
<g><path style="opacity:0.012" fill="#fefffe" d="M 1221.5,102.5 C 1222.83,103.167 1222.83,103.167 1221.5,102.5 Z"/></g>
<g><path style="opacity:0.012" fill="#fefffe" d="M 103.5,105.5 C 102.833,104.167 102.833,104.167 103.5,105.5 Z"/></g>
<g><path style="opacity:0.012" fill="#fefffe" d="M 1223.5,104.5 C 1224.83,105.167 1224.83,105.167 1223.5,104.5 Z"/></g>
<g><path style="opacity:0.012" fill="#fefffe" d="M 101.5,107.5 C 100.833,106.167 100.833,106.167 101.5,107.5 Z"/></g>
<g><path style="opacity:0.012" fill="#fefffe" d="M 1225.5,106.5 C 1226.83,107.167 1226.83,107.167 1225.5,106.5 Z"/></g>
<g><path style="opacity:0.012" fill="#fefffe" d="M 99.5,109.5 C 98.8333,108.167 98.8333,108.167 99.5,109.5 Z"/></g>
<g><path style="opacity:0.012" fill="#fefffe" d="M 1227.5,108.5 C 1228.83,109.167 1228.83,109.167 1227.5,108.5 Z"/></g>
<g><path style="opacity:0.012" fill="#fefffe" d="M 97.5,111.5 C 96.8333,110.167 96.8333,110.167 97.5,111.5 Z"/></g>
<g><path style="opacity:0.012" fill="#fefffe" d="M 1229.5,110.5 C 1230.83,111.167 1230.83,111.167 1229.5,110.5 Z"/></g>
<g><path style="opacity:0.012" fill="#fefffe" d="M 95.5,113.5 C 94.8333,112.167 94.8333,112.167 95.5,113.5 Z"/></g>
<g><path style="opacity:0.012" fill="#fefffe" d="M 1231.5,112.5 C 1232.83,113.167 1232.83,113.167 1231.5,112.5 Z"/></g>
<g><path style="opacity:0.012" fill="#fefffe" d="M 93.5,115.5 C 92.8333,114.167 92.8333,114.167 93.5,115.5 Z"/></g>
<g><path style="opacity:0.012" fill="#fefffe" d="M 1233.5,114.5 C 1234.83,115.167 1234.83,115.167 1233.5,114.5 Z"/></g>
<g><path style="opacity:0.012" fill="#fefffe" d="M 1235.5,116.5 C 1236.83,117.167 1236.83,117.167 1235.5,116.5 Z"/></g>
<g><path style="opacity:0.012" fill="#fefffe" d="M 83.5,127.5 C 82.8333,126.167 82.8333,126.167 83.5,127.5 Z"/></g>
<g><path style="opacity:0.016" fill="#fefffe" d="M 1243.5,126.5 C 1244.83,127.167 1244.83,127.167 1243.5,126.5 Z"/></g>
<g><path style="opacity:0.012" fill="#fefffe" d="M 81.5,129.5 C 80.8333,128.167 80.8333,128.167 81.5,129.5 Z"/></g>
<g><path style="opacity:0.012" fill="#fefffe" d="M 1245.5,128.5 C 1246.83,129.167 1246.83,129.167 1245.5,128.5 Z"/></g>
<g><path style="opacity:0.012" fill="#fefffe" d="M 79.5,131.5 C 78.8333,130.167 78.8333,130.167 79.5,131.5 Z"/></g>
<g><path style="opacity:0.012" fill="#fefffe" d="M 1247.5,130.5 C 1248.83,131.167 1248.83,131.167 1247.5,130.5 Z"/></g>
<g><path style="opacity:0.012" fill="#fefffe" d="M 73.5,139.5 C 72.8333,138.167 72.8333,138.167 73.5,139.5 Z"/></g>
<g><path style="opacity:0.012" fill="#fefffe" d="M 1253.5,138.5 C 1254.83,139.167 1254.83,139.167 1253.5,138.5 Z"/></g>
<g><path style="opacity:0.039" fill="#fffdfd" d="M 71.5,142.5 C 70.475,142.103 70.3083,141.437 71,140.5C 71.4643,141.094 71.631,141.761 71.5,142.5 Z"/></g>
<g><path style="opacity:0.039" fill="#fffefe" d="M 1255.5,142.5 C 1255.37,141.761 1255.54,141.094 1256,140.5C 1256.69,141.437 1256.53,142.103 1255.5,142.5 Z"/></g>
<g><path style="opacity:0.012" fill="#fefffe" d="M 67.5,147.5 C 66.8333,146.167 66.8333,146.167 67.5,147.5 Z"/></g>
<g><path style="opacity:1" fill="#505051" d="M 999.5,156.5 C 999.737,157.791 999.404,158.791 998.5,159.5C 998.631,158.761 998.464,158.094 998,157.5C 996.961,158.71 995.794,159.71 994.5,160.5C 994.5,159.5 994.5,158.5 994.5,157.5C 990.416,156.812 986.416,155.812 982.5,154.5C 988.965,149.236 996.298,146.569 1004.5,146.5C 1003.09,150.067 1001.09,153.234 998.5,156C 998.728,156.399 999.062,156.565 999.5,156.5 Z"/></g>
<g><path style="opacity:0.012" fill="#fefffe" d="M 1259.5,146.5 C 1260.83,147.167 1260.83,147.167 1259.5,146.5 Z"/></g>
<g><path style="opacity:0.039" fill="#fffefe" d="M 65.5,150.5 C 64.475,150.103 64.3083,149.437 65,148.5C 65.4643,149.094 65.631,149.761 65.5,150.5 Z"/></g>
<g><path style="opacity:0.039" fill="#fffdfd" d="M 1261.5,150.5 C 1261.37,149.761 1261.54,149.094 1262,148.5C 1262.69,149.437 1262.53,150.103 1261.5,150.5 Z"/></g>
<g><path style="opacity:0.016" fill="#fefffe" d="M 63.5,153.5 C 62.8333,152.167 62.8333,152.167 63.5,153.5 Z"/></g>
<g><path style="opacity:0.039" fill="#fffdfd" d="M 61.5,156.5 C 60.475,156.103 60.3083,155.437 61,154.5C 61.4643,155.094 61.631,155.761 61.5,156.5 Z"/></g>
<g><path style="opacity:0.012" fill="#fefffe" d="M 1265.5,154.5 C 1266.83,155.167 1266.83,155.167 1265.5,154.5 Z"/></g>
<g><path style="opacity:1" fill="#fcfafa" d="M 982.5,154.5 C 986.416,155.812 990.416,156.812 994.5,157.5C 994.5,158.5 994.5,159.5 994.5,160.5C 987.912,168.692 981.579,177.026 975.5,185.5C 979.241,185.666 981.407,187.666 982,191.5C 982.408,189.59 983.575,188.59 985.5,188.5C 989.423,188.922 991.756,190.922 992.5,194.5C 983.677,193.156 976.677,195.989 971.5,203C 974.525,208.882 977.692,214.715 981,220.5C 982.164,223.567 981.164,225.233 978,225.5C 969.942,222.444 964.109,216.944 960.5,209C 946.963,210.201 933.963,208.034 921.5,202.5C 922.748,200.541 924.415,199.041 926.5,198C 932.249,197.852 937.915,197.186 943.5,196C 946.265,193.034 945.932,190.367 942.5,188C 930.623,184.86 930.956,182.36 943.5,180.5C 947.25,180.931 950.916,181.431 954.5,182C 961.069,169.93 970.402,160.764 982.5,154.5 Z"/></g>
<g><path style="opacity:0.012" fill="#fefffe" d="M 57.5,161.5 C 56.8333,160.167 56.8333,160.167 57.5,161.5 Z"/></g>
<g><path style="opacity:0.012" fill="#fefcfb" d="M 1269.5,160.5 C 1270.83,161.167 1270.83,161.167 1269.5,160.5 Z"/></g>
<g><path style="opacity:0.012" fill="#fefffe" d="M 53.5,167.5 C 52.8333,166.167 52.8333,166.167 53.5,167.5 Z"/></g>
<g><path style="opacity:0.039" fill="#fffdfd" d="M 1273.5,168.5 C 1273.37,167.761 1273.54,167.094 1274,166.5C 1274.69,167.437 1274.53,168.103 1273.5,168.5 Z"/></g>
<g><path style="opacity:0.016" fill="#fefffe" d="M 1275.5,170.5 C 1276.83,171.167 1276.83,171.167 1275.5,170.5 Z"/></g>
<g><path style="opacity:0.039" fill="#fefffe" d="M 49.5,174.5 C 48.475,174.103 48.3083,173.437 49,172.5C 49.4643,173.094 49.631,173.761 49.5,174.5 Z"/></g>
<g><path style="opacity:0.039" fill="#fefffe" d="M 1277.5,174.5 C 1277.37,173.761 1277.54,173.094 1278,172.5C 1278.69,173.437 1278.53,174.103 1277.5,174.5 Z"/></g>
<g><path style="opacity:0.016" fill="#fefffe" d="M 47.5,177.5 C 46.8333,176.167 46.8333,176.167 47.5,177.5 Z"/></g>
<g><path style="opacity:0.039" fill="#fffdfd" d="M 43.5,184.5 C 42.475,184.103 42.3083,183.437 43,182.5C 43.4643,183.094 43.631,183.761 43.5,184.5 Z"/></g>
<g><path style="opacity:1" fill="#292929" d="M 999.5,156.5 C 999.062,156.565 998.728,156.399 998.5,156C 1001.09,153.234 1003.09,150.067 1004.5,146.5C 996.298,146.569 988.965,149.236 982.5,154.5C 970.402,160.764 961.069,169.93 954.5,182C 950.916,181.431 947.25,180.931 943.5,180.5C 930.956,182.36 930.623,184.86 942.5,188C 945.932,190.367 946.265,193.034 943.5,196C 937.915,197.186 932.249,197.852 926.5,198C 924.415,199.041 922.748,200.541 921.5,202.5C 933.963,208.034 946.963,210.201 960.5,209C 964.109,216.944 969.942,222.444 978,225.5C 981.164,225.233 982.164,223.567 981,220.5C 977.692,214.715 974.525,208.882 971.5,203C 976.677,195.989 983.677,193.156 992.5,194.5C 991.756,190.922 989.423,188.922 985.5,188.5C 983.575,188.59 982.408,189.59 982,191.5C 981.407,187.666 979.241,185.666 975.5,185.5C 981.579,177.026 987.912,168.692 994.5,160.5C 995.794,159.71 996.961,158.71 998,157.5C 998.464,158.094 998.631,158.761 998.5,159.5C 992.851,166.095 987.185,172.762 981.5,179.5C 980.253,181.323 979.586,183.323 979.5,185.5C 983.689,185.428 987.689,186.261 991.5,188C 993.448,189.439 994.781,191.272 995.5,193.5C 995.182,194.647 994.516,195.481 993.5,196C 986.645,195.431 980.645,197.264 975.5,201.5C 974.167,203.5 974.167,205.5 975.5,207.5C 978.557,212.447 981.224,217.614 983.5,223C 982.615,225.386 980.948,226.886 978.5,227.5C 969.881,225.184 963.547,220.017 959.5,212C 949.155,212.245 939.155,210.578 929.5,207C 914.802,208.717 913.135,205.384 924.5,197C 930.471,195.931 936.471,195.098 942.5,194.5C 943.792,191.589 942.792,189.756 939.5,189C 935.848,188.501 932.182,188.335 928.5,188.5C 928.351,187.448 928.517,186.448 929,185.5C 931.074,183.548 933.241,181.715 935.5,180C 941.823,178.63 948.157,178.13 954.5,178.5C 965.628,161.558 980.961,150.058 1000.5,144C 1002.47,143.505 1004.47,143.338 1006.5,143.5C 1005.98,148.867 1003.65,153.2 999.5,156.5 Z"/></g>
<g><path style="opacity:1" fill="#545556" d="M 975.5,185.5 C 971.87,187.127 968.037,188.794 964,190.5C 963.911,188.887 964.745,187.72 966.5,187C 969.513,186.498 972.513,185.998 975.5,185.5 Z"/></g>
<g><path style="opacity:0.012" fill="#fefcfb" d="M 39.5,191.5 C 38.8333,190.167 38.8333,190.167 39.5,191.5 Z"/></g>
<g><path style="opacity:0.012" fill="#fefcfb" d="M 1287.5,190.5 C 1288.83,191.167 1288.83,191.167 1287.5,190.5 Z"/></g>
<g><path style="opacity:0.016" fill="#fefffe" d="M 37.5,195.5 C 36.8333,194.167 36.8333,194.167 37.5,195.5 Z"/></g>
<g><path style="opacity:0.016" fill="#fefffe" d="M 35.5,199.5 C 34.8333,198.167 34.8333,198.167 35.5,199.5 Z"/></g>
<g><path style="opacity:1" fill="#2d2d2d" d="M 758.5,115.5 C 766.702,123.544 773.202,132.877 778,143.5C 789.049,157.187 798.382,171.853 806,187.5C 807.378,193.139 809.211,198.472 811.5,203.5C 818.675,200.387 826.009,199.887 833.5,202C 834.833,203 836.167,204 837.5,205C 843.554,204.687 847.554,207.354 849.5,213C 838.878,218.66 827.545,222.994 815.5,226C 803.801,233.047 791.135,235.381 777.5,233C 770.732,236.397 763.732,237.063 756.5,235C 750.535,225.895 751.535,217.562 759.5,210C 765.491,209.501 771.491,209.334 777.5,209.5C 770.88,188.726 764.38,167.726 758,146.5C 756.469,139.719 755.303,132.886 754.5,126C 754.907,122.081 756.24,118.581 758.5,115.5 Z"/></g>
<g><path style="opacity:1" fill="#fdfafa" d="M 770.5,141.5 C 773.785,141.269 776.285,142.603 778,145.5C 784.276,155.442 790.943,165.108 798,174.5C 801.908,184.624 805.741,194.79 809.5,205C 816.008,203.382 822.675,202.716 829.5,203C 835.209,205.229 840.543,208.063 845.5,211.5C 844.221,213.146 842.555,214.313 840.5,215C 827.81,219.789 815.143,224.789 802.5,230C 794.167,230.333 785.833,230.667 777.5,231C 770.592,233.949 763.759,234.115 757,231.5C 754.371,224.646 755.205,218.313 759.5,212.5C 766.483,211.574 773.483,211.574 780.5,212.5C 775.181,194.042 769.348,175.709 763,157.5C 762.505,155.527 762.338,153.527 762.5,151.5C 764.029,147.299 766.696,143.966 770.5,141.5 Z"/></g>
<g><path style="opacity:1" fill="#4f4f4f" d="M 770.5,141.5 C 766.696,143.966 764.029,147.299 762.5,151.5C 761.272,150.975 760.438,149.642 760,147.5C 758.871,142.191 757.871,136.857 757,131.5C 756.146,127.375 756.48,123.375 758,119.5C 760.091,118.5 761.757,119.167 763,121.5C 766.708,127.751 770.541,133.917 774.5,140C 772.942,140.21 771.609,140.71 770.5,141.5 Z"/></g>
<g><path style="opacity:1" fill="#07070a" d="M 826.5,208.5 C 828.337,208.639 828.67,209.306 827.5,210.5C 826.702,210.043 826.369,209.376 826.5,208.5 Z"/></g>
<g><path style="opacity:0.016" fill="#fefefd" d="M 29.5,211.5 C 28.8333,210.167 28.8333,210.167 29.5,211.5 Z"/></g>
<g><path style="opacity:1" fill="#1b1e22" d="M 834.5,209.5 C 836.048,209.821 836.715,210.821 836.5,212.5C 833.752,212.598 833.086,211.598 834.5,209.5 Z"/></g>
<g><path style="opacity:0.016" fill="#fefffe" d="M 1297.5,210.5 C 1298.83,211.167 1298.83,211.167 1297.5,210.5 Z"/></g>
<g><path style="opacity:1" fill="#2e2e2f" d="M 1143.5,219.5 C 1145.25,219.418 1146.25,220.251 1146.5,222C 1145.13,224.567 1143.63,227.067 1142,229.5C 1134.31,237.684 1126.81,246.017 1119.5,254.5C 1115.18,257.572 1110.68,260.239 1106,262.5C 1105.38,263.449 1105.55,264.282 1106.5,265C 1109.9,265.1 1113.07,265.934 1116,267.5C 1118.07,270.207 1117.57,272.373 1114.5,274C 1109.63,275.634 1104.63,276.468 1099.5,276.5C 1094.17,275.85 1088.83,275.684 1083.5,276C 1075,282.374 1065.67,284.041 1055.5,281C 1054.17,280 1054.17,279 1055.5,278C 1059.33,276.254 1062.99,274.254 1066.5,272C 1069.95,269.842 1070.28,267.342 1067.5,264.5C 1063.65,262.05 1059.65,259.883 1055.5,258C 1059.96,253.862 1065.29,252.362 1071.5,253.5C 1071.08,251.09 1069.75,249.257 1067.5,248C 1062.97,246.486 1058.8,244.319 1055,241.5C 1054.33,240.833 1054.33,240.167 1055,239.5C 1060.51,236.001 1066.34,235.501 1072.5,238C 1078.53,240.766 1084.36,243.932 1090,247.5C 1102.52,238.655 1115.69,230.822 1129.5,224C 1134.37,222.763 1139.04,221.263 1143.5,219.5 Z"/></g>
<g><path style="opacity:1" fill="#f8f6f6" d="M 1125.5,229.5 C 1128.13,230.327 1130.8,231.16 1133.5,232C 1134.25,232.671 1134.59,233.504 1134.5,234.5C 1129.19,240.919 1123.52,247.086 1117.5,253C 1111.53,256.644 1105.87,260.644 1100.5,265C 1103.91,266.74 1107.58,267.74 1111.5,268C 1115.17,269.408 1115.17,271.075 1111.5,273C 1097.65,275.929 1084.65,273.763 1072.5,266.5C 1068.77,262.76 1064.77,259.427 1060.5,256.5C 1062,256.167 1063.5,255.833 1065,255.5C 1068.4,255.869 1071.73,256.536 1075,257.5C 1079.42,256.958 1079.42,255.958 1075,254.5C 1072.21,248.546 1067.71,244.546 1061.5,242.5C 1060.57,241.311 1060.24,239.978 1060.5,238.5C 1070.68,239.121 1079.68,242.621 1087.5,249C 1086.27,250.183 1086.27,251.349 1087.5,252.5C 1094.59,247.111 1101.92,241.944 1109.5,237C 1114.56,233.818 1119.89,231.318 1125.5,229.5 Z"/></g>
<g><path style="opacity:1" fill="#494949" d="M 1134.5,234.5 C 1134.59,233.504 1134.25,232.671 1133.5,232C 1130.8,231.16 1128.13,230.327 1125.5,229.5C 1131.06,225.641 1137.23,222.974 1144,221.5C 1142.34,226.766 1139.18,231.1 1134.5,234.5 Z"/></g>
<g><path style="opacity:1" fill="#f5f4f4" d="M 1072.5,269.5 C 1075.6,270.552 1078.6,271.885 1081.5,273.5C 1075.53,279.656 1068.36,281.656 1060,279.5C 1059.31,278.668 1059.48,278.002 1060.5,277.5C 1064.91,275.306 1068.91,272.639 1072.5,269.5 Z"/></g>
<g><path style="opacity:1" fill="#353535" d="M 869.5,297.5 C 869.389,296.883 869.056,296.383 868.5,296C 871.167,295.333 873.833,294.667 876.5,294C 871.42,292.196 866.42,290.196 861.5,288C 859.179,287.163 856.845,286.83 854.5,287C 857.355,293.247 861.688,298.08 867.5,301.5C 877.592,306.425 884.758,314.092 889,324.5C 890.079,327.063 890.579,329.729 890.5,332.5C 882.462,331.965 874.462,331.465 866.5,331C 864.996,332.491 864.163,334.324 864,336.5C 863.502,339.817 863.335,343.15 863.5,346.5C 872.781,345.009 882.114,344.509 891.5,345C 895.934,346.383 900.268,348.05 904.5,350C 912.642,352.086 920.642,351.586 928.5,348.5C 930.747,349.374 933.08,349.708 935.5,349.5C 935.717,346.579 935.051,343.913 933.5,341.5C 934.397,340.402 935.23,340.402 936,341.5C 940.952,350.292 938.619,353.625 929,351.5C 920.605,354.369 912.105,354.869 903.5,353C 897.387,349.739 890.887,347.906 884,347.5C 876.554,348.756 869.054,349.422 861.5,349.5C 860.56,345.537 860.393,341.537 861,337.5C 861.038,330.795 864.372,327.462 871,327.5C 876.517,328.586 882.017,328.586 887.5,327.5C 885.815,323.763 883.982,320.096 882,316.5C 874.113,309.145 865.946,302.145 857.5,295.5C 855.711,292.758 854.044,289.925 852.5,287C 853.354,285.978 854.354,285.145 855.5,284.5C 869.145,288.546 882.145,294.046 894.5,301C 902.724,306.39 909.391,313.224 914.5,321.5C 931.768,314.169 949.768,309.169 968.5,306.5C 969.833,306.667 971.167,306.833 972.5,307C 973.022,307.561 973.355,308.228 973.5,309C 971.179,312.654 968.179,315.654 964.5,318C 953.558,323.649 942.558,329.149 931.5,334.5C 930.833,334.333 930.167,334.167 929.5,334C 936.421,328.705 944.088,324.705 952.5,322C 954.26,321.035 954.594,319.868 953.5,318.5C 948.334,316.472 943,315.639 937.5,316C 929.013,318.384 920.846,321.55 913,325.5C 909.302,317.805 904.135,311.305 897.5,306C 891.96,302.73 886.293,299.73 880.5,297C 876.779,296.322 873.112,296.489 869.5,297.5 Z"/></g>
<g><path style="opacity:1" fill="#505052" d="M 961.5,308.5 C 964.898,308.18 968.232,308.513 971.5,309.5C 970.352,311.149 969.019,312.649 967.5,314C 963.916,316.041 960.416,318.208 957,320.5C 956.751,319.376 956.251,318.376 955.5,317.5C 951.975,315.77 948.308,314.436 944.5,313.5C 950.212,311.659 955.879,309.993 961.5,308.5 Z"/></g>
<g><path style="opacity:1" fill="#515151" d="M 869.5,297.5 C 867.896,298.287 867.229,299.62 867.5,301.5C 861.688,298.08 857.355,293.247 854.5,287C 856.845,286.83 859.179,287.163 861.5,288C 866.42,290.196 871.42,292.196 876.5,294C 873.833,294.667 871.167,295.333 868.5,296C 869.056,296.383 869.389,296.883 869.5,297.5 Z"/></g>
<g><path style="opacity:1" fill="#2c2b2d" d="M 933.5,341.5 C 929.98,341.195 926.647,340.362 923.5,339C 925,337.5 926.5,336 928,334.5C 929.188,335.563 929.688,336.897 929.5,338.5C 931.973,338.088 933.306,339.088 933.5,341.5 Z"/></g>
<g><path style="opacity:1" fill="#2f2f30" d="M 553.5,282.5 C 560.652,284.345 566.485,288.345 571,294.5C 574.514,300.203 578.014,305.869 581.5,311.5C 584.021,308.146 587.021,305.312 590.5,303C 597.381,302.072 604.215,300.905 611,299.5C 615.555,300.279 616.555,302.612 614,306.5C 612.5,308 611,309.5 609.5,311C 602.146,313.735 596.312,318.235 592,324.5C 591.51,325.793 591.343,327.127 591.5,328.5C 592.5,328.5 593.5,328.5 594.5,328.5C 594.608,330.783 595.441,332.783 597,334.5C 598.808,339.755 597.141,343.089 592,344.5C 576.455,342.02 561.288,338.687 546.5,334.5C 550.363,328.067 556.03,324.401 563.5,323.5C 563.905,312.718 560.905,303.051 554.5,294.5C 552.825,290.513 552.492,286.513 553.5,282.5 Z"/></g>
<g><path style="opacity:1" fill="#f8f6f6" d="M 568.5,295.5 C 572.558,300.597 575.891,306.263 578.5,312.5C 578.74,315.579 578.407,318.579 577.5,321.5C 579.007,322.739 580.174,322.405 581,320.5C 581.941,317.846 582.774,315.179 583.5,312.5C 589.916,303.496 597.582,302.162 606.5,308.5C 602.239,311.245 598.072,314.245 594,317.5C 591.005,320.987 589.172,324.987 588.5,329.5C 594.526,331.208 596.693,335.208 595,341.5C 580.268,341.51 566.102,338.51 552.5,332.5C 552.977,331.069 553.643,329.736 554.5,328.5C 557.754,326.971 561.087,325.638 564.5,324.5C 565.662,319.533 565.829,314.533 565,309.5C 562.662,305.3 560.828,300.967 559.5,296.5C 562.073,294.156 565.073,293.823 568.5,295.5 Z"/></g>
<g><path style="opacity:1" fill="#252423" d="M 556.5,330.5 C 558.337,330.639 558.67,331.306 557.5,332.5C 556.702,332.043 556.369,331.376 556.5,330.5 Z"/></g>
<g><path style="opacity:1" fill="#5e5f61" d="M 578.5,312.5 C 580.167,312.5 581.833,312.5 583.5,312.5C 582.774,315.179 581.941,317.846 581,320.5C 580.174,322.405 579.007,322.739 577.5,321.5C 578.407,318.579 578.74,315.579 578.5,312.5 Z"/></g>
<g><path style="opacity:1" fill="#4d4e4e" d="M 568.5,295.5 C 565.073,293.823 562.073,294.156 559.5,296.5C 558.883,296.611 558.383,296.944 558,297.5C 555.89,293.464 554.723,289.131 554.5,284.5C 561.115,286.383 565.782,290.05 568.5,295.5 Z"/></g>
<g><path style="opacity:1" fill="#2f2f2f" d="M 721.5,298.5 C 731.848,297.344 739.848,301.011 745.5,309.5C 749.573,309.638 753.573,310.138 757.5,311C 760.632,317.111 759.799,322.611 755,327.5C 744.689,323.5 735.689,325.5 728,333.5C 724.183,343.761 720.516,354.094 717,364.5C 714.14,370.365 710.14,375.365 705,379.5C 702.92,376.526 701.753,373.193 701.5,369.5C 702.819,356.099 704.653,342.765 707,329.5C 708.603,325.013 710.77,320.846 713.5,317C 712.284,315.26 710.618,314.26 708.5,314C 703.03,313.26 697.696,312.26 692.5,311C 700.901,303.455 710.568,299.289 721.5,298.5 Z"/></g>
<g><path style="opacity:1" fill="#fdfafa" d="M 708.5,360.5 C 707.71,359.599 706.71,358.932 705.5,358.5C 705.926,348.017 707.426,337.684 710,327.5C 711.908,322.455 715.074,318.622 719.5,316C 714.399,313.745 709.066,312.079 703.5,311C 701.725,307.629 702.725,305.462 706.5,304.5C 707.167,305.5 707.833,306.5 708.5,307.5C 708.833,306.167 709.167,304.833 709.5,303.5C 718.746,299.726 728.079,299.559 737.5,303C 740.4,305.397 742.733,308.23 744.5,311.5C 748.7,312.137 752.866,312.804 757,313.5C 756.89,317.129 756.724,320.796 756.5,324.5C 752.607,324.236 748.774,323.569 745,322.5C 739.558,323.97 734.391,326.136 729.5,329C 727.044,331.408 725.211,334.241 724,337.5C 721.847,345.131 719.014,352.464 715.5,359.5C 713.257,360.474 710.924,360.808 708.5,360.5 Z"/></g>
<g><path style="opacity:1" fill="#4e4f51" d="M 705.5,358.5 C 706.71,358.932 707.71,359.599 708.5,360.5C 710.607,361.468 712.941,361.802 715.5,361.5C 713.47,367.716 709.97,373.049 705,377.5C 703.093,371.028 703.26,364.694 705.5,358.5 Z"/></g>
<g><path style="opacity:1" fill="#002b74" d="M 93.5,465.5 C 156.168,465.667 218.834,465.5 281.5,465C 218.596,464.831 155.763,464.331 93,463.5C 92.6012,463.728 92.4346,464.062 92.5,464.5C 91.1991,463.116 91.1991,461.616 92.5,460C 473.167,459.333 853.833,459.333 1234.5,460C 1235.82,475.103 1235.82,490.27 1234.5,505.5C 1187.42,500.787 1140.42,501.62 1093.5,508C 1086.79,509.118 1080.12,510.452 1073.5,512C 1070.68,515.399 1071.68,516.899 1076.5,516.5C 1117.84,508.878 1159.5,506.378 1201.5,509C 1212.83,509.579 1224.17,510.079 1235.5,510.5C 1235.5,562.5 1235.5,614.5 1235.5,666.5C 1213.73,661.446 1191.73,657.613 1169.5,655C 1149.8,654.105 1130.14,654.439 1110.5,656C 1107.8,656.949 1106.97,658.783 1108,661.5C 1127.61,660.537 1147.44,660.37 1167.5,661C 1190.38,663.647 1213.05,667.48 1235.5,672.5C 1235.5,730.833 1235.5,789.167 1235.5,847.5C 1201.17,842.334 1166.67,840.667 1132,842.5C 1082.29,840.284 1032.79,835.784 983.5,829C 966.5,828.333 949.5,828.333 932.5,829C 928.383,829.549 927.716,831.216 930.5,834C 948.172,833.128 965.839,833.461 983.5,835C 1053.14,845.109 1123.14,849.775 1193.5,849C 1207.56,850.039 1221.56,851.539 1235.5,853.5C 1235.67,887.168 1235.5,920.835 1235,954.5C 1225.86,1055.76 1179.02,1133.26 1094.5,1187C 1047.35,1214.87 996.354,1229.87 941.5,1232C 754.5,1232.67 567.5,1232.67 380.5,1232C 308.047,1227.91 244.38,1202.58 189.5,1156C 187.473,1154.6 187.14,1152.94 188.5,1151C 235.968,1137.05 284.301,1132.72 333.5,1138C 413.65,1137.89 493.316,1131.55 572.5,1119C 577.136,1119.05 578.469,1117.05 576.5,1113C 511.531,1122.53 446.197,1128.86 380.5,1132C 364.5,1132.67 348.5,1132.67 332.5,1132C 281.458,1126.17 231.458,1131.01 182.5,1146.5C 181.5,1146.33 180.5,1146.17 179.5,1146C 161.806,1128.33 146.473,1109 133.5,1088C 133.759,1086.74 134.426,1085.74 135.5,1085C 228.964,1027.87 321.13,968.706 412,907.5C 415.15,904.021 418.65,900.854 422.5,898C 459.951,872.531 494.785,843.031 527,809.5C 534.213,801.289 541.046,792.789 547.5,784C 580.858,777.061 614.525,775.061 648.5,778C 671.787,781.049 695.12,783.549 718.5,785.5C 731.342,785.478 744.008,783.978 756.5,781C 756.957,780.586 757.291,780.086 757.5,779.5C 756.451,777.888 754.951,776.888 753,776.5C 737.348,780.06 721.515,781.226 705.5,780C 665.114,772.517 624.447,770.184 583.5,773C 573.881,774.04 564.381,775.54 555,777.5C 554.308,776.975 553.808,776.308 553.5,775.5C 562.977,761.878 569.143,746.878 572,730.5C 574.55,707.099 566.717,687.932 548.5,673C 533.498,661.997 517.165,653.33 499.5,647C 474.436,638.534 449.436,629.867 424.5,621C 413.039,616.856 403.205,610.356 395,601.5C 388.026,591.428 387.693,581.095 394,570.5C 404.334,557.916 416.834,548.083 431.5,541C 455.891,528.973 480.891,518.307 506.5,509C 549.847,493.995 593.514,479.995 637.5,467C 616.5,466.333 595.5,466.333 574.5,467C 514.271,482.408 456.271,503.742 400.5,531C 385.477,539.1 371.977,549.267 360,561.5C 353.831,568.837 349.498,577.17 347,586.5C 346.228,591.904 346.561,597.238 348,602.5C 350.876,608.423 354.376,613.923 358.5,619C 368.978,626.078 379.978,632.411 391.5,638C 420.729,648.298 449.395,659.965 477.5,673C 518.719,698.734 523.552,730.234 492,767.5C 470.395,789.449 446.229,807.949 419.5,823C 359.417,856.875 297.75,887.875 234.5,916C 187.826,936.588 140.993,956.755 94,976.5C 91.9451,975.328 91.2784,973.661 92,971.5C 152.328,945.421 212.494,918.921 272.5,892C 321.69,869.406 369.69,844.74 416.5,818C 440.617,804.035 462.784,787.535 483,768.5C 488.044,763.124 492.711,757.458 497,751.5C 511.632,728.232 509.299,706.899 490,687.5C 475.99,678.405 460.823,670.571 444.5,664C 424.265,656.922 404.265,649.255 384.5,641C 372.04,635.358 360.873,627.858 351,618.5C 339.228,603.981 337.561,588.314 346,571.5C 351.663,561.828 358.83,553.328 367.5,546C 385.518,532.649 404.852,521.316 425.5,512C 466.557,494.425 508.557,479.425 551.5,467C 550.737,466.056 549.737,465.556 548.5,465.5C 463.855,466.328 379.188,466.828 294.5,467C 301.354,475.664 301.021,483.997 293.5,492C 271.81,503.512 249.81,514.512 227.5,525C 212.655,532.173 199.488,541.673 188,553.5C 185.473,557.221 183.473,561.221 182,565.5C 181.335,570.997 183.168,575.497 187.5,579C 202.496,587.163 217.163,595.829 231.5,605C 260.299,626.087 260.799,648.254 233,671.5C 204.727,691.708 172.893,707.208 137.5,718C 123.582,722.146 109.582,725.979 95.5,729.5C 91.1737,729.022 90.5071,727.189 93.5,724C 132.674,715.276 170.008,701.609 205.5,683C 218.243,675.624 229.91,666.791 240.5,656.5C 251.614,639.614 249.447,625.614 234,614.5C 227.761,609.63 221.261,605.13 214.5,601C 204.175,595.84 194.175,590.173 184.5,584C 177.436,578.477 174.936,571.31 177,562.5C 181.091,550.107 188.758,541.44 200,536.5C 202.282,533.432 205.116,530.932 208.5,529C 233.911,514.961 259.911,501.961 286.5,490C 290.574,487.294 292.908,483.627 293.5,479C 293.217,473.04 290.217,469.04 284.5,467C 220.665,466.833 156.999,466.333 93.5,465.5 Z"/></g>
<g><path style="opacity:1" fill="#00186c" d="M 93.5,465.5 C 92.8333,465.5 92.5,465.167 92.5,464.5C 92.4346,464.062 92.6012,463.728 93,463.5C 155.763,464.331 218.596,464.831 281.5,465C 218.834,465.5 156.168,465.667 93.5,465.5 Z"/></g>
<g><path style="opacity:1" fill="#fefbfb" d="M 738.5,491.5 C 739.643,491.908 740.643,492.575 741.5,493.5C 752.968,514.269 764.301,535.103 775.5,556C 774.261,559.815 772.261,563.148 769.5,566C 759.172,566.5 748.839,566.666 738.5,566.5C 738.5,541.5 738.5,516.5 738.5,491.5 Z"/></g>
<g><path style="opacity:1" fill="#fefbfb" d="M 730.5,502.5 C 732.489,523.474 733.156,544.807 732.5,566.5C 719.833,566.5 707.167,566.5 694.5,566.5C 694.351,565.448 694.517,564.448 695,563.5C 706.857,543.112 718.69,522.778 730.5,502.5 Z"/></g>
<g><path style="opacity:1" fill="#f8f6f8" d="M 909.5,524.5 C 928.499,524.9 947.499,525.233 966.5,525.5C 966.5,526.5 966.5,527.5 966.5,528.5C 946.187,528.346 925.854,528.346 905.5,528.5C 905.5,527.5 905.5,526.5 905.5,525.5C 907.099,525.768 908.432,525.434 909.5,524.5 Z"/></g>
<g><path style="opacity:1" fill="#fbf9fa" d="M 582.5,536.5 C 605.838,535.213 628.838,537.379 651.5,543C 654.028,543.998 654.028,544.831 651.5,545.5C 635.164,542.143 618.664,540.143 602,539.5C 583.715,540.178 565.549,542.012 547.5,545C 534.817,545.682 522.15,545.516 509.5,544.5C 509.5,543.5 509.5,542.5 509.5,541.5C 520.811,542.551 532.145,542.717 543.5,542C 556.663,540.286 569.663,538.453 582.5,536.5 Z"/></g>
<g><path style="opacity:1" fill="#fefbfb" d="M 788.5,553.5 C 805.5,553.5 822.5,553.5 839.5,553.5C 839.66,555.199 839.494,556.866 839,558.5C 832.27,571.29 826.104,584.29 820.5,597.5C 831.016,598.071 841.349,597.071 851.5,594.5C 851.5,595.5 851.5,596.5 851.5,597.5C 844.073,600.118 836.407,601.452 828.5,601.5C 814.275,599.48 800.109,597.146 786,594.5C 773.558,595.861 761.224,597.861 749,600.5C 735.972,597.728 722.805,596.061 709.5,595.5C 699.019,595.636 688.685,596.969 678.5,599.5C 677.228,599.43 676.062,599.097 675,598.5C 670.414,590.56 666.914,582.227 664.5,573.5C 700.168,573.667 735.835,573.5 771.5,573C 772.766,572.691 773.933,572.191 775,571.5C 779.266,565.291 783.766,559.291 788.5,553.5 Z"/></g>
<g><path style="opacity:1" fill="#fbf8f9" d="M 657.5,594.5 C 658.833,594.5 660.167,594.5 661.5,594.5C 661.5,595.5 661.5,596.5 661.5,597.5C 652.788,599.524 643.954,600.858 635,601.5C 632.109,601.74 629.609,600.907 627.5,599C 637.801,598.546 647.801,597.046 657.5,594.5 Z"/></g>
<g><path style="opacity:1" fill="#fefcfb" d="M 857.5,597.5 C 859.225,597.843 859.725,598.843 859,600.5C 857.961,599.756 857.461,598.756 857.5,597.5 Z"/></g>
<g><path style="opacity:1" fill="#faf8f9" d="M 914.5,598.5 C 917.247,598.187 919.914,598.52 922.5,599.5C 922.291,600.086 921.957,600.586 921.5,601C 904.56,603.665 887.56,604.165 870.5,602.5C 870.5,601.5 870.5,600.5 870.5,599.5C 885.357,601.07 900.023,600.737 914.5,598.5 Z"/></g>
<g><path style="opacity:1" fill="#f6f4f7" d="M 685.5,605.5 C 691.352,605.051 697.019,605.551 702.5,607C 700.375,608.498 698.041,608.664 695.5,607.5C 688.23,609.106 680.897,609.606 673.5,609C 673.167,608.667 672.833,608.333 672.5,608C 677.047,607.571 681.381,606.738 685.5,605.5 Z"/></g>
<g><path style="opacity:1" fill="#faf8f9" d="M 780.5,606.5 C 783.731,607.098 784.064,608.264 781.5,610C 768.886,613.798 756.219,614.131 743.5,611C 742.328,610.581 741.328,609.915 740.5,609C 746.321,609.227 752.154,609.727 758,610.5C 765.82,610.221 773.32,608.887 780.5,606.5 Z"/></g>
<g><path style="opacity:1" fill="#fbf9fa" d="M 623.5,617.5 C 634.838,617.333 646.172,617.5 657.5,618C 673.852,620.225 690.185,622.559 706.5,625C 714.827,625.5 723.16,625.666 731.5,625.5C 731.5,626.5 731.5,627.5 731.5,628.5C 721.828,628.666 712.161,628.5 702.5,628C 682.327,624.142 661.994,621.642 641.5,620.5C 628.751,621.01 616.084,622.344 603.5,624.5C 602.5,624.167 601.5,623.833 600.5,623.5C 600.709,622.914 601.043,622.414 601.5,622C 608.9,620.16 616.234,618.66 623.5,617.5 Z"/></g>
<g><path style="opacity:1" fill="#faf7f9" d="M 837.5,620.5 C 847.196,620.409 856.863,620.909 866.5,622C 878.963,624.105 891.463,625.938 904,627.5C 910.61,627.199 917.11,626.199 923.5,624.5C 927.419,625.448 927.419,626.615 923.5,628C 917.471,629.844 911.305,630.677 905,630.5C 891.08,629.321 877.247,627.488 863.5,625C 838.726,623.305 814.393,625.805 790.5,632.5C 790.809,629.654 792.475,628.154 795.5,628C 809.496,624.724 823.496,622.224 837.5,620.5 Z"/></g>
<g><path style="opacity:1" fill="#fefbfb" d="M 831.5,787.5 C 832.794,788.29 833.961,789.29 835,790.5C 856,828.167 877,865.833 898,903.5C 898.706,905.971 898.373,908.305 897,910.5C 894.045,914.244 891.211,918.078 888.5,922C 869.158,922.833 849.825,922.666 830.5,921.5C 830.291,920.914 829.957,920.414 829.5,920C 830.755,877.567 830.755,835.234 829.5,793C 829.395,790.822 830.061,788.988 831.5,787.5 Z"/></g>
<g><path style="opacity:1" fill="#fefbfb" d="M 819.5,803.5 C 820.117,803.611 820.617,803.944 821,804.5C 821.5,843.832 821.667,883.165 821.5,922.5C 797.833,922.5 774.167,922.5 750.5,922.5C 750.46,919.575 751.293,916.909 753,914.5C 775.393,877.614 797.559,840.614 819.5,803.5 Z"/></g>
<g><path style="opacity:1" fill="#fefbfb" d="M 920.5,901.5 C 951.407,901.171 982.24,901.504 1013,902.5C 1013.67,903.833 1013.67,905.167 1013,906.5C 1000.92,929.986 989.423,953.652 978.5,977.5C 984.13,978.521 989.796,978.687 995.5,978C 1005.65,976.795 1015.65,974.961 1025.5,972.5C 1025.67,973.822 1025.34,974.989 1024.5,976C 1013.23,981.054 1001.4,983.554 989,983.5C 980.119,983.135 971.286,982.302 962.5,981C 952.322,977.718 941.989,975.052 931.5,973C 919.167,972.333 906.833,972.333 894.5,973C 882.426,974.948 870.426,977.281 858.5,980C 850.5,980.667 842.5,980.667 834.5,980C 822.12,977.924 809.787,975.591 797.5,973C 784.508,971.204 771.508,971.204 758.5,973C 744.449,975.01 730.449,977.01 716.5,979C 708.964,964.927 701.964,950.594 695.5,936C 695.905,935.055 696.572,934.388 697.5,934C 763.5,933.667 829.5,933.333 895.5,933C 904.047,922.625 912.381,912.125 920.5,901.5 Z"/></g>
<g><path style="opacity:1" fill="#fbf9fa" d="M 693.5,973.5 C 695.635,973.147 696.968,973.98 697.5,976C 695.287,978.081 692.62,979.415 689.5,980C 653.153,984.091 616.819,984.257 580.5,980.5C 580.5,979.167 580.5,977.833 580.5,976.5C 615.489,980.157 650.489,979.99 685.5,976C 688.379,975.454 691.046,974.621 693.5,973.5 Z"/></g>
<g><path style="opacity:1" fill="#fbf9fa" d="M 744.5,984.5 C 751.841,984.334 759.174,984.5 766.5,985C 768.592,985.953 768.925,987.286 767.5,989C 750.084,989.607 732.751,991.107 715.5,993.5C 712.167,993.333 708.833,993.167 705.5,993C 703.789,991.867 703.289,990.367 704,988.5C 717.822,989.928 731.322,988.595 744.5,984.5 Z"/></g>
<g><path style="opacity:1" fill="#f9f7f9" d="M 892.5,990.5 C 894.948,990.01 896.615,990.843 897.5,993C 896.318,994.735 894.651,995.735 892.5,996C 870.864,1002.18 849.198,1002.51 827.5,997C 823.862,996.548 821.528,994.714 820.5,991.5C 832.218,993.876 844.051,995.543 856,996.5C 868.521,995.83 880.688,993.83 892.5,990.5 Z"/></g>
<g><path style="opacity:1" fill="#fcf9fa" d="M 666.5,1006.5 C 682.199,1006.72 697.865,1007.55 713.5,1009C 736.806,1012.55 760.139,1015.88 783.5,1019C 794.833,1019.33 806.167,1019.67 817.5,1020C 819.513,1021.79 819.513,1023.12 817.5,1024C 805.167,1026 792.833,1026 780.5,1024C 757.459,1020.95 734.459,1017.61 711.5,1014C 688.83,1012.03 666.164,1012.03 643.5,1014C 630.801,1016.11 618.135,1018.27 605.5,1020.5C 605.137,1018.09 606.137,1016.59 608.5,1016C 627.617,1010.63 646.95,1007.46 666.5,1006.5 Z"/></g>
<g><path style="opacity:1" fill="#fcf9fa" d="M 992.5,1010.5 C 1013.22,1010.03 1033.89,1010.87 1054.5,1013C 1073.7,1017.11 1093.03,1020.44 1112.5,1023C 1113.83,1024.33 1113.83,1025.67 1112.5,1027C 1108.5,1027.67 1104.5,1027.67 1100.5,1027C 1083.53,1023.84 1066.53,1020.84 1049.5,1018C 1003.39,1012.89 958.224,1017.39 914,1031.5C 911.498,1030.5 910.998,1028.83 912.5,1026.5C 938.759,1018.45 965.426,1013.11 992.5,1010.5 Z"/></g>
<g><path style="opacity:0.016" fill="#fefffe" d="M 29.5,1115.5 C 28.8333,1116.17 28.8333,1116.17 29.5,1115.5 Z"/></g>
<g><path style="opacity:0.016" fill="#fefffe" d="M 1297.5,1115.5 C 1298.83,1116.17 1298.83,1116.17 1297.5,1115.5 Z"/></g>
<g><path style="opacity:0.016" fill="#fefffe" d="M 33.5,1123.5 C 32.8333,1124.17 32.8333,1124.17 33.5,1123.5 Z"/></g>
<g><path style="opacity:0.016" fill="#fefffe" d="M 1293.5,1123.5 C 1294.83,1124.17 1294.83,1124.17 1293.5,1123.5 Z"/></g>
<g><path style="opacity:0.016" fill="#fefffe" d="M 35.5,1127.5 C 34.8333,1128.17 34.8333,1128.17 35.5,1127.5 Z"/></g>
<g><path style="opacity:0.016" fill="#fefffe" d="M 37.5,1131.5 C 36.8333,1132.17 36.8333,1132.17 37.5,1131.5 Z"/></g>
<g><path style="opacity:0.012" fill="#fefcfb" d="M 1287.5,1135.5 C 1288.83,1136.17 1288.83,1136.17 1287.5,1135.5 Z"/></g>
<g><path style="opacity:0.012" fill="#fefdfc" d="M 41.5,1139.5 C 40.8333,1140.17 40.8333,1140.17 41.5,1139.5 Z"/></g>
<g><path style="opacity:0.016" fill="#fefffe" d="M 1281.5,1145.5 C 1282.83,1146.17 1282.83,1146.17 1281.5,1145.5 Z"/></g>
<g><path style="opacity:0.016" fill="#fefffe" d="M 47.5,1149.5 C 46.8333,1150.17 46.8333,1150.17 47.5,1149.5 Z"/></g>
<g><path style="opacity:0.012" fill="#fefcfb" d="M 1279.5,1149.5 C 1280.83,1150.17 1280.83,1150.17 1279.5,1149.5 Z"/></g>
<g><path style="opacity:0.039" fill="#fffdfd" d="M 49.5,1152.5 C 49.631,1153.24 49.4643,1153.91 49,1154.5C 48.3083,1153.56 48.475,1152.9 49.5,1152.5 Z"/></g>
<g><path style="opacity:0.016" fill="#fefffe" d="M 51.5,1155.5 C 50.8333,1156.17 50.8333,1156.17 51.5,1155.5 Z"/></g>
<g><path style="opacity:0.016" fill="#fefefd" d="M 1275.5,1155.5 C 1276.83,1156.17 1276.83,1156.17 1275.5,1155.5 Z"/></g>
<g><path style="opacity:0.012" fill="#fefffe" d="M 53.5,1159.5 C 52.8333,1160.17 52.8333,1160.17 53.5,1159.5 Z"/></g>
<g><path style="opacity:0.012" fill="#fefffe" d="M 1273.5,1159.5 C 1274.83,1160.17 1274.83,1160.17 1273.5,1159.5 Z"/></g>
<g><path style="opacity:0.012" fill="#fefffe" d="M 1269.5,1165.5 C 1270.83,1166.17 1270.83,1166.17 1269.5,1165.5 Z"/></g>
<g><path style="opacity:0.012" fill="#fefffe" d="M 61.5,1171.5 C 60.8333,1172.17 60.8333,1172.17 61.5,1171.5 Z"/></g>
<g><path style="opacity:0.012" fill="#fefffe" d="M 1265.5,1171.5 C 1266.83,1172.17 1266.83,1172.17 1265.5,1171.5 Z"/></g>
<g><path style="opacity:0.016" fill="#fefffe" d="M 1263.5,1173.5 C 1264.83,1174.17 1264.83,1174.17 1263.5,1173.5 Z"/></g>
<g><path style="opacity:0.039" fill="#fffdfd" d="M 65.5,1176.5 C 65.631,1177.24 65.4643,1177.91 65,1178.5C 64.3083,1177.56 64.475,1176.9 65.5,1176.5 Z"/></g>
<g><path style="opacity:0.039" fill="#fffdfd" d="M 1261.5,1176.5 C 1262.53,1176.9 1262.69,1177.56 1262,1178.5C 1261.54,1177.91 1261.37,1177.24 1261.5,1176.5 Z"/></g>
<g><path style="opacity:0.012" fill="#fefffe" d="M 67.5,1179.5 C 66.8333,1180.17 66.8333,1180.17 67.5,1179.5 Z"/></g>
<g><path style="opacity:0.012" fill="#fefffe" d="M 1259.5,1179.5 C 1260.83,1180.17 1260.83,1180.17 1259.5,1179.5 Z"/></g>
<g><path style="opacity:0.012" fill="#fefffe" d="M 71.5,1185.5 C 70.8333,1186.17 70.8333,1186.17 71.5,1185.5 Z"/></g>
<g><path style="opacity:0.012" fill="#fefffe" d="M 73.5,1187.5 C 72.8333,1188.17 72.8333,1188.17 73.5,1187.5 Z"/></g>
<g><path style="opacity:0.012" fill="#fefffe" d="M 1253.5,1187.5 C 1254.83,1188.17 1254.83,1188.17 1253.5,1187.5 Z"/></g>
<g><path style="opacity:0.016" fill="#fefffe" d="M 1251.5,1189.5 C 1252.83,1190.17 1252.83,1190.17 1251.5,1189.5 Z"/></g>
<g><path style="opacity:0.039" fill="#fffdfd" d="M 79.5,1194.5 C 79.631,1195.24 79.4643,1195.91 79,1196.5C 78.3083,1195.56 78.475,1194.9 79.5,1194.5 Z"/></g>
<g><path style="opacity:0.012" fill="#fefffe" d="M 81.5,1197.5 C 80.8333,1198.17 80.8333,1198.17 81.5,1197.5 Z"/></g>
<g><path style="opacity:0.012" fill="#fefffe" d="M 1245.5,1197.5 C 1246.83,1198.17 1246.83,1198.17 1245.5,1197.5 Z"/></g>
<g><path style="opacity:0.012" fill="#fefffe" d="M 83.5,1199.5 C 82.8333,1200.17 82.8333,1200.17 83.5,1199.5 Z"/></g>
<g><path style="opacity:0.012" fill="#fefffe" d="M 1243.5,1199.5 C 1244.83,1200.17 1244.83,1200.17 1243.5,1199.5 Z"/></g>
<g><path style="opacity:0.016" fill="#fefffe" d="M 85.5,1201.5 C 84.8333,1202.17 84.8333,1202.17 85.5,1201.5 Z"/></g>
<g><path style="opacity:0.033" fill="#fefdfc" d="M 94.5,1212.5 C 94.8333,1212.5 95.1667,1212.5 95.5,1212.5C 96.1667,1212.5 96.5,1212.83 96.5,1213.5C 95.3774,1214.76 94.7107,1214.42 94.5,1212.5 Z"/></g>
<g><path style="opacity:0.029" fill="#fffdfd" d="M 1231.5,1212.5 C 1231.83,1212.5 1232.17,1212.5 1232.5,1212.5C 1232.17,1215.17 1231.83,1215.17 1231.5,1212.5 Z"/></g>
<g><path style="opacity:0.012" fill="#fefffe" d="M 97.5,1215.5 C 96.8333,1216.17 96.8333,1216.17 97.5,1215.5 Z"/></g>
<g><path style="opacity:0.012" fill="#fefffe" d="M 1229.5,1215.5 C 1230.83,1216.17 1230.83,1216.17 1229.5,1215.5 Z"/></g>
<g><path style="opacity:0.012" fill="#fefffe" d="M 99.5,1217.5 C 98.8333,1218.17 98.8333,1218.17 99.5,1217.5 Z"/></g>
<g><path style="opacity:0.012" fill="#fefffe" d="M 1227.5,1217.5 C 1228.83,1218.17 1228.83,1218.17 1227.5,1217.5 Z"/></g>
<g><path style="opacity:0.012" fill="#fefffe" d="M 101.5,1219.5 C 100.833,1220.17 100.833,1220.17 101.5,1219.5 Z"/></g>
<g><path style="opacity:0.012" fill="#fefffe" d="M 1225.5,1219.5 C 1226.83,1220.17 1226.83,1220.17 1225.5,1219.5 Z"/></g>
<g><path style="opacity:0.012" fill="#fefffe" d="M 103.5,1221.5 C 102.833,1222.17 102.833,1222.17 103.5,1221.5 Z"/></g>
<g><path style="opacity:0.012" fill="#fefffe" d="M 1223.5,1221.5 C 1224.83,1222.17 1224.83,1222.17 1223.5,1221.5 Z"/></g>
<g><path style="opacity:0.012" fill="#fefffe" d="M 105.5,1223.5 C 104.833,1224.17 104.833,1224.17 105.5,1223.5 Z"/></g>
<g><path style="opacity:0.012" fill="#fefffe" d="M 1221.5,1223.5 C 1222.83,1224.17 1222.83,1224.17 1221.5,1223.5 Z"/></g>
<g><path style="opacity:0.012" fill="#fefffe" d="M 107.5,1225.5 C 106.833,1226.17 106.833,1226.17 107.5,1225.5 Z"/></g>
<g><path style="opacity:0.012" fill="#fefffe" d="M 1219.5,1225.5 C 1220.83,1226.17 1220.83,1226.17 1219.5,1225.5 Z"/></g>
<g><path style="opacity:0.012" fill="#fefefd" d="M 109.5,1227.5 C 108.833,1228.17 108.833,1228.17 109.5,1227.5 Z"/></g>
<g><path style="opacity:0.012" fill="#fefffe" d="M 1217.5,1227.5 C 1218.83,1228.17 1218.83,1228.17 1217.5,1227.5 Z"/></g>
<g><path style="opacity:0.033" fill="#fffcfc" d="M 1215.5,1228.5 C 1216.76,1229.62 1216.42,1230.29 1214.5,1230.5C 1214.5,1230.17 1214.5,1229.83 1214.5,1229.5C 1215.17,1229.5 1215.5,1229.17 1215.5,1228.5 Z"/></g>
<g><path style="opacity:0.012" fill="#fefffe" d="M 111.5,1229.5 C 110.833,1230.17 110.833,1230.17 111.5,1229.5 Z"/></g>
<g><path style="opacity:0.033" fill="#fefcfb" d="M 1213.5,1230.5 C 1213.83,1230.5 1214.17,1230.5 1214.5,1230.5C 1214.5,1231.83 1213.83,1232.5 1212.5,1232.5C 1212.5,1232.17 1212.5,1231.83 1212.5,1231.5C 1213.17,1231.5 1213.5,1231.17 1213.5,1230.5 Z"/></g>
<g><path style="opacity:0.012" fill="#fefcfb" d="M 123.5,1239.5 C 122.833,1240.17 122.833,1240.17 123.5,1239.5 Z"/></g>
<g><path style="opacity:0.012" fill="#fefcfb" d="M 1203.5,1239.5 C 1204.83,1240.17 1204.83,1240.17 1203.5,1239.5 Z"/></g>
<g><path style="opacity:0.012" fill="#fefffe" d="M 125.5,1241.5 C 124.833,1242.17 124.833,1242.17 125.5,1241.5 Z"/></g>
<g><path style="opacity:0.012" fill="#fefefd" d="M 1201.5,1241.5 C 1202.83,1242.17 1202.83,1242.17 1201.5,1241.5 Z"/></g>
<g><path style="opacity:0.012" fill="#fefffe" d="M 127.5,1243.5 C 126.833,1244.17 126.833,1244.17 127.5,1243.5 Z"/></g>
<g><path style="opacity:0.012" fill="#fefffe" d="M 1199.5,1243.5 C 1200.83,1244.17 1200.83,1244.17 1199.5,1243.5 Z"/></g>
<g><path style="opacity:0.039" fill="#fffcfc" d="M 129.5,1244.5 C 130.167,1244.5 130.5,1244.83 130.5,1245.5C 130.44,1246.04 130.107,1246.38 129.5,1246.5C 128.227,1245.74 128.227,1245.08 129.5,1244.5 Z"/></g>
<g><path style="opacity:0.039" fill="#fffdfd" d="M 1196.5,1245.5 C 1197.24,1245.37 1197.91,1245.54 1198.5,1246C 1197.56,1246.69 1196.9,1246.53 1196.5,1245.5 Z"/></g>
<g><path style="opacity:0.012" fill="#fefcfb" d="M 135.5,1249.5 C 134.833,1250.17 134.833,1250.17 135.5,1249.5 Z"/></g>
<g><path style="opacity:0.012" fill="#fefffe" d="M 137.5,1251.5 C 136.833,1252.17 136.833,1252.17 137.5,1251.5 Z"/></g>
<g><path style="opacity:0.012" fill="#fefffe" d="M 1189.5,1251.5 C 1190.83,1252.17 1190.83,1252.17 1189.5,1251.5 Z"/></g>
<g><path style="opacity:0.039" fill="#fefcfb" d="M 1187.5,1252.5 C 1188.04,1252.56 1188.38,1252.89 1188.5,1253.5C 1187.74,1254.77 1187.08,1254.77 1186.5,1253.5C 1187.17,1253.5 1187.5,1253.17 1187.5,1252.5 Z"/></g>
<g><path style="opacity:0.012" fill="#fefdfc" d="M 145.5,1257.5 C 144.833,1258.17 144.833,1258.17 145.5,1257.5 Z"/></g>
<g><path style="opacity:0.012" fill="#fefdfc" d="M 1181.5,1257.5 C 1182.83,1258.17 1182.83,1258.17 1181.5,1257.5 Z"/></g>
<g><path style="opacity:0.039" fill="#fffdfd" d="M 1178.5,1259.5 C 1179.24,1259.37 1179.91,1259.54 1180.5,1260C 1179.56,1260.69 1178.9,1260.53 1178.5,1259.5 Z"/></g>
<g><path style="opacity:0.016" fill="#fefcfb" d="M 151.5,1261.5 C 150.833,1262.17 150.833,1262.17 151.5,1261.5 Z"/></g>
<g><path style="opacity:0.039" fill="#fffdfd" d="M 154.5,1263.5 C 154.103,1264.53 153.437,1264.69 152.5,1264C 153.094,1263.54 153.761,1263.37 154.5,1263.5 Z"/></g>
<g><path style="opacity:0.012" fill="#fefffe" d="M 1173.5,1263.5 C 1174.83,1264.17 1174.83,1264.17 1173.5,1263.5 Z"/></g>
<g><path style="opacity:0.012" fill="#fefefd" d="M 159.5,1267.5 C 158.833,1268.17 158.833,1268.17 159.5,1267.5 Z"/></g>
<g><path style="opacity:0.012" fill="#fefdfc" d="M 1167.5,1267.5 C 1168.83,1268.17 1168.83,1268.17 1167.5,1267.5 Z"/></g>
<g><path style="opacity:0.012" fill="#fefefd" d="M 165.5,1271.5 C 164.833,1272.17 164.833,1272.17 165.5,1271.5 Z"/></g>
<g><path style="opacity:0.012" fill="#fefdfc" d="M 1161.5,1271.5 C 1162.83,1272.17 1162.83,1272.17 1161.5,1271.5 Z"/></g>
<g><path style="opacity:0.016" fill="#fefcfb" d="M 169.5,1273.5 C 168.833,1274.17 168.833,1274.17 169.5,1273.5 Z"/></g>
<g><path style="opacity:0.039" fill="#fffdfd" d="M 172.5,1275.5 C 172.103,1276.53 171.437,1276.69 170.5,1276C 171.094,1275.54 171.761,1275.37 172.5,1275.5 Z"/></g>
<g><path style="opacity:0.012" fill="#fefefd" d="M 1155.5,1275.5 C 1156.83,1276.17 1156.83,1276.17 1155.5,1275.5 Z"/></g>
<g><path style="opacity:0.016" fill="#fefcfb" d="M 1151.5,1277.5 C 1152.83,1278.17 1152.83,1278.17 1151.5,1277.5 Z"/></g>
<g><path style="opacity:0.016" fill="#fefcfb" d="M 179.5,1279.5 C 178.833,1280.17 178.833,1280.17 179.5,1279.5 Z"/></g>
<g><path style="opacity:0.012" fill="#fefdfc" d="M 185.5,1283.5 C 184.833,1284.17 184.833,1284.17 185.5,1283.5 Z"/></g>
<g><path style="opacity:0.012" fill="#fefcfb" d="M 1141.5,1283.5 C 1142.83,1284.17 1142.83,1284.17 1141.5,1283.5 Z"/></g>
<g><path style="opacity:0.016" fill="#fefcfb" d="M 193.5,1287.5 C 192.833,1288.17 192.833,1288.17 193.5,1287.5 Z"/></g>
<g><path style="opacity:0.016" fill="#fefcfb" d="M 1133.5,1287.5 C 1134.83,1288.17 1134.83,1288.17 1133.5,1287.5 Z"/></g>
<g><path style="opacity:0.016" fill="#fefcfb" d="M 197.5,1289.5 C 196.833,1290.17 196.833,1290.17 197.5,1289.5 Z"/></g>
</svg>
